<svg width="150" height="150" viewBox="0 0 150 150" fill="none" xmlns="http://www.w3.org/2000/svg">
<g clip-path="url(#clip0_140_59843)">
<path d="M51.3972 100.951C51.1541 100.596 50.933 100.308 50.8003 100.086C50.7119 99.9754 50.6677 99.9088 50.6234 99.8423C50.5792 99.7757 50.5792 99.7535 50.5792 99.7535C50.5792 99.7535 50.5129 99.8645 50.4024 100.086C50.2918 100.308 50.1592 100.619 50.0265 100.996C49.7391 101.772 49.4296 102.837 49.3633 104.035C49.319 104.634 49.3633 105.233 49.4959 105.832C49.6286 106.43 49.8275 107.029 50.1371 107.606C50.2255 107.739 50.2918 107.894 50.3803 108.028C50.4687 108.161 50.5792 108.294 50.6898 108.405C50.9109 108.649 51.1541 108.893 51.4415 109.115C51.9942 109.558 52.6574 109.913 53.4312 110.179C54.4261 109.336 54.6472 108.227 54.4703 107.096C54.3819 106.519 54.205 105.942 53.9618 105.388C53.8955 105.233 53.8292 105.1 53.7629 104.966C53.6965 104.811 53.6523 104.678 53.586 104.523C53.4533 104.234 53.3207 103.946 53.1659 103.68C52.8785 103.125 52.5469 102.615 52.2374 102.171C51.9057 101.728 51.6404 101.306 51.3972 100.951Z" fill="white"/>
<path d="M47.021 98.6224L46.9325 98.2009C46.7999 97.6464 46.623 97.0918 46.4461 96.626C46.3577 96.382 46.2693 96.1602 46.1808 95.9383C46.1145 95.7165 46.0482 95.4947 45.9819 95.3172C45.7166 94.563 45.4734 94.075 45.4734 94.075C45.4734 94.075 45.0975 94.4965 44.6332 95.1841C44.39 95.539 44.1469 95.9605 43.9037 96.4263C43.6605 96.8922 43.4173 97.4467 43.2625 97.9791C43.1078 98.5337 42.9972 99.1104 42.953 99.7093C42.9309 99.9977 42.9309 100.308 42.9751 100.619C42.9972 100.774 42.9972 100.929 43.0414 101.062C43.0857 101.218 43.1078 101.351 43.1741 101.484C43.351 102.061 43.6605 102.615 44.0584 103.103C44.2795 103.347 44.5006 103.591 44.788 103.813C45.0754 104.035 45.407 104.212 45.7608 104.368C46.9104 103.68 47.3084 102.682 47.3968 101.595C47.441 101.04 47.4189 100.464 47.3305 99.8868C47.2863 99.5984 47.2199 99.3101 47.1536 99.0439C47.1094 98.8886 47.0652 98.7555 47.021 98.6224Z" fill="white"/>
<path d="M38.7957 97.225C39.0167 97.469 39.2821 97.6908 39.5695 97.9127C40.8075 97.4247 41.4708 96.5374 41.7803 95.517C41.8687 95.273 41.9351 94.9846 42.0014 94.7184C42.0677 94.4522 42.1119 94.1638 42.134 93.8977C42.2004 93.3431 42.2004 92.7885 42.1783 92.234C42.2004 91.6794 42.1783 91.147 42.134 90.659C42.0898 90.171 42.0014 89.7274 42.0014 89.3503C41.9351 88.5739 41.8245 88.0859 41.8245 88.0859C41.8245 88.0859 41.3824 88.4186 40.7633 89.0175C40.4538 89.3281 40.1001 89.683 39.7684 90.1045C39.5916 90.3263 39.4147 90.5259 39.2599 90.7699C39.1052 90.9918 38.9504 91.2358 38.7957 91.4798C38.5083 91.99 38.2651 92.5224 38.0661 93.0769C37.9776 93.3653 37.9113 93.6537 37.845 93.942C37.8008 94.2304 37.8008 94.5188 37.8008 94.8071C37.845 95.3839 37.9776 95.9384 38.243 96.4708C38.3756 96.737 38.5525 97.0032 38.7957 97.225Z" fill="white"/>
<path d="M34.1987 90.082C34.3535 90.3482 34.5525 90.5922 34.7735 90.8362C36.0558 90.57 36.9181 89.8158 37.4708 88.8841C37.5371 88.7732 37.6034 88.6623 37.6697 88.5292C37.7361 88.4183 37.8024 88.2852 37.8687 88.1521C37.9793 87.9081 38.0898 87.6419 38.1782 87.3757C38.3772 86.8434 38.5099 86.311 38.5983 85.7786C38.731 85.2462 38.8194 84.7139 38.8857 84.248C38.9078 84.004 38.952 83.76 38.9741 83.5604C38.9963 83.3385 38.9963 83.1389 39.0405 82.9393C39.1289 82.1629 39.151 81.6749 39.151 81.6749C39.151 81.6749 38.6425 81.9632 37.9351 82.4513C37.5813 82.6953 37.1613 83.0058 36.7412 83.3607C36.299 83.7156 35.9232 84.1149 35.5252 84.5586C35.1273 85.0022 34.7735 85.4902 34.464 86.0004C34.3093 86.2444 34.1766 86.5106 34.0661 86.7768C33.9776 87.043 33.8892 87.3092 33.845 87.5976C33.7344 88.1299 33.7344 88.7067 33.8671 89.2612C33.9113 89.5718 34.044 89.838 34.1987 90.082Z" fill="white"/>
<path d="M35.2581 81.3202C35.6118 80.9209 35.9655 80.4551 36.2529 79.9671C36.5404 79.479 36.7835 78.9688 36.9825 78.4587C37.4247 77.4383 37.7342 76.4401 37.9111 75.708C38.1101 74.9538 38.2206 74.4658 38.2206 74.4658C38.2206 74.4658 37.69 74.6876 36.9162 75.1091C36.5404 75.3088 36.0761 75.5749 35.6339 75.8855C35.1696 76.196 34.7054 76.5288 34.2411 76.9059C33.3346 77.6601 32.4724 78.6139 32.0523 79.6343C31.8312 80.1445 31.7207 80.6991 31.7207 81.2315C31.7428 81.7638 31.9197 82.3184 32.2513 82.8508C33.5557 82.7399 34.5285 82.1409 35.2581 81.3202Z" fill="white"/>
<path d="M33.5575 74.4215C33.7565 74.244 33.9555 74.0444 34.1545 73.8447C34.3534 73.6451 34.5303 73.4233 34.7072 73.2015C35.0609 72.7578 35.3704 72.2698 35.6578 71.804C35.7905 71.56 35.9231 71.3381 36.0337 71.0941C36.1663 70.8501 36.2769 70.6061 36.3874 70.3843C36.6085 69.9185 36.7854 69.4748 36.9401 69.1199C37.2054 68.3657 37.3823 67.8777 37.3823 67.8777C37.3823 67.8777 36.8296 68.0551 36.0558 68.4322C35.282 68.7872 34.2429 69.3195 33.248 70.0072C32.7616 70.3399 32.2752 70.7392 31.8331 71.1385C31.413 71.5378 31.0372 72.0036 30.7497 72.4694C30.4623 72.9353 30.2413 73.4455 30.1749 73.9778C30.1086 74.488 30.1749 75.0426 30.396 75.575C31.6562 75.5972 32.6953 75.1313 33.5575 74.4215Z" fill="white"/>
<path d="M29.8625 67.7667C31.0563 67.922 32.1176 67.5227 33.0019 66.8794C33.4441 66.5689 33.8641 66.1696 34.24 65.7481C34.6379 65.3266 34.9917 64.883 35.3012 64.4394C35.6328 63.9957 35.876 63.5521 36.1634 63.1306C36.4287 62.7313 36.6498 62.332 36.8267 61.9993C37.0035 61.6666 37.1362 61.4004 37.2246 61.2007C37.313 61.0233 37.3794 60.9124 37.3794 60.9124C37.3794 60.9124 37.2467 60.9345 37.0035 61.0011C36.7603 61.0676 36.4287 61.1564 36.0308 61.2895C35.2349 61.5556 34.1958 61.9771 33.1788 62.5538C32.9135 62.6869 32.6703 62.8422 32.405 63.0197C32.1618 63.175 31.9407 63.3524 31.6975 63.5521C31.2553 63.9292 30.8574 64.3284 30.5036 64.7721C29.8625 65.6816 29.5751 66.702 29.8625 67.7667Z" fill="white"/>
<path d="M33.8647 58.6718C34.7711 58.1394 35.6555 57.3852 36.3851 56.631C36.5619 56.4536 36.7388 56.2539 36.8936 56.0765C37.0704 55.899 37.2252 55.7216 37.4021 55.5441C37.7116 55.1892 37.9769 54.8786 38.1759 54.5903C38.3748 54.3019 38.5738 54.0801 38.7065 53.9248C38.817 53.7695 38.9054 53.6808 38.9054 53.6808C38.9054 53.6808 38.3748 53.7252 37.5568 53.8804C36.7388 54.0135 35.6997 54.3019 34.6385 54.7234C34.1079 54.9452 33.5773 55.1892 33.0688 55.4776C32.6045 55.7881 32.1402 56.1209 31.7865 56.5201C31.6096 56.7198 31.4328 56.9194 31.278 57.1191C31.1232 57.3409 30.9906 57.5627 30.9243 57.7845C30.7474 58.2504 30.7032 58.7606 30.7695 59.2708C31.897 59.5148 32.9361 59.2042 33.8647 58.6718Z" fill="white"/>
<path d="M41.2715 47.5143C40.8736 47.5143 40.4093 47.5364 39.8787 47.603C39.3702 47.6473 38.8396 47.7361 38.2869 47.8692C37.7342 47.9801 37.1815 48.1575 36.6287 48.3572C36.3634 48.4459 36.0981 48.579 35.8328 48.6899C35.5896 48.8008 35.3686 48.9339 35.1475 49.0892C34.2852 49.7103 33.5999 50.5089 33.5557 51.5293C34.5727 51.9064 35.6339 51.7733 36.6066 51.4184C37.6457 51.0856 38.5964 50.5089 39.4586 49.9099C40.3651 49.3554 41.1168 48.7343 41.6695 48.2906C42.2443 47.847 42.598 47.5143 42.598 47.5143C42.598 47.5143 42.0674 47.4921 41.2715 47.5143Z" fill="white"/>
<path d="M46.4026 41.5693C45.6288 41.5028 44.5455 41.4584 43.4622 41.5471C42.3568 41.6359 41.185 41.8577 40.1902 42.3235C39.2174 42.7893 38.3994 43.4548 38.0898 44.3865C38.532 44.6305 38.9963 44.7636 39.4827 44.8301C39.9912 44.8745 40.4997 44.8523 41.0303 44.7636C41.5609 44.6527 42.0915 44.5196 42.6 44.3199C43.1085 44.1425 43.5949 43.9206 44.1034 43.6988C45.0982 43.2552 45.9605 42.745 46.6016 42.3679C47.2649 41.9908 47.6628 41.7246 47.6628 41.7246C47.6628 41.7246 47.1764 41.6359 46.4026 41.5693Z" fill="white"/>
<path d="M45.628 36.0681C44.6994 36.5117 43.8814 37.155 43.5498 38.0645C45.1637 39.0627 47.5293 38.3085 49.3865 37.3768C50.3592 36.911 51.2436 36.4008 51.8626 36.0015C52.4816 35.6023 52.8575 35.3139 52.8575 35.3139C52.8575 35.3139 50.9562 35.0477 48.7895 35.2917C47.7283 35.3804 46.5787 35.6244 45.628 36.0681Z" fill="white"/>
<path d="M96.6119 110.224C97.3857 109.958 98.0489 109.603 98.6016 109.159C98.8669 108.937 99.1322 108.693 99.3533 108.449C99.4639 108.316 99.5744 108.205 99.6628 108.072C99.7513 107.939 99.8397 107.806 99.906 107.651C100.216 107.074 100.415 106.475 100.525 105.876C100.658 105.277 100.724 104.678 100.658 104.079C100.569 102.881 100.282 101.817 99.9724 101.04C99.8397 100.641 99.6849 100.33 99.5965 100.131C99.486 99.9089 99.4196 99.798 99.4196 99.798C99.4196 99.798 99.3975 99.8202 99.3533 99.8867C99.3091 99.9311 99.2428 100.02 99.1764 100.131C99.0217 100.33 98.8227 100.619 98.5795 100.996C98.3363 101.351 98.0489 101.794 97.7836 102.282C97.4741 102.748 97.1425 103.258 96.8551 103.791C96.7003 104.057 96.5676 104.345 96.435 104.634C96.3687 104.767 96.3023 104.922 96.2581 105.055C96.1918 105.188 96.1255 105.344 96.0591 105.477C95.816 106.053 95.6391 106.608 95.5507 107.185C95.418 108.294 95.6391 109.381 96.6119 110.224Z" fill="white"/>
<path d="M105.365 95.1841C104.901 94.4965 104.525 94.075 104.525 94.075C104.525 94.075 104.304 94.5408 104.017 95.3172C103.95 95.5169 103.884 95.7165 103.818 95.9383C103.729 96.1602 103.641 96.382 103.552 96.626C103.375 97.114 103.198 97.6464 103.066 98.2009L102.977 98.6224C102.933 98.7555 102.889 98.8886 102.867 99.0439C102.801 99.3101 102.734 99.5984 102.69 99.8868C102.602 100.464 102.579 101.04 102.624 101.595C102.712 102.682 103.11 103.68 104.26 104.368C104.613 104.212 104.945 104.013 105.232 103.813C105.52 103.613 105.741 103.369 105.94 103.125C106.36 102.615 106.647 102.083 106.846 101.506C106.891 101.373 106.935 101.218 106.957 101.085C106.979 100.952 107.001 100.796 107.023 100.641C107.045 100.33 107.045 100.042 107.045 99.7315C107.001 99.1326 106.891 98.5559 106.736 98.0013C106.581 97.4689 106.338 96.9144 106.095 96.4485C105.852 95.9605 105.586 95.539 105.365 95.1841Z" fill="white"/>
<path d="M111.223 91.4798C111.068 91.2358 110.913 90.9918 110.78 90.7699C110.626 90.5481 110.449 90.3263 110.272 90.1045C109.918 89.683 109.564 89.3281 109.255 89.0175C108.636 88.4186 108.194 88.0859 108.194 88.0859C108.194 88.0859 108.083 88.5739 108.017 89.3503C107.995 89.7496 107.928 90.171 107.884 90.659C107.84 91.147 107.818 91.6794 107.818 92.234C107.796 92.7664 107.796 93.3431 107.862 93.8977C107.884 94.186 107.928 94.4522 107.995 94.7184C108.061 94.9846 108.127 95.2508 108.216 95.517C108.547 96.5152 109.189 97.4247 110.449 97.9127C110.736 97.713 111.002 97.469 111.223 97.2472C111.444 97.0032 111.643 96.7592 111.753 96.4708C112.019 95.9384 112.151 95.3617 112.195 94.8071C112.217 94.5188 112.195 94.2304 112.173 93.942C112.129 93.6537 112.063 93.3653 111.974 93.0769C111.775 92.5224 111.51 91.99 111.223 91.4798Z" fill="white"/>
<path d="M112.529 88.9066C113.082 89.8161 113.944 90.5703 115.226 90.8365C115.447 90.5925 115.646 90.3263 115.801 90.0823C115.956 89.8161 116.066 89.5499 116.133 89.2837C116.243 88.7291 116.243 88.1746 116.155 87.62C116.088 87.3317 116.022 87.0655 115.911 86.7993C115.823 86.5331 115.668 86.2669 115.514 86.0229C115.226 85.5127 114.85 85.0247 114.474 84.581C114.076 84.1374 113.679 83.7381 113.258 83.3832C112.838 83.0283 112.418 82.7177 112.065 82.4737C111.357 81.9635 110.849 81.6973 110.849 81.6973C110.849 81.6973 110.849 82.2075 110.959 82.9617C110.981 83.1614 111.003 83.361 111.026 83.5828C111.048 83.8047 111.07 84.0265 111.092 84.2705C111.158 84.7363 111.269 85.2687 111.401 85.8011C111.49 86.3334 111.622 86.8658 111.821 87.3982C111.91 87.6644 112.02 87.9306 112.153 88.1746C112.219 88.3077 112.286 88.4186 112.352 88.5517C112.396 88.6848 112.463 88.7957 112.529 88.9066Z" fill="white"/>
<path d="M118.275 81.2315C118.275 80.6991 118.165 80.1445 117.944 79.6343C117.546 78.6139 116.661 77.6601 115.755 76.9059C115.313 76.5288 114.826 76.1739 114.384 75.8855C113.942 75.5749 113.478 75.3309 113.08 75.1091C112.306 74.6876 111.775 74.4658 111.775 74.4658C111.775 74.4658 111.886 74.976 112.107 75.708C112.284 76.4401 112.616 77.4383 113.036 78.4587C113.235 78.9688 113.478 79.479 113.765 79.9671C114.053 80.4551 114.406 80.9209 114.76 81.3424C115.49 82.1409 116.462 82.762 117.767 82.8286C118.054 82.2962 118.253 81.7638 118.275 81.2315Z" fill="white"/>
<path d="M119.802 73.9334C119.736 73.401 119.515 72.913 119.228 72.425C118.94 71.9592 118.564 71.4934 118.144 71.0941C117.702 70.6726 117.238 70.2955 116.729 69.9628C115.757 69.2751 114.718 68.7427 113.944 68.3878C113.17 68.0329 112.617 67.8333 112.617 67.8333C112.617 67.8333 112.772 68.3213 113.059 69.0755C113.192 69.4526 113.369 69.874 113.59 70.3399C113.701 70.5839 113.811 70.8057 113.944 71.0497C114.076 71.2937 114.187 71.5377 114.32 71.7595C114.607 72.2254 114.916 72.7134 115.27 73.157C115.447 73.3789 115.646 73.6007 115.823 73.8003C116.022 74 116.221 74.1996 116.42 74.3771C117.26 75.0869 118.299 75.5749 119.559 75.5084C119.802 74.9982 119.869 74.4436 119.802 73.9334Z" fill="white"/>
<path d="M119.471 64.7942C119.139 64.3506 118.742 63.9513 118.277 63.5742C118.056 63.3968 117.813 63.2193 117.57 63.0418C117.327 62.8866 117.061 62.7313 116.796 62.576C115.779 61.9993 114.718 61.5778 113.922 61.3116C113.524 61.1785 113.192 61.0676 112.949 61.0232C112.706 60.9567 112.573 60.9345 112.573 60.9345C112.573 60.9345 112.617 61.0454 112.728 61.2229C112.816 61.4225 112.949 61.6887 113.126 62.0214C113.303 62.3542 113.524 62.7313 113.789 63.1527C114.055 63.552 114.32 64.0179 114.629 64.4615C114.961 64.9052 115.315 65.3488 115.691 65.7703C116.066 66.1917 116.486 66.5688 116.929 66.9016C117.813 67.5449 118.874 67.9441 120.068 67.7889C120.422 66.7019 120.134 65.6815 119.471 64.7942Z" fill="white"/>
<path d="M118.739 57.1191C118.607 56.9194 118.43 56.6976 118.231 56.5201C117.855 56.143 117.413 55.7881 116.926 55.4776C116.44 55.1892 115.887 54.923 115.357 54.7234C114.273 54.3019 113.256 54.0135 112.438 53.8804C111.62 53.7252 111.09 53.6808 111.09 53.6808C111.09 53.6808 111.156 53.7695 111.289 53.9248C111.421 54.0801 111.598 54.3019 111.819 54.5903C112.041 54.8786 112.306 55.1892 112.615 55.5441C112.77 55.7216 112.925 55.899 113.102 56.0765C113.279 56.2539 113.433 56.4536 113.61 56.631C114.318 57.3852 115.224 58.1173 116.131 58.6718C117.059 59.2042 118.12 59.4926 119.27 59.2707C119.358 58.7384 119.292 58.2504 119.115 57.7845C119.005 57.5627 118.872 57.3409 118.739 57.1191Z" fill="white"/>
<path d="M114.85 49.0892C114.629 48.934 114.407 48.8009 114.142 48.6678C113.899 48.5569 113.612 48.4238 113.346 48.335C112.816 48.1354 112.241 47.9801 111.688 47.847C111.135 47.7139 110.605 47.6252 110.096 47.5808C109.588 47.5365 109.101 47.5143 108.703 47.4921C107.908 47.4699 107.377 47.4921 107.377 47.4921C107.377 47.4921 107.731 47.8027 108.306 48.2685C108.88 48.7121 109.61 49.3332 110.494 49.91C111.334 50.5089 112.307 51.0635 113.346 51.4184C114.319 51.7733 115.38 51.9064 116.419 51.5293C116.397 50.5089 115.712 49.7103 114.85 49.0892Z" fill="white"/>
<path d="M109.832 42.3234C108.837 41.8797 107.643 41.6579 106.56 41.5692C105.477 41.4582 104.393 41.5026 103.62 41.5913C102.846 41.6579 102.359 41.7466 102.359 41.7466C102.359 41.7466 102.757 42.0128 103.421 42.3899C104.084 42.767 104.924 43.2772 105.919 43.7208C106.427 43.9427 106.914 44.1645 107.422 44.342C107.931 44.5194 108.461 44.6747 108.992 44.7634C109.5 44.8521 110.031 44.8965 110.54 44.83C111.026 44.7856 111.512 44.6525 111.954 44.3863C111.601 43.4547 110.783 42.7892 109.832 42.3234Z" fill="white"/>
<path d="M100.59 37.3769C102.469 38.3085 104.791 39.0405 106.427 38.0645C106.095 37.155 105.277 36.5118 104.349 36.0681C103.42 35.6245 102.27 35.4026 101.187 35.2695C99.0205 35.0477 97.1191 35.2917 97.1191 35.2917C97.1191 35.2917 97.495 35.5801 98.1361 35.9794C98.7552 36.4008 99.6395 36.911 100.59 37.3769Z" fill="white"/>
<path d="M121.039 83.8045C122.211 84.0042 123.338 83.6936 124.355 83.0281C124.908 82.6732 125.35 82.2296 125.814 81.7416C126.257 81.2536 126.655 80.699 127.03 80.1444C127.738 79.0131 128.224 77.8375 128.556 76.9502C128.843 76.0629 128.998 75.464 128.998 75.464C128.998 75.464 128.445 75.708 127.649 76.1516C127.251 76.3734 126.787 76.6396 126.279 76.928C125.77 77.2385 125.24 77.5713 124.709 77.9484C123.648 78.7026 122.653 79.5677 121.901 80.5437C121.857 80.5881 121.835 80.6324 121.791 80.6768C122.167 78.9466 122.476 77.1942 122.697 75.464C123.692 75.4196 124.554 75.0203 125.306 74.377C125.527 74.1774 125.748 73.9777 125.947 73.7337C126.146 73.5119 126.323 73.2679 126.5 73.0017C126.854 72.4915 127.141 71.937 127.406 71.3824C127.539 71.094 127.649 70.8057 127.76 70.5395C127.871 70.2733 127.959 70.0071 128.025 69.7409C128.202 69.2307 128.313 68.7427 128.423 68.3212C128.644 67.4783 128.689 66.9015 128.689 66.9015C128.689 66.9015 128.202 67.1677 127.45 67.6336C126.721 68.0994 125.748 68.7427 124.842 69.5191C124.377 69.9184 123.957 70.3398 123.559 70.7835C123.382 70.9609 123.228 71.1606 123.073 71.3602C123.161 69.874 123.184 68.3878 123.139 66.9237C123.847 66.7241 124.444 66.347 124.974 65.8146C125.35 65.4153 125.704 64.9495 125.991 64.4393C126.257 63.9291 126.5 63.3746 126.677 62.82C126.854 62.2654 127.03 61.7109 127.119 61.1785C127.207 60.6461 127.274 60.1359 127.318 59.7145C127.362 59.293 127.384 58.9159 127.384 58.6719C127.384 58.4279 127.384 58.2726 127.384 58.2726C127.384 58.2726 127.274 58.3391 127.075 58.4944C126.898 58.6275 126.61 58.8493 126.279 59.0933C125.638 59.6035 124.775 60.3356 124.002 61.1785C123.803 61.3781 123.626 61.6 123.427 61.8218C123.25 62.0436 123.051 62.2654 122.874 62.5094C122.83 62.576 122.786 62.6425 122.741 62.7091C122.564 61.2894 122.299 59.8697 121.945 58.4944C122.609 58.2504 123.139 57.8068 123.559 57.23C124.223 56.3871 124.51 55.2558 124.687 54.1023C124.731 53.8139 124.753 53.5256 124.775 53.2594C124.775 52.971 124.775 52.7048 124.775 52.4386C124.753 51.9063 124.709 51.3961 124.687 50.9524C124.643 50.5088 124.576 50.1538 124.51 49.9098C124.488 49.6437 124.466 49.4884 124.466 49.4884C124.466 49.4884 124.112 49.8433 123.626 50.4422C123.139 51.019 122.454 51.8619 121.879 52.7492C121.592 53.1928 121.326 53.6808 121.105 54.1689C121.017 54.3463 120.928 54.5238 120.862 54.7012C120.287 53.0819 119.646 51.5957 118.961 50.2204C119.668 49.9098 120.177 49.3331 120.486 48.6233C120.84 47.736 120.906 46.5825 120.774 45.4512C120.575 44.3864 120.265 43.2773 119.956 42.4787C119.624 41.7024 119.337 41.1922 119.337 41.1922C119.337 41.1922 119.093 41.5914 118.762 42.2126C118.607 42.5231 118.43 42.9002 118.253 43.2995C118.076 43.6988 117.877 44.1646 117.701 44.6526C117.546 45.1184 117.391 45.6286 117.303 46.1167C117.258 46.3607 117.214 46.6047 117.214 46.8487C117.214 46.9374 117.192 47.0261 117.192 47.1149C116.175 45.5177 115.07 44.0315 113.832 42.5897C114.185 42.4122 114.451 42.1904 114.672 41.9242C114.937 41.5914 115.092 41.17 115.158 40.7263C115.224 40.2827 115.202 39.7725 115.136 39.2845C115.048 38.7743 114.915 38.2419 114.716 37.7539C114.318 36.7557 113.832 35.7797 113.389 35.092C112.947 34.4044 112.594 33.9829 112.594 33.9829C112.594 33.9829 112.417 34.3822 112.24 35.0033C112.041 35.6244 111.842 36.4673 111.709 37.4212C111.577 38.3528 111.577 39.351 111.842 40.2605C111.864 40.327 111.886 40.3936 111.908 40.4601C110.471 38.9739 108.901 37.4655 107.177 35.9128C108.879 34.9367 108.415 32.9181 107.464 31.0992C106.978 30.1897 106.359 29.3689 105.873 28.77C105.364 28.1267 105.01 27.7496 105.01 27.7496C105.01 27.7496 104.524 29.3024 104.546 31.077C104.546 31.9643 104.701 32.8738 105.055 33.7611C105.143 33.9385 105.231 34.116 105.32 34.2713C103.75 32.8516 101.031 31.4319 101.031 31.4319C111.886 40.5489 120.177 51.5957 121.415 64.2397C121.857 68.8314 121.304 73.4232 120.597 77.9706C119.801 83.1169 118.497 88.241 115.844 93.0102C111.731 100.375 106.271 106.275 98.7978 110.889C98.7978 110.889 87.6331 116.524 75.6503 116.634C75.3628 116.634 75.0754 116.634 74.788 116.634C74.6554 116.634 74.5227 116.634 74.368 116.634C62.5178 116.457 51.1983 110.889 51.1983 110.889C43.7477 106.275 38.2869 100.397 34.1747 93.0102C31.5217 88.241 30.2394 83.1169 29.4214 77.9706C28.7139 73.4232 28.1612 68.8314 28.6034 64.2397C29.8414 51.5735 38.1321 40.5489 48.9874 31.4319C48.9874 31.4319 46.2681 32.8738 44.6984 34.2713C44.8089 34.116 44.8973 33.9385 44.9637 33.7611C45.3174 32.8959 45.4722 31.9643 45.4943 31.077C45.4722 29.3024 45.0079 27.7496 45.0079 27.7496C45.0079 27.7496 44.6541 28.1267 44.1678 28.7478C43.6814 29.3689 43.0623 30.1897 42.5759 31.077C41.6032 32.9181 41.161 34.9367 42.8634 35.8906C41.1389 37.4655 39.5692 38.9517 38.1321 40.438C38.1542 40.3714 38.1763 40.3049 38.1763 40.2383C38.4417 39.3288 38.4417 38.3306 38.309 37.399C38.1763 36.4673 37.9774 35.6022 37.7784 35.0033C37.5794 34.36 37.4247 33.9607 37.4247 33.9607C37.4247 33.9607 37.0709 34.4044 36.6288 35.092C36.1866 35.7797 35.6781 36.7557 35.3022 37.7539C35.0812 38.2419 34.9485 38.7743 34.8822 39.2845C34.7937 39.7947 34.7937 40.2827 34.8601 40.7485C34.9264 41.1922 35.0812 41.6136 35.3465 41.9464C35.5454 42.2126 35.8107 42.4344 36.1645 42.6118C34.9264 44.0537 33.821 45.5399 32.804 47.1149C32.804 47.0261 32.7819 46.9374 32.7819 46.8487C32.7598 46.6047 32.7377 46.3607 32.6934 46.1167C32.5829 45.6065 32.4502 45.1184 32.2734 44.6526C32.1186 44.1868 31.9196 43.6988 31.7428 43.2995C31.5659 42.9002 31.389 42.5231 31.2343 42.2126C30.9027 41.5914 30.6595 41.1922 30.6595 41.1922C30.6595 41.1922 30.3942 41.7024 30.0404 42.4787C29.7309 43.2773 29.4214 44.3864 29.2445 45.4734C29.1119 46.6047 29.1782 47.7581 29.5319 48.6454C29.8414 49.3553 30.3278 49.9098 31.0574 50.2426C30.3499 51.6179 29.7309 53.1041 29.1561 54.7234C29.0898 54.546 29.0013 54.3685 28.9129 54.1689C28.6697 53.6808 28.4265 53.215 28.117 52.7492C27.5422 51.8397 26.8568 51.019 26.3925 50.4422C25.884 49.8433 25.5303 49.4884 25.5303 49.4884C25.5303 49.4884 25.5082 49.6437 25.4419 49.8877C25.3976 50.1317 25.3092 50.4866 25.265 50.9302C25.2208 51.3739 25.1766 51.8619 25.1766 52.4164C25.1766 52.6826 25.1544 52.9488 25.1766 53.2372C25.1987 53.5256 25.2208 53.8139 25.265 54.0801C25.4197 55.2336 25.7293 56.3649 26.3925 57.2078C26.8126 57.7846 27.3432 58.2282 27.9843 58.4722C27.6306 59.8697 27.3874 61.2672 27.1884 62.6869C27.1442 62.6203 27.1 62.5538 27.0558 62.4873C26.8789 62.2432 26.702 62.0214 26.5031 61.7996C26.3262 61.5778 26.1272 61.3781 25.9282 61.1563C25.1544 60.3356 24.3143 59.6035 23.6511 59.0933C23.3194 58.8272 23.032 58.6275 22.8552 58.4722C22.6562 58.3391 22.5456 58.2504 22.5456 58.2504C22.5456 58.2504 22.5456 58.4057 22.5456 58.6497C22.5678 58.8937 22.5899 59.2486 22.6341 59.6923C22.6783 60.1359 22.7446 60.6239 22.8331 61.1563C22.9215 61.6887 23.0984 62.2432 23.2752 62.7978C23.4521 63.3524 23.6953 63.9069 23.9606 64.4171C24.248 64.9273 24.5796 65.3931 24.9776 65.7924C25.4861 66.3248 26.1051 66.7019 26.7905 66.9015C26.7463 68.3878 26.7684 69.8518 26.8568 71.338C26.702 71.1384 26.5473 70.9387 26.3704 70.7613C25.9725 70.3176 25.5303 69.8962 25.0881 69.4969C24.1817 68.7205 23.2089 68.055 22.4793 67.6114C21.7497 67.1456 21.2412 66.8794 21.2412 66.8794C21.2412 66.8794 21.3076 67.4561 21.5065 68.299C21.6171 68.7205 21.7497 69.2085 21.9045 69.7187C21.9929 69.9849 22.0814 70.2511 22.1698 70.5173C22.2803 70.7835 22.413 71.0718 22.5235 71.3602C22.7888 71.9148 23.0762 72.4693 23.43 72.9795C23.6068 73.2457 23.7837 73.4897 23.9827 73.7115C24.1817 73.9334 24.4028 74.1552 24.6238 74.3548C25.3755 74.9981 26.2378 75.3974 27.2326 75.4418C27.4537 77.1942 27.7632 78.9244 28.1391 80.6546C28.117 80.6103 28.0728 80.5659 28.0507 80.5215C27.299 79.5455 26.3041 78.6804 25.2429 77.9262C24.7123 77.5491 24.1817 77.2164 23.6732 76.9058C23.2089 76.6174 22.7667 76.3512 22.3688 76.1294C21.5508 75.6858 20.998 75.4418 20.998 75.4418C20.998 75.4418 21.1307 76.0407 21.4402 76.928C21.7718 77.8153 22.2582 78.991 22.9657 80.1223C23.3415 80.6768 23.7395 81.2314 24.1817 81.7194C24.6238 82.2296 25.0881 82.6732 25.6408 83.006C26.6578 83.6714 27.7632 84.0042 28.9571 83.7823C29.0234 84.0042 29.0676 84.226 29.134 84.4256C29.5319 85.9784 30.0404 87.509 30.6374 88.9952C30.5268 88.8843 30.4163 88.7734 30.3057 88.6625C30.0625 88.4406 29.7972 88.2188 29.5319 88.0192C29.2445 87.8195 29.0013 87.6199 28.7139 87.4203C28.1391 87.021 27.5201 86.6882 26.901 86.3555C26.282 86.0228 25.6408 85.7344 25.0881 85.4904C24.5354 85.2242 24.0048 85.0024 23.5405 84.8249C22.6341 84.47 22.015 84.2704 22.015 84.2704C22.015 84.2704 22.2582 84.8915 22.7446 85.7788C22.9657 86.2224 23.3194 86.7326 23.6953 87.2872C24.0711 87.8195 24.4912 88.3963 24.9555 88.9287C25.464 89.461 25.9946 89.9934 26.5694 90.4371C26.8568 90.6589 27.1442 90.8807 27.4316 91.0804C27.5864 91.1691 27.719 91.2578 27.8738 91.3465C28.0285 91.4353 28.1833 91.5018 28.3381 91.5684C29.554 92.1229 30.77 92.3004 31.9196 91.9011C32.7598 93.587 33.7104 95.2285 34.838 96.8256C34.639 96.7369 34.4621 96.6038 34.2631 96.4707C33.9536 96.2932 33.6441 96.1158 33.3125 95.9383C33.003 95.7608 32.6713 95.6056 32.3176 95.4503C31.6543 95.1397 30.9469 94.8735 30.2173 94.6295C29.8857 94.5186 29.5319 94.4077 29.1782 94.2968C28.8466 94.1859 28.5149 94.0972 28.2054 94.0084C27.5643 93.831 26.9894 93.6535 26.481 93.5426C25.464 93.2986 24.8007 93.1655 24.8007 93.1655C24.8007 93.1655 25.2208 93.7644 25.9061 94.6295C26.2378 95.0732 26.702 95.539 27.2326 96.0492C27.7411 96.5594 28.316 97.0696 28.935 97.5576C29.5761 98.0234 30.2615 98.4893 30.9469 98.8664C31.3006 99.0438 31.6322 99.2213 31.986 99.3766C32.3176 99.5318 32.6713 99.6649 33.0251 99.7537C34.4179 100.131 35.7223 100.086 36.8056 99.4653C37.8889 100.841 39.0386 102.216 40.2767 103.547C40.2324 103.525 40.1661 103.502 40.1219 103.48C39.945 103.414 39.7682 103.347 39.5692 103.281C39.3702 103.214 39.2154 103.148 39.0386 103.081C38.6848 102.97 38.309 102.859 37.911 102.748C37.1373 102.549 36.3635 102.393 35.5675 102.26C34.7716 102.149 34.0642 102.016 33.3567 101.928C32.6713 101.839 32.0302 101.772 31.4775 101.728C30.3942 101.639 29.6646 101.617 29.6646 101.617C29.6646 101.617 30.2394 102.172 31.1901 102.948C31.4333 103.148 31.6765 103.347 31.9639 103.569C32.2513 103.769 32.5608 103.991 32.8924 104.19C33.5557 104.612 34.2631 105.033 35.0148 105.432C35.1917 105.521 35.3907 105.632 35.5675 105.721C35.7665 105.809 35.9655 105.898 36.1645 105.987C36.5624 106.142 36.9604 106.297 37.3583 106.431C38.1542 106.697 38.9501 106.896 39.7018 106.985C40.9841 107.118 42.1338 106.941 43.0181 106.408C44.013 107.384 45.0521 108.316 46.1354 109.181C45.8038 109.137 45.4722 109.092 45.1405 109.048C44.3225 108.959 43.4603 108.959 42.6644 108.915C41.0726 108.871 39.525 108.937 38.3974 109.026C37.8226 109.07 37.3583 109.115 37.0488 109.137C36.7172 109.181 36.5403 109.181 36.5403 109.181C36.5403 109.181 36.5845 109.203 36.673 109.27C36.7614 109.314 36.8719 109.403 37.0488 109.492C37.3804 109.691 37.8447 109.958 38.4195 110.268C38.9944 110.579 39.6576 110.911 40.4093 111.266C41.1831 111.599 42.0011 111.887 42.8634 112.176C43.2834 112.309 43.7256 112.442 44.1456 112.553C44.3667 112.619 44.5657 112.664 44.7868 112.708C45.0079 112.753 45.229 112.797 45.4279 112.819C46.3123 112.952 47.1524 113.041 47.9262 113.019C48.9874 112.997 49.916 112.775 50.6455 112.331C51.0435 112.575 51.4636 112.797 51.8836 113.019C51.9721 113.063 52.0605 113.085 52.1047 113.085C57.7424 116.191 64.7065 118.099 70.4326 118.786C65.8341 119.651 60.4396 120.583 54.7135 121.47L48.5231 126.75C48.5231 126.75 62.4515 122.091 75.4513 119.141C88.429 122.114 102.357 126.75 102.357 126.75L96.1669 121.47C90.2861 120.583 84.759 119.607 80.0941 118.72C87.1909 117.899 93.1602 115.814 97.9577 113.085C98.0019 113.085 98.0683 113.063 98.1346 113.019C98.5547 112.797 98.9526 112.575 99.3727 112.331C100.102 112.775 101.031 112.997 102.092 113.019C102.866 113.041 103.728 112.974 104.59 112.819C104.811 112.797 105.032 112.753 105.254 112.708C105.475 112.664 105.674 112.597 105.895 112.553C106.315 112.442 106.757 112.309 107.177 112.176C108.039 111.91 108.857 111.599 109.631 111.266C110.361 110.911 111.046 110.579 111.621 110.268C112.196 109.958 112.66 109.691 112.992 109.492C113.146 109.403 113.279 109.314 113.367 109.27C113.434 109.226 113.5 109.181 113.5 109.181C113.5 109.181 113.323 109.159 112.992 109.137C112.66 109.115 112.196 109.07 111.643 109.026C110.515 108.937 108.968 108.871 107.376 108.915C106.602 108.959 105.718 108.959 104.9 109.048C104.568 109.092 104.237 109.137 103.905 109.181C104.988 108.294 106.027 107.362 107.044 106.408C107.929 106.941 109.078 107.118 110.361 106.985C111.112 106.896 111.886 106.697 112.682 106.431C113.08 106.297 113.478 106.142 113.876 105.987C114.075 105.898 114.274 105.809 114.473 105.721C114.672 105.632 114.849 105.521 115.048 105.432C115.777 105.033 116.507 104.612 117.17 104.19C117.502 103.968 117.811 103.769 118.099 103.569C118.364 103.347 118.629 103.148 118.872 102.948C119.823 102.194 120.398 101.617 120.398 101.617C120.398 101.617 119.69 101.639 118.585 101.728C118.032 101.772 117.391 101.839 116.706 101.928C115.998 102.016 115.291 102.149 114.495 102.26C113.721 102.393 112.925 102.549 112.151 102.748C111.776 102.837 111.4 102.97 111.024 103.081C110.847 103.148 110.67 103.214 110.471 103.281C110.294 103.347 110.117 103.414 109.941 103.48C109.874 103.502 109.83 103.525 109.786 103.547C111.002 102.194 112.151 100.818 113.257 99.4653C114.34 100.086 115.645 100.131 117.037 99.7537C117.391 99.6649 117.745 99.5318 118.099 99.3766C118.452 99.2213 118.806 99.066 119.138 98.8664C119.823 98.4893 120.508 98.0456 121.15 97.5576C121.746 97.0696 122.321 96.5594 122.852 96.0492C123.36 95.539 123.825 95.0732 124.178 94.6295C124.886 93.7644 125.306 93.1655 125.306 93.1655C125.306 93.1655 124.621 93.2986 123.626 93.5426C123.117 93.6757 122.52 93.831 121.901 94.0084C121.592 94.0972 121.26 94.2081 120.906 94.2968C120.553 94.4077 120.199 94.5186 119.845 94.6295C119.138 94.8735 118.43 95.1397 117.745 95.4503C117.413 95.6056 117.082 95.7608 116.772 95.9383C116.44 96.0936 116.131 96.271 115.821 96.4707C115.622 96.5816 115.446 96.7147 115.269 96.8478C116.396 95.2506 117.347 93.6091 118.187 91.9233C119.359 92.3226 120.575 92.1451 121.769 91.5905C121.923 91.524 122.078 91.4353 122.233 91.3465C122.388 91.2578 122.52 91.1691 122.675 91.0804C122.962 90.8807 123.25 90.6811 123.537 90.4371C124.112 89.9934 124.643 89.461 125.151 88.9287C125.615 88.3963 126.036 87.8195 126.411 87.2872C126.765 86.7548 127.119 86.2446 127.362 85.7788C127.826 84.8915 128.092 84.2704 128.092 84.2704C128.092 84.2704 127.473 84.47 126.566 84.8249C126.124 85.0024 125.571 85.2242 125.019 85.4904C124.466 85.7566 123.825 86.045 123.206 86.3555C122.587 86.6661 121.968 87.021 121.393 87.4203C121.105 87.6199 120.84 87.8195 120.575 88.0192C120.309 88.2188 120.044 88.4406 119.801 88.6625C119.69 88.7734 119.558 88.8843 119.469 88.9952C120.066 87.4868 120.553 85.9562 120.973 84.4256C120.928 84.2482 120.995 84.0264 121.039 83.8045Z" fill="white"/>
</g>
<path d="M62.4675 80.4614C58.6266 80.3067 54.9022 80.1613 51.2727 79.2056C50.4381 78.9867 49.6173 78.6819 48.8301 78.3281C48.3538 78.1137 47.899 77.7845 47.5253 77.4139C45.6233 75.5226 45.7627 73.7017 47.9541 72.1856C48.7244 71.6526 49.5637 71.1764 50.435 70.8379C52.478 70.0416 54.5607 69.3494 56.622 68.6005C57.2131 68.3861 57.4352 68.5683 57.5209 69.1855C57.7752 70.9895 58.0217 71.2575 59.815 71.6098C62.6191 72.1611 65.4491 72.1105 68.2792 71.8716C75.8123 71.2361 83.007 69.3907 89.6978 65.7873C90.5278 65.3401 91.3747 64.896 92.1205 64.3278C92.6871 63.896 93.0975 63.2635 93.5891 62.729C93.7851 62.5161 93.9949 62.1731 94.2231 62.1517C96.4238 61.9449 98.6275 61.7566 100.836 61.6555C101.39 61.631 101.989 61.8791 102.516 62.1164C103.727 62.6616 104.157 63.7505 103.476 64.896C102.925 65.8225 102.205 66.6924 101.407 67.4182C99.0318 69.5806 96.312 71.2361 93.3778 72.547C85.2505 76.175 76.8445 78.8611 68.0005 80.0663C67.2685 80.1659 66.5303 80.2363 65.7922 80.2853C64.6467 80.3619 63.4996 80.4078 62.4675 80.4614Z" fill="white"/>
<path d="M70.0505 48.8803C68.4609 49.2923 66.8697 49.7043 65.2801 50.1147C65.2847 50.2081 65.2893 50.3015 65.2939 50.3949C65.6691 50.3949 66.0581 50.4623 66.4149 50.3842C68.1301 50.0059 69.8529 49.6461 71.5406 49.1667C72.9357 48.7701 74.2788 48.1958 75.657 47.7333C78.1303 46.9048 80.6893 46.9538 83.23 47.1866C84.4827 47.3014 85.7461 47.6246 86.9314 48.0549C88.6956 48.6966 89.6252 50.0366 89.9851 51.9294C90.4016 54.1239 91.0372 56.2787 91.6559 58.4288C91.832 59.0414 91.5441 59.2006 91.1444 59.412C87.6558 61.2619 83.9972 62.6647 80.1564 63.582C73.3676 65.2038 66.5298 65.3539 59.6491 64.2405C58.9385 64.1257 58.6674 63.8745 58.8297 63.1379C59.2325 61.3216 59.574 59.4916 59.9752 57.6753C60.1008 57.1056 60.2632 56.5191 60.5449 56.0153C61.669 54.006 62.3153 51.8513 62.7134 49.5971C62.7793 49.228 63.1223 48.8222 63.4516 48.6108C63.8421 48.3612 64.3475 48.228 64.8176 48.1759C66.5879 47.9799 68.3154 48.277 70.0505 48.8803Z" fill="white"/>
<defs>
<clipPath id="clip0_140_59843">
<rect width="108" height="99" fill="white" transform="translate(20.998 27.7496)"/>
</clipPath>
</defs>
</svg>
