<svg width="439" height="609" viewBox="0 0 439 609" fill="none" xmlns="http://www.w3.org/2000/svg">
<path d="M13.9261 391.17C14.712 391.77 13.6889 392.473 14.3957 393.211C15.0729 390.997 15.6957 388.907 16.3481 386.821C17.1637 384.226 17.9249 381.6 19.6104 379.391C20.3123 378.475 20.3272 377.464 20.3716 376.36C20.8659 363.709 21.2564 351.048 22.0325 338.412C22.4229 332.072 22.334 325.741 22.5515 319.411C22.8381 311.03 23.0062 302.579 26.0312 294.555C26.9704 292.068 28.0776 289.676 29.7384 287.6C32.0418 284.722 33.841 284.163 37.301 285.505C42.155 287.387 46.5146 290.235 50.9237 292.965C52.0605 293.673 53.2419 294.312 54.6654 295.129C54.5171 293.529 53.4396 293.252 52.6932 292.752C49.6879 290.731 46.5788 288.853 43.6428 286.743C41.8287 285.44 41.9919 284.772 44.0926 283.945C52.0704 280.824 60.0087 277.624 67.5763 273.572C72.1929 271.1 76.4092 267.911 81.4312 266.162C87.1007 264.191 92.5527 261.674 98.0294 259.217C104.905 256.136 110.293 251.005 116.18 246.542C119.452 244.06 122.744 241.608 123.698 237.413C124.751 232.791 127.173 228.937 129.703 225.094C130.46 223.949 129.57 223.756 128.878 223.667C126.323 223.34 125.324 220.982 123.515 219.689C121.192 218.025 121.676 215.806 121.973 213.433C122.373 210.238 122.141 207.009 121.469 203.824C120.658 204.052 121.523 205.156 120.406 205.458C119.328 202.997 117.979 200.525 117.593 197.781C117.198 194.957 116.803 191.856 115.171 189.83C113.782 188.102 114.277 185.387 113.115 184.832C108.498 182.638 110.332 177.412 107.668 174.44C107.297 174.024 107.218 173.162 107.307 172.548C107.871 168.521 107.189 164.266 109.487 160.541C109.902 159.872 110.322 159.11 110.159 157.936C108.498 159.882 107.876 162.161 106.615 164.638C105.498 160.61 107.905 157.916 108.647 154.736C107.9 155.984 107.149 157.227 106.249 158.733C106.012 157.326 106.793 156.484 106.803 155.538C106.813 154.627 108.785 153.547 106.561 152.601C106.299 152.487 107.297 149.971 108.291 148.807C109.976 146.83 112.216 145.463 114.03 143.63C107.159 147.439 105.493 146.246 103.921 158.178C104.327 153.978 101.905 153.473 98.5286 152.754C92.4044 151.452 86.9376 148.138 81.3719 145.285C77.2742 143.184 73.1518 141.129 69.1728 138.781C66.1725 137.013 64.225 134.506 62.8162 131.445C62.3912 130.524 62.1539 129.538 62.3467 128.552C63.4984 122.603 65.3124 117.13 69.7709 112.523C76.9875 105.063 85.8254 100.65 95.3504 97.2518C98.9784 95.959 102.424 94.6612 105.024 91.387C107.011 88.8856 109.878 87.0826 112.191 84.7446C108.77 85.968 105.725 87.7958 102.873 89.9902C101.969 90.6837 102.562 91.6991 102.206 92.5214C101.742 93.5962 101.129 94.4581 99.9077 94.4383C98.499 94.4185 98.9191 93.1504 98.7659 92.3629C96.1709 78.959 95.2663 65.4363 95.1971 51.7798C95.1675 46.5194 96.2796 41.8929 98.2469 37.2466C100.763 31.3075 104.865 27.0724 111.173 25.2545C115.458 24.0211 119.828 23.1147 124.296 23.1444C130.544 23.184 135.21 20.6677 139.565 16.0511C148.264 6.823 158.575 0.497541 171.96 0.45296C178.203 0.433147 184.471 -0.225652 190.709 0.0814569C200.688 0.566888 210.109 2.80581 217.321 10.5182C218.562 11.8457 219.669 13.2773 220.509 14.9069C222.803 19.3749 225.116 23.8329 227.395 28.3107C228.369 30.2277 229.13 32.1793 228.986 34.448C228.873 36.2213 229.886 37.7618 230.672 39.3023C232.466 42.8291 234.29 46.3361 234.957 50.3037C235.175 51.6065 235.294 52.8844 234.775 54.1921C234.246 55.5295 236.361 61.6717 237.503 62.4692C237.953 62.7813 238.422 62.7218 238.922 62.6475C243.884 61.9244 249.01 61.751 253.77 60.3393C257.779 59.1505 261.649 58.0459 265.796 58.457C276.923 59.5665 286.704 63.237 292.621 73.5797C296.694 80.6877 296.353 88.2961 294.529 95.9392C293.18 101.581 290.342 106.544 287.095 111.305C288.548 107.941 289.848 104.533 290.758 100.888C285.385 114.698 277.204 126.041 263.527 132.525C263.888 133.352 264.284 133.015 264.63 132.911C264.995 132.802 265.361 132.683 266.182 132.421C264.852 134.363 263.374 135.373 261.535 136.601C261.787 133.372 262.514 130.39 260.117 127.973C261.362 130.316 261.308 132.797 261.145 135.319C260.947 138.38 259.613 140.931 257.685 143.17C256.054 145.062 255.782 150.164 257.413 152.135C258.095 152.962 258.782 153.755 258.738 155.157C256.726 153.671 256.054 151.09 253.286 149.748C254.383 152.591 255.451 154.929 255.97 157.435C256.676 160.868 256.84 164.514 259.632 167.174C259.81 167.342 259.845 167.852 259.736 168.11C258.342 171.3 259.449 174.846 258.283 178.086C258.006 178.859 258.243 179.82 258.243 181.286C256.518 177.927 255.04 175.059 253.567 172.191C254.136 177.526 256.172 182.4 257.873 187.354C260.571 195.205 261.555 202.917 258.802 211.066C257.433 215.117 256.029 219.382 256.503 223.87C256.568 224.459 256.424 225.123 255.792 225.307C255.223 225.47 255.03 224.806 254.694 224.474C251.729 221.537 247.839 220.304 244.215 218.57C248.259 221.081 250.883 224.479 252.529 229.036C253.513 231.766 254.838 234.267 254.561 237.274C254.388 239.176 253.671 240.627 252.085 241.871C249.321 244.045 247.186 246.958 244.225 248.979C246.173 248.647 247.601 247.29 249.292 246.482C250.182 246.056 250.987 245.452 251.882 245.051C253.923 244.139 255.352 244.996 254.932 247.146C254.477 249.474 255.584 249.87 257.373 249.989C260.176 250.172 262.786 251.242 265.509 251.812C267.338 252.193 267.951 253.303 266.958 255.086C266.112 256.602 265.43 258.177 265.292 259.965C265.252 260.48 264.862 261.035 264.496 261.451C261.54 264.805 261.659 265.88 265.959 269.352C264.259 266.806 264.906 264.894 265.668 262.843C266.814 259.742 267.912 256.647 269.523 253.744C270.136 252.639 270.912 251.708 271.821 250.861C272.469 250.257 273.171 249.955 274.061 250.385C274.876 250.777 274.975 251.47 274.975 252.243C274.985 256.121 275.01 260 275.005 263.878C275.005 264.364 275.039 265.033 274.758 265.315C272.672 267.39 273.937 269.382 274.792 271.398C275.632 273.374 275.756 275.677 276.577 277.49C278.148 280.968 278.806 285.104 282.681 287.823C282.266 283.078 281.875 278.625 281.49 274.167C281.426 273.399 280.738 272.443 281.673 271.923C282.439 271.497 282.958 272.448 283.546 272.829C287.901 275.658 290.802 279.734 293.071 284.286C294.727 287.605 296.63 290.736 299.042 293.584C297.045 287.372 293.565 281.934 290.258 276.371C290.758 276.049 291.598 276.282 291.746 276.599C292.898 279.09 295.389 278.803 297.401 279.452C301.573 280.794 305.453 282.81 309.442 284.574C310.317 284.96 311.241 285.242 312.264 285.619C312.062 284.534 310.791 284.618 310.692 283.385C315.393 285.292 319.614 287.793 323.87 290.225C329.802 293.619 335.639 297.19 341.64 300.449C346.271 302.961 349.197 306.983 351.97 311.183C355.875 317.103 359.143 323.319 361.985 329.872C365.904 338.922 368.875 348.443 374.134 356.863C377.842 362.802 382.063 368.434 385.286 374.656C388.484 380.838 392.695 386.331 396.471 392.116C398.745 395.604 399.65 399.581 400.149 403.574C400.678 407.848 402.892 411.142 405.418 414.288C410.42 420.514 415.803 426.448 420.612 432.823C428.615 443.428 433.627 455.307 434.541 468.735C434.981 475.145 434.907 481.673 436.143 487.93C437.769 496.132 437.764 504.434 438.763 512.657C439.435 518.19 438.753 523.401 435.762 528.547C433.375 532.659 430.913 536.482 427.562 539.841C424.839 542.57 421.576 544.492 418.378 546.473C414.409 548.93 410.969 551.848 407.884 555.365C401.582 562.552 393.758 564.712 384.519 562.007C380.481 560.823 376.433 559.749 372.77 557.619C371.001 556.593 370.239 557.272 369.809 558.981C368.331 564.831 367.372 570.765 366.829 576.768C365.944 586.526 366.33 596.394 364.051 606.038C363.492 608.391 362.484 609.005 360.195 609C299.487 608.945 238.773 608.96 178.065 608.96C133.416 608.96 88.7714 609.025 44.1222 608.921C32.4076 608.896 34.4984 609.847 27.4943 600.564C19.8922 590.489 12.5915 580.151 7.11481 568.774C3.08635 560.402 -0.12653 551.566 0.50616 541.916C0.896648 535.992 1.72211 530.117 2.68103 524.268C3.14566 521.414 2.4586 518.685 2.43389 515.891C2.39929 512.241 2.96772 508.669 3.31372 505.063C4.08976 497.029 4.69773 489.014 2.64149 481.005C-1.23868 465.877 -0.867965 450.849 3.91181 435.889C7.45092 424.809 9.00793 413.272 10.906 401.825C11.5239 398.209 12.2702 394.578 13.9261 391.17ZM175.984 268.535C175.994 268.688 176.013 268.842 176.033 268.99C176.537 271.72 177.002 274.607 174.506 276.534C170.789 279.407 166.914 282.488 162.025 278.422C161.798 279.368 162.425 279.67 162.732 280.101C164.17 282.097 166.558 283.37 166.77 286.322C166.864 287.63 168.174 288.229 169.612 287.249C170.463 286.669 171.14 286 171.565 285.084C173.453 281.012 176.75 277.862 179.676 274.751C182.568 271.675 184.52 268.436 186.018 264.701C188.722 257.964 190.946 251.059 192.829 244.05C193.442 241.767 194.905 240.578 197.238 240.414C199.428 240.261 201.291 240.721 202.512 242.797C203.708 244.833 205.018 246.809 206.279 248.81C205.527 245.888 204.134 243.342 202.443 240.915C201.133 239.032 199.586 238.002 197.233 237.685C191.776 236.957 186.24 236.848 180.838 235.644C179.716 235.397 177.887 234.644 177.536 235.966C177.111 237.556 178.999 238.002 180.314 238.428C180.625 238.527 180.961 238.537 181.283 238.606C183.932 239.196 186.566 239.869 189.236 240.34C190.427 240.553 190.931 240.905 190.382 242.079C188.46 246.19 187.955 250.737 185.207 254.72C182.508 258.628 179.305 262.323 177.407 266.801C177.15 267.405 176.641 267.876 175.974 268.094C175.944 268.138 175.885 268.188 175.89 268.232C175.91 268.336 175.949 268.436 175.984 268.535ZM260.418 360.053C259.914 357.532 259.276 355.674 258.352 353.961C256.489 350.513 254.956 346.872 253.187 343.4C251.615 340.319 250.503 336.758 248.867 333.568C243.603 323.304 237.864 313.264 233.005 302.812C230.415 297.234 228.423 291.394 225.012 286.193C221.794 281.285 219.333 275.984 217.094 270.551C216.169 268.307 214.464 266.39 213.115 264.319C212.611 266.712 212.042 269.188 212.764 271.195C213.55 273.379 214.578 275.583 215.65 277.718C221.518 289.349 227.35 300.994 233.079 312.689C234.132 314.839 235.936 316.404 236.821 318.707C240.573 328.48 244.497 338.189 248.456 347.878C249.223 349.755 249.845 351.836 251.813 353.054C249.143 346.035 246.544 339.031 244.443 331.834C248.521 339.294 252.376 346.843 256.172 354.421C257.136 356.358 258.283 358.121 260.418 360.053ZM227.271 140.629C232.318 147.573 235.738 154.726 239.688 161.571C241.408 164.558 242.016 168.273 245.194 170.393C245.822 170.809 245.614 171.746 245.397 172.494C244.962 173.965 243.874 174.822 242.609 175.48C240.444 176.605 238.516 178.136 236.213 179.042C239.525 178.586 242.115 176.486 245.609 175.099C244.433 177.199 243.306 178.631 241.433 180.171C246.232 178.012 248.634 171.726 246.702 167.684C245.871 165.95 244.823 164.43 243.434 163.082C241.675 161.373 239.856 159.719 238.857 157.321C236.297 151.164 233.86 144.898 227.271 140.629ZM166.226 273.364C166.217 275.033 167.991 277.282 169.301 277.262C171.318 277.233 173.29 275.306 173.334 273.315C173.389 270.902 171.377 268.148 169.593 268.193C167.907 268.247 166.241 270.803 166.226 273.364ZM174.323 71.5488C190.012 66.2586 206.13 64.0196 222.689 65.0549C206.056 63.2023 189.992 65.783 174.323 71.5488ZM201.934 260.342C202.67 260.525 203.209 260.54 203.249 260.689C203.56 261.862 204.173 262.333 205.409 261.991C206.442 261.704 206.961 262.392 207.603 263.135C209.071 264.825 208.597 266.647 208.058 268.584C209.823 268.272 210.194 267.039 209.936 265.954C209.205 262.838 208.221 259.841 204.667 258.648C202.25 257.825 201.682 258.232 201.934 260.342ZM253.676 136.433C253.483 138.617 253.3 140.797 253.103 142.981C252.94 144.779 252.391 145.869 250.35 144.641C249.677 144.24 248.847 144.106 248.086 143.853C249.069 145.087 250.167 145.939 251.279 146.771C251.467 146.909 251.734 146.934 251.966 147.013C254.037 147.727 254.902 147.187 254.961 145.052C255.05 142.184 255.016 139.316 253.676 136.433Z" fill="url(#paint0_linear_71_1892)"/>
<defs>
<linearGradient id="paint0_linear_71_1892" x1="0" y1="0" x2="294.774" y2="672.242" gradientUnits="userSpaceOnUse">
<stop stop-color="#131313"/>
<stop offset="1"/>
</linearGradient>
</defs>
</svg>
