<svg width="40" height="37" viewBox="0 0 40 37" fill="none" xmlns="http://www.w3.org/2000/svg">
<g clip-path="url(#clip0_304_3601)">
<path d="M11.2595 26.9703C11.1694 26.8412 11.0875 26.7363 11.0384 26.6557C11.0056 26.6153 10.9893 26.5911 10.9729 26.5669C10.9565 26.5427 10.9565 26.5347 10.9565 26.5347C10.9565 26.5347 10.9319 26.575 10.891 26.6557C10.8501 26.7363 10.8009 26.8493 10.7518 26.9864C10.6453 27.2687 10.5307 27.6559 10.5061 28.0915C10.4898 28.3093 10.5061 28.5271 10.5553 28.7448C10.6044 28.9626 10.6781 29.1804 10.7927 29.3901C10.8255 29.4385 10.8501 29.495 10.8828 29.5434C10.9156 29.5918 10.9565 29.6402 10.9974 29.6805C11.0793 29.7693 11.1694 29.858 11.2758 29.9387C11.4806 30.1 11.7262 30.229 12.0128 30.3258C12.3813 30.0193 12.4632 29.616 12.3976 29.2046C12.3649 28.9949 12.2994 28.7852 12.2093 28.5835C12.1847 28.5271 12.1602 28.4787 12.1356 28.4303C12.1111 28.3738 12.0947 28.3254 12.0701 28.2689C12.021 28.1641 11.9719 28.0592 11.9145 27.9624C11.8081 27.7607 11.6853 27.5752 11.5706 27.4139C11.4478 27.2526 11.3495 27.0993 11.2595 26.9703Z" fill="#E4B153"/>
<path d="M9.63703 26.1233L9.60428 25.9701C9.55515 25.7684 9.48964 25.5667 9.42413 25.3974C9.39138 25.3086 9.35863 25.228 9.32588 25.1473C9.30131 25.0666 9.27674 24.986 9.25218 24.9214C9.15392 24.6472 9.06385 24.4697 9.06385 24.4697C9.06385 24.4697 8.92465 24.623 8.75269 24.873C8.66262 25.0021 8.57255 25.1554 8.48248 25.3248C8.3924 25.4941 8.30233 25.6958 8.24501 25.8894C8.1877 26.0911 8.14676 26.3008 8.13038 26.5186C8.12219 26.6234 8.12219 26.7364 8.13857 26.8493C8.14675 26.9058 8.14676 26.9622 8.16313 27.0106C8.17951 27.0671 8.1877 27.1155 8.21226 27.1639C8.27777 27.3736 8.39241 27.5753 8.5398 27.7527C8.62168 27.8415 8.70356 27.9302 8.81001 28.0108C8.91646 28.0915 9.03928 28.156 9.1703 28.2125C9.59609 27.9624 9.74348 27.5995 9.77623 27.2042C9.79261 27.0026 9.78442 26.7928 9.75167 26.5831C9.73529 26.4782 9.71073 26.3734 9.68616 26.2766C9.66978 26.2201 9.65341 26.1717 9.63703 26.1233Z" fill="#E4B153"/>
<path d="M6.59113 25.6151C6.67301 25.7038 6.77127 25.7845 6.87772 25.8651C7.33627 25.6877 7.58192 25.365 7.69656 24.994C7.72931 24.9052 7.75387 24.8004 7.77844 24.7036C7.803 24.6068 7.81938 24.5019 7.82757 24.4051C7.85213 24.2035 7.85213 24.0018 7.84395 23.8001C7.85213 23.5985 7.84395 23.4049 7.82757 23.2274C7.81119 23.05 7.77844 22.8887 7.77844 22.7515C7.75387 22.4692 7.71293 22.2917 7.71293 22.2917C7.71293 22.2917 7.54917 22.4127 7.31989 22.6305C7.20526 22.7435 7.07424 22.8725 6.95142 23.0258C6.88591 23.1064 6.8204 23.179 6.76309 23.2678C6.70577 23.3484 6.64845 23.4372 6.59113 23.5259C6.48468 23.7114 6.39461 23.905 6.32092 24.1067C6.28816 24.2115 6.2636 24.3164 6.23903 24.4213C6.22266 24.5261 6.22266 24.631 6.22266 24.7358C6.23903 24.9456 6.28816 25.1472 6.38642 25.3408C6.43555 25.4376 6.50106 25.5344 6.59113 25.6151Z" fill="#E4B153"/>
<path d="M4.88928 23.0176C4.9466 23.1144 5.02029 23.2031 5.10218 23.2918C5.5771 23.195 5.89645 22.9208 6.10115 22.582C6.12572 22.5417 6.15028 22.5013 6.17485 22.4529C6.19941 22.4126 6.22398 22.3642 6.24854 22.3158C6.28949 22.2271 6.33043 22.1303 6.36318 22.0335C6.43688 21.8399 6.48601 21.6463 6.51876 21.4527C6.56789 21.2591 6.60064 21.0655 6.62521 20.8961C6.6334 20.8074 6.64977 20.7187 6.65796 20.6461C6.66615 20.5654 6.66615 20.4928 6.68253 20.4202C6.71528 20.1379 6.72347 19.9604 6.72347 19.9604C6.72347 19.9604 6.53514 20.0653 6.27311 20.2428C6.1421 20.3315 5.98652 20.4444 5.83094 20.5735C5.66717 20.7026 5.52797 20.8477 5.38058 21.0091C5.23319 21.1704 5.10218 21.3479 4.98754 21.5334C4.93022 21.6221 4.88109 21.7189 4.84015 21.8157C4.8074 21.9125 4.77464 22.0093 4.75827 22.1142C4.71733 22.3077 4.71733 22.5175 4.76646 22.7191C4.78283 22.8321 4.83196 22.9289 4.88928 23.0176Z" fill="#E4B153"/>
<path d="M5.28084 19.8316C5.41185 19.6864 5.54286 19.517 5.64931 19.3396C5.75576 19.1621 5.84583 18.9766 5.91953 18.7911C6.08329 18.42 6.19793 18.057 6.26344 17.7908C6.33713 17.5166 6.37807 17.3391 6.37807 17.3391C6.37807 17.3391 6.18155 17.4198 5.89496 17.573C5.75576 17.6456 5.5838 17.7424 5.42004 17.8554C5.24808 17.9683 5.07613 18.0893 4.90417 18.2264C4.56845 18.5007 4.24911 18.8475 4.09353 19.2186C4.01164 19.4041 3.9707 19.6057 3.9707 19.7993C3.97889 19.9929 4.0444 20.1946 4.16722 20.3882C4.65033 20.3479 5.01062 20.1301 5.28084 19.8316Z" fill="#E4B153"/>
<path d="M4.65057 17.3229C4.72427 17.2584 4.79796 17.1858 4.87166 17.1132C4.94535 17.0406 5.01086 16.9599 5.07637 16.8793C5.20738 16.7179 5.32202 16.5405 5.42847 16.3711C5.4776 16.2824 5.52673 16.2017 5.56767 16.113C5.6168 16.0242 5.65774 15.9355 5.69868 15.8549C5.78056 15.6855 5.84607 15.5241 5.90339 15.3951C6.00165 15.1208 6.06716 14.9434 6.06716 14.9434C6.06716 14.9434 5.86245 15.0079 5.57586 15.145C5.28926 15.2741 4.90441 15.4677 4.53594 15.7177C4.35579 15.8387 4.17565 15.9839 4.01188 16.1291C3.85631 16.2743 3.7171 16.4437 3.61066 16.6131C3.50421 16.7825 3.42232 16.968 3.39776 17.1616C3.37319 17.3471 3.39776 17.5488 3.47964 17.7424C3.94638 17.7504 4.33123 17.581 4.65057 17.3229Z" fill="#E4B153"/>
<path d="M3.28349 14.9029C3.72566 14.9594 4.1187 14.8142 4.44623 14.5802C4.61 14.4673 4.76557 14.3221 4.90478 14.1689C5.05217 14.0156 5.18318 13.8543 5.29782 13.6929C5.42064 13.5316 5.51071 13.3703 5.61716 13.217C5.71542 13.0718 5.7973 12.9266 5.86281 12.8056C5.92832 12.6847 5.97745 12.5879 6.0102 12.5153C6.04295 12.4507 6.06752 12.4104 6.06752 12.4104C6.06752 12.4104 6.01839 12.4185 5.92832 12.4427C5.83825 12.4669 5.71542 12.4991 5.56803 12.5475C5.27325 12.6443 4.8884 12.7976 4.51174 13.0073C4.41348 13.0557 4.32341 13.1122 4.22515 13.1767C4.13507 13.2332 4.05319 13.2977 3.96312 13.3703C3.79935 13.5074 3.65196 13.6526 3.52095 13.8139C3.28349 14.1447 3.17704 14.5157 3.28349 14.9029Z" fill="#E4B153"/>
<path d="M4.76658 11.5957C5.10231 11.4021 5.42984 11.1278 5.70005 10.8536C5.76556 10.7891 5.83107 10.7165 5.88839 10.6519C5.95389 10.5874 6.01121 10.5229 6.07672 10.4583C6.19135 10.3293 6.28961 10.2163 6.36331 10.1115C6.437 10.0066 6.5107 9.92596 6.55983 9.86949C6.60077 9.81303 6.63352 9.78076 6.63352 9.78076C6.63352 9.78076 6.437 9.79689 6.13404 9.85336C5.83107 9.90176 5.44622 10.0066 5.05318 10.1599C4.85666 10.2405 4.66014 10.3293 4.4718 10.4341C4.29985 10.5471 4.12789 10.6681 3.99688 10.8133C3.93137 10.8858 3.86587 10.9584 3.80855 11.031C3.75123 11.1117 3.7021 11.1924 3.67754 11.273C3.61203 11.4424 3.59565 11.628 3.62022 11.8135C4.03782 11.9022 4.42267 11.7893 4.76658 11.5957Z" fill="#E4B153"/>
<path d="M7.50812 7.5385C7.36073 7.5385 7.18877 7.54656 6.99225 7.57076C6.80392 7.5869 6.6074 7.61916 6.40269 7.66756C6.19799 7.70789 5.99328 7.77242 5.78857 7.84502C5.69031 7.87728 5.59205 7.92568 5.49379 7.96601C5.40372 8.00634 5.32183 8.05474 5.23995 8.11121C4.92061 8.33706 4.66677 8.62745 4.65039 8.9985C5.02705 9.13563 5.42009 9.08723 5.78038 8.95817C6.16523 8.83717 6.51733 8.62745 6.83668 8.40966C7.1724 8.208 7.4508 7.98214 7.65551 7.82082C7.86841 7.65949 7.99942 7.5385 7.99942 7.5385C7.99942 7.5385 7.8029 7.53043 7.50812 7.5385Z" fill="#E4B153"/>
<path d="M9.40889 5.37672C9.1223 5.35252 8.72107 5.33639 8.31984 5.36865C7.91043 5.40092 7.47644 5.48158 7.10797 5.65098C6.74768 5.82037 6.44471 6.06236 6.33008 6.40114C6.49384 6.48987 6.6658 6.53827 6.84594 6.56247C7.03427 6.5786 7.22261 6.57054 7.41913 6.53827C7.61565 6.49794 7.81217 6.44954 8.0005 6.37695C8.18883 6.31241 8.36897 6.23175 8.5573 6.15109C8.92578 5.98976 9.24512 5.80424 9.48259 5.66711C9.72824 5.52998 9.87563 5.43319 9.87563 5.43319C9.87563 5.43319 9.69548 5.40092 9.40889 5.37672Z" fill="#E4B153"/>
<path d="M9.12127 3.37617C8.77736 3.53749 8.47439 3.77142 8.35156 4.10213C8.94931 4.46512 9.82546 4.19086 10.5133 3.85208C10.8736 3.68269 11.2011 3.49716 11.4304 3.35197C11.6597 3.20677 11.7989 3.10191 11.7989 3.10191C11.7989 3.10191 11.0947 3.00511 10.2922 3.09384C9.89916 3.12611 9.47336 3.21484 9.12127 3.37617Z" fill="#E4B153"/>
<path d="M28.0037 30.342C28.2903 30.2452 28.5359 30.1161 28.7406 29.9548C28.8389 29.8741 28.9371 29.7854 29.019 29.6966C29.06 29.6482 29.1009 29.6079 29.1337 29.5595C29.1664 29.5111 29.1992 29.4627 29.2237 29.4063C29.3384 29.1965 29.4121 28.9787 29.453 28.761C29.5021 28.5432 29.5267 28.3254 29.5021 28.1076C29.4694 27.672 29.3629 27.2848 29.2483 27.0025C29.1992 26.8573 29.1418 26.7444 29.1091 26.6718C29.0682 26.5911 29.0436 26.5508 29.0436 26.5508C29.0436 26.5508 29.0354 26.5588 29.019 26.583C29.0026 26.5992 28.9781 26.6314 28.9535 26.6718C28.8962 26.7444 28.8225 26.8492 28.7324 26.9864C28.6424 27.1154 28.5359 27.2767 28.4377 27.4542C28.323 27.6236 28.2002 27.8091 28.0937 28.0027C28.0364 28.0995 27.9873 28.2044 27.9382 28.3092C27.9136 28.3576 27.889 28.4141 27.8727 28.4625C27.8481 28.5109 27.8235 28.5674 27.799 28.6158C27.7089 28.8255 27.6434 29.0271 27.6106 29.2369C27.5615 29.6402 27.6434 30.0354 28.0037 30.342Z" fill="#E4B153"/>
<path d="M31.2462 24.873C31.0742 24.623 30.935 24.4697 30.935 24.4697C30.935 24.4697 30.8532 24.6391 30.7467 24.9214C30.7221 24.994 30.6976 25.0666 30.673 25.1473C30.6403 25.228 30.6075 25.3086 30.5748 25.3974C30.5092 25.5748 30.4437 25.7684 30.3946 25.9701L30.3619 26.1233C30.3455 26.1717 30.3291 26.2201 30.3209 26.2766C30.2964 26.3734 30.2718 26.4782 30.2554 26.5831C30.2227 26.7928 30.2145 27.0026 30.2308 27.2042C30.2636 27.5995 30.411 27.9624 30.8368 28.2125C30.9678 28.156 31.0906 28.0834 31.1971 28.0108C31.3035 27.9382 31.3854 27.8495 31.4591 27.7608C31.6147 27.5753 31.7211 27.3817 31.7948 27.1719C31.8112 27.1235 31.8276 27.0671 31.8358 27.0187C31.8439 26.9703 31.8521 26.9138 31.8603 26.8574C31.8685 26.7444 31.8685 26.6396 31.8685 26.5266C31.8521 26.3088 31.8112 26.0991 31.7539 25.8975C31.6966 25.7039 31.6065 25.5022 31.5164 25.3328C31.4263 25.1554 31.3281 25.0021 31.2462 24.873Z" fill="#E4B153"/>
<path d="M33.4163 23.5259C33.359 23.4372 33.3017 23.3484 33.2525 23.2678C33.1952 23.1871 33.1297 23.1064 33.0642 23.0258C32.9332 22.8725 32.8022 22.7435 32.6875 22.6305C32.4583 22.4127 32.2945 22.2917 32.2945 22.2917C32.2945 22.2917 32.2535 22.4692 32.229 22.7515C32.2208 22.8967 32.1962 23.05 32.1799 23.2274C32.1635 23.4049 32.1553 23.5985 32.1553 23.8001C32.1471 23.9937 32.1471 24.2035 32.1717 24.4051C32.1799 24.51 32.1962 24.6068 32.2208 24.7036C32.2454 24.8004 32.2699 24.8972 32.3027 24.994C32.4255 25.3569 32.663 25.6877 33.1297 25.8651C33.2361 25.7925 33.3344 25.7038 33.4163 25.6231C33.4982 25.5344 33.5719 25.4457 33.6128 25.3408C33.7111 25.1472 33.7602 24.9375 33.7766 24.7358C33.7848 24.631 33.7766 24.5261 33.7684 24.4213C33.752 24.3164 33.7274 24.2115 33.6947 24.1067C33.621 23.905 33.5227 23.7114 33.4163 23.5259Z" fill="#E4B153"/>
<path d="M33.8997 22.5901C34.1044 22.9208 34.4237 23.195 34.8986 23.2918C34.9805 23.2031 35.0542 23.1063 35.1115 23.0176C35.1688 22.9208 35.2098 22.824 35.2344 22.7272C35.2753 22.5255 35.2753 22.3239 35.2425 22.1222C35.218 22.0174 35.1934 21.9206 35.1525 21.8238C35.1197 21.727 35.0624 21.6302 35.0051 21.5414C34.8986 21.3559 34.7594 21.1785 34.6202 21.0171C34.4728 20.8558 34.3255 20.7106 34.1699 20.5815C34.0143 20.4525 33.8587 20.3396 33.7277 20.2508C33.4657 20.0653 33.2773 19.9685 33.2773 19.9685C33.2773 19.9685 33.2773 20.154 33.3183 20.4283C33.3265 20.5009 33.3347 20.5735 33.3429 20.6541C33.351 20.7348 33.3592 20.8155 33.3674 20.9042C33.392 21.0736 33.4329 21.2672 33.4821 21.4608C33.5148 21.6544 33.5639 21.848 33.6376 22.0416C33.6704 22.1383 33.7113 22.2351 33.7605 22.3239C33.785 22.3723 33.8096 22.4126 33.8342 22.461C33.8505 22.5094 33.8751 22.5497 33.8997 22.5901Z" fill="#E4B153"/>
<path d="M36.0285 19.7993C36.0285 19.6057 35.9875 19.4041 35.9056 19.2186C35.7582 18.8475 35.4307 18.5007 35.095 18.2264C34.9312 18.0893 34.7511 17.9602 34.5873 17.8554C34.4236 17.7424 34.2516 17.6537 34.1042 17.573C33.8176 17.4198 33.6211 17.3391 33.6211 17.3391C33.6211 17.3391 33.662 17.5246 33.7439 17.7908C33.8094 18.057 33.9323 18.42 34.0878 18.7911C34.1615 18.9766 34.2516 19.1621 34.358 19.3396C34.4645 19.517 34.5955 19.6864 34.7265 19.8397C34.9967 20.1301 35.357 20.3559 35.8401 20.3801C35.9466 20.1865 36.0203 19.9929 36.0285 19.7993Z" fill="#E4B153"/>
<path d="M36.5929 17.1455C36.5683 16.9519 36.4864 16.7744 36.38 16.597C36.2735 16.4276 36.1343 16.2582 35.9787 16.113C35.815 15.9597 35.643 15.8226 35.4547 15.7016C35.0944 15.4516 34.7095 15.258 34.4229 15.1289C34.1364 14.9998 33.9316 14.9272 33.9316 14.9272C33.9316 14.9272 33.989 15.1047 34.0954 15.379C34.1445 15.5161 34.21 15.6693 34.2919 15.8387C34.3329 15.9275 34.3738 16.0081 34.4229 16.0969C34.4721 16.1856 34.513 16.2743 34.5621 16.355C34.6686 16.5244 34.7832 16.7018 34.9142 16.8632C34.9797 16.9438 35.0534 17.0245 35.119 17.0971C35.1926 17.1697 35.2663 17.2423 35.34 17.3068C35.6512 17.5649 36.036 17.7424 36.5028 17.7182C36.5929 17.5327 36.6174 17.331 36.5929 17.1455Z" fill="#E4B153"/>
<path d="M36.4708 13.822C36.348 13.6607 36.2006 13.5155 36.0286 13.3783C35.9467 13.3138 35.8567 13.2493 35.7666 13.1848C35.6765 13.1283 35.5782 13.0718 35.48 13.0154C35.1033 12.8056 34.7103 12.6524 34.4155 12.5556C34.2681 12.5072 34.1453 12.4669 34.0552 12.4507C33.9651 12.4265 33.916 12.4185 33.916 12.4185C33.916 12.4185 33.9324 12.4588 33.9733 12.5233C34.0061 12.5959 34.0552 12.6927 34.1207 12.8137C34.1862 12.9347 34.2681 13.0718 34.3664 13.2251C34.4646 13.3703 34.5629 13.5397 34.6775 13.701C34.8004 13.8623 34.9314 14.0237 35.0706 14.1769C35.2098 14.3302 35.3654 14.4673 35.5291 14.5883C35.8567 14.8222 36.2497 14.9674 36.6919 14.9109C36.8229 14.5157 36.7164 14.1446 36.4708 13.822Z" fill="#E4B153"/>
<path d="M36.2003 11.031C36.1512 10.9584 36.0857 10.8778 36.012 10.8133C35.8728 10.6761 35.709 10.5471 35.5289 10.4341C35.3488 10.3293 35.1441 10.2325 34.9475 10.1599C34.5463 10.0066 34.1696 9.90176 33.8667 9.85336C33.5637 9.79689 33.3672 9.78076 33.3672 9.78076C33.3672 9.78076 33.3918 9.81303 33.4409 9.86949C33.49 9.92596 33.5555 10.0066 33.6374 10.1115C33.7193 10.2163 33.8175 10.3293 33.9322 10.4583C33.9895 10.5229 34.0468 10.5874 34.1123 10.6519C34.1778 10.7165 34.2351 10.7891 34.3007 10.8536C34.5627 11.1278 34.8984 11.394 35.2341 11.5957C35.578 11.7893 35.9711 11.8941 36.3969 11.8135C36.4296 11.6199 36.4051 11.4424 36.3395 11.273C36.2986 11.1924 36.2495 11.1117 36.2003 11.031Z" fill="#E4B153"/>
<path d="M34.7598 8.11122C34.678 8.05475 34.5961 8.00635 34.4978 7.95796C34.4077 7.91762 34.3013 7.86923 34.203 7.83696C34.0065 7.76436 33.7936 7.7079 33.5889 7.6595C33.3842 7.6111 33.1877 7.57884 32.9994 7.56271C32.811 7.54657 32.6309 7.53851 32.4835 7.53044C32.1887 7.52237 31.9922 7.53044 31.9922 7.53044C31.9922 7.53044 32.1232 7.64337 32.3361 7.81276C32.549 7.97409 32.8192 8.19995 33.1467 8.40967C33.4579 8.62746 33.8182 8.82912 34.203 8.95818C34.5633 9.08724 34.9564 9.13564 35.3412 8.99851C35.333 8.62746 35.0792 8.33707 34.7598 8.11122Z" fill="#E4B153"/>
<path d="M32.9005 5.65096C32.532 5.48964 32.0898 5.40897 31.6886 5.37671C31.2874 5.33638 30.8861 5.35251 30.5995 5.38477C30.313 5.40897 30.1328 5.44124 30.1328 5.44124C30.1328 5.44124 30.2802 5.53803 30.5259 5.67516C30.7715 5.81229 31.0827 5.99782 31.4511 6.15914C31.6395 6.23981 31.8196 6.32047 32.0079 6.385C32.1963 6.44953 32.3928 6.50599 32.5893 6.53826C32.7776 6.57052 32.9742 6.58666 33.1625 6.56246C33.3426 6.54633 33.5228 6.49793 33.6866 6.40113C33.5555 6.06235 33.2526 5.82036 32.9005 5.65096Z" fill="#E4B153"/>
<path d="M29.4789 3.85217C30.1749 4.19096 31.0347 4.45715 31.6406 4.10223C31.5178 3.77151 31.2149 3.53759 30.8709 3.37626C30.527 3.21494 30.1012 3.13427 29.7 3.08587C28.8976 3.00521 28.1934 3.09394 28.1934 3.09394C28.1934 3.09394 28.3326 3.1988 28.57 3.344C28.7993 3.49726 29.1268 3.68278 29.4789 3.85217Z" fill="#E4B153"/>
<path d="M37.0522 20.7349C37.4862 20.8075 37.9038 20.6946 38.2805 20.4526C38.4852 20.3235 38.6489 20.1622 38.8209 19.9847C38.9846 19.8073 39.132 19.6056 39.2712 19.404C39.5333 18.9926 39.7134 18.5651 39.8362 18.2424C39.9427 17.9198 40 17.702 40 17.702C40 17.702 39.7953 17.7907 39.5005 17.952C39.3531 18.0327 39.1812 18.1295 38.9928 18.2344C38.8045 18.3473 38.608 18.4683 38.4115 18.6054C38.0184 18.8797 37.6499 19.1942 37.3715 19.5492C37.3552 19.5653 37.347 19.5814 37.3306 19.5976C37.4698 18.9684 37.5844 18.3312 37.6663 17.702C38.0348 17.6858 38.3541 17.5407 38.6325 17.3067C38.7144 17.2341 38.7963 17.1615 38.87 17.0728C38.9437 16.9921 39.0092 16.9034 39.0747 16.8066C39.2057 16.6211 39.3122 16.4194 39.4104 16.2178C39.4596 16.1129 39.5005 16.0081 39.5415 15.9113C39.5824 15.8145 39.6151 15.7177 39.6397 15.6209C39.7052 15.4353 39.7462 15.2579 39.7871 15.1046C39.869 14.7981 39.8854 14.5884 39.8854 14.5884C39.8854 14.5884 39.7052 14.6852 39.4268 14.8546C39.1566 15.024 38.7963 15.2579 38.4606 15.5402C38.2886 15.6854 38.1331 15.8387 37.9857 16C37.9202 16.0645 37.8628 16.1371 37.8055 16.2097C37.8383 15.6693 37.8465 15.1288 37.8301 14.5964C38.0921 14.5238 38.3132 14.3867 38.5097 14.1931C38.6489 14.0479 38.7799 13.8785 38.8864 13.693C38.9846 13.5075 39.0747 13.3058 39.1402 13.1042C39.2057 12.9025 39.2712 12.7009 39.304 12.5073C39.3367 12.3137 39.3613 12.1281 39.3777 11.9749C39.3941 11.8216 39.4023 11.6845 39.4023 11.5958C39.4023 11.507 39.4023 11.4506 39.4023 11.4506C39.4023 11.4506 39.3613 11.4748 39.2876 11.5312C39.2221 11.5796 39.1157 11.6603 38.9928 11.749C38.7554 11.9346 38.436 12.2007 38.1494 12.5073C38.0757 12.5799 38.0102 12.6605 37.9365 12.7412C37.871 12.8219 37.7973 12.9025 37.7318 12.9912C37.7155 13.0154 37.6991 13.0396 37.6827 13.0638C37.6172 12.5476 37.5189 12.0314 37.3879 11.5312C37.6336 11.4425 37.8301 11.2812 37.9857 11.0715C38.2313 10.7649 38.3378 10.3536 38.4033 9.93411C38.4197 9.82925 38.4278 9.72439 38.436 9.62759C38.436 9.52273 38.436 9.42593 38.436 9.32914C38.4278 9.13554 38.4115 8.95002 38.4033 8.78869C38.3869 8.62737 38.3623 8.4983 38.3378 8.40957C38.3296 8.31278 38.3214 8.25631 38.3214 8.25631C38.3214 8.25631 38.1904 8.38538 38.0102 8.60317C37.8301 8.81289 37.5763 9.11941 37.3634 9.44206C37.2569 9.60339 37.1586 9.78085 37.0768 9.95831C37.044 10.0228 37.0113 10.0874 36.9867 10.1519C36.7738 9.56306 36.5363 9.02262 36.2825 8.5225C36.5445 8.40957 36.7329 8.19985 36.8475 7.94173C36.9785 7.61908 37.0031 7.19963 36.9539 6.78824C36.8802 6.40106 36.7656 5.99774 36.651 5.70736C36.5281 5.42504 36.4217 5.23951 36.4217 5.23951C36.4217 5.23951 36.3316 5.3847 36.2088 5.61056C36.1515 5.72349 36.086 5.86062 36.0205 6.00581C35.955 6.151 35.8813 6.3204 35.8158 6.49786C35.7584 6.66725 35.7011 6.85277 35.6684 7.03023C35.652 7.11896 35.6356 7.20769 35.6356 7.29642C35.6356 7.32869 35.6274 7.36095 35.6274 7.39322C35.2508 6.81244 34.8414 6.272 34.3828 5.74769C34.5138 5.68316 34.6121 5.60249 34.694 5.5057C34.7922 5.3847 34.8495 5.23144 34.8741 5.07012C34.8987 4.90879 34.8905 4.72327 34.8659 4.54581C34.8332 4.36028 34.784 4.16669 34.7103 3.98923C34.5629 3.62625 34.3828 3.27133 34.219 3.02127C34.0553 2.77122 33.9243 2.61796 33.9243 2.61796C33.9243 2.61796 33.8588 2.76315 33.7932 2.98901C33.7196 3.21486 33.6459 3.52138 33.5967 3.86824C33.5476 4.20702 33.5476 4.57001 33.6459 4.90072C33.654 4.92492 33.6622 4.94912 33.6704 4.97332C33.1382 4.43288 32.5568 3.88437 31.9181 3.31973C32.5486 2.96481 32.3767 2.23077 32.0246 1.56933C31.8444 1.23861 31.6151 0.94016 31.435 0.722369C31.2467 0.488446 31.1157 0.351318 31.1157 0.351318C31.1157 0.351318 30.9355 0.915961 30.9437 1.56127C30.9437 1.88392 31.001 2.21464 31.132 2.53729C31.1648 2.60182 31.1975 2.66635 31.2303 2.72282C30.6489 2.20657 29.6418 1.69033 29.6418 1.69033C33.6622 5.00559 36.7329 9.02262 37.1914 13.6204C37.3552 15.2901 37.1505 16.9599 36.8884 18.6135C36.5937 20.4849 36.1105 22.3482 35.1279 24.0824C33.6049 26.7605 31.5824 28.9061 28.8147 30.5839C28.8147 30.5839 24.6796 32.6327 20.2416 32.6731C20.1351 32.6731 20.0287 32.6731 19.9222 32.6731C19.8731 32.6731 19.824 32.6731 19.7666 32.6731C15.3777 32.6085 11.1853 30.5839 11.1853 30.5839C8.42579 28.9061 6.40328 26.7685 4.88025 24.0824C3.89765 22.3482 3.42272 20.4849 3.11975 18.6135C2.85773 16.9599 2.65302 15.2901 2.81679 13.6204C3.27533 9.01455 6.34596 5.00559 10.3664 1.69033C10.3664 1.69033 9.35926 2.21464 8.77789 2.72282C8.81883 2.66635 8.85159 2.60182 8.87615 2.53729C9.00717 2.22271 9.06448 1.88392 9.07267 1.56127C9.06448 0.915961 8.89253 0.351318 8.89253 0.351318C8.89253 0.351318 8.76151 0.488446 8.58137 0.714303C8.40123 0.94016 8.17196 1.23861 7.99181 1.56127C7.63153 2.23077 7.46776 2.96481 8.09826 3.31166C7.45957 3.88437 6.8782 4.42481 6.34596 4.96525C6.35415 4.94106 6.36233 4.91686 6.36233 4.89266C6.46059 4.56194 6.46059 4.19895 6.41146 3.86017C6.36233 3.52138 6.28864 3.2068 6.21494 2.98901C6.14125 2.75508 6.08393 2.60989 6.08393 2.60989C6.08393 2.60989 5.95292 2.77122 5.78915 3.02127C5.62538 3.27133 5.43705 3.62625 5.29785 3.98923C5.21597 4.16669 5.16684 4.36028 5.14227 4.54581C5.10952 4.73133 5.10952 4.90879 5.13408 5.07818C5.15865 5.23951 5.21597 5.39277 5.31423 5.51377C5.38792 5.61056 5.48618 5.69122 5.6172 5.75575C5.15865 6.28007 4.74923 6.82051 4.37257 7.39322C4.37257 7.36095 4.36438 7.32869 4.36438 7.29642C4.35619 7.20769 4.348 7.11896 4.33163 7.03023C4.29069 6.84471 4.24156 6.66725 4.17605 6.49786C4.11873 6.32846 4.04504 6.151 3.97953 6.00581C3.91402 5.86062 3.84852 5.72349 3.7912 5.61056C3.66837 5.3847 3.5783 5.23951 3.5783 5.23951C3.5783 5.23951 3.48004 5.42504 3.34903 5.70736C3.23439 5.99774 3.11975 6.40106 3.05425 6.79631C3.00512 7.20769 3.02968 7.62714 3.1607 7.94979C3.27533 8.20792 3.45548 8.40958 3.72569 8.53057C3.46366 9.03068 3.23439 9.57113 3.02149 10.16C2.99693 10.0954 2.96418 10.0309 2.93142 9.95831C2.84135 9.78085 2.75128 9.61146 2.63664 9.44206C2.42375 9.11135 2.16991 8.81289 1.99795 8.60317C1.80962 8.38538 1.67861 8.25631 1.67861 8.25631C1.67861 8.25631 1.67042 8.31278 1.64585 8.40151C1.62948 8.49024 1.59672 8.6193 1.58035 8.78063C1.56397 8.94195 1.54759 9.11941 1.54759 9.32107C1.54759 9.41787 1.53941 9.51466 1.54759 9.61952C1.55578 9.72439 1.56397 9.82925 1.58035 9.92604C1.63767 10.3455 1.7523 10.7569 1.99795 11.0634C2.15353 11.2731 2.35005 11.4344 2.58751 11.5232C2.4565 12.0314 2.36643 12.5395 2.29273 13.0558C2.27636 13.0316 2.25998 13.0074 2.2436 12.9832C2.1781 12.8945 2.11259 12.8138 2.03889 12.7331C1.97339 12.6525 1.89969 12.5799 1.826 12.4992C1.53941 12.2007 1.22825 11.9346 0.9826 11.749C0.859775 11.6522 0.753326 11.5796 0.68782 11.5232C0.614125 11.4748 0.573183 11.4425 0.573183 11.4425C0.573183 11.4425 0.573183 11.499 0.573183 11.5877C0.581372 11.6764 0.58956 11.8055 0.605937 11.9668C0.622313 12.1281 0.646878 12.3056 0.679632 12.4992C0.712385 12.6928 0.777891 12.8945 0.843398 13.0961C0.908905 13.2978 0.998976 13.4994 1.09724 13.685C1.20368 13.8705 1.32651 14.0399 1.4739 14.1851C1.66223 14.3787 1.8915 14.5158 2.14534 14.5884C2.12897 15.1288 2.13715 15.6612 2.16991 16.2016C2.11259 16.129 2.05527 16.0564 1.98976 15.9919C1.84237 15.8306 1.67861 15.6773 1.51484 15.5321C1.17912 15.2498 0.818833 15.0078 0.548618 14.8465C0.278403 14.6771 0.0900716 14.5803 0.0900716 14.5803C0.0900716 14.5803 0.114637 14.79 0.188332 15.0966C0.229273 15.2498 0.278403 15.4273 0.335722 15.6128C0.368475 15.7096 0.401228 15.8064 0.433982 15.9032C0.474923 16 0.524053 16.1048 0.564995 16.2097C0.663255 16.4114 0.769703 16.613 0.900717 16.7986C0.966223 16.8953 1.03173 16.9841 1.10542 17.0647C1.17912 17.1454 1.261 17.2261 1.34289 17.2987C1.62129 17.5326 1.94063 17.6778 2.30911 17.6939C2.39099 18.3312 2.50563 18.9603 2.64483 19.5895C2.63664 19.5734 2.62027 19.5572 2.61208 19.5411C2.33367 19.1862 1.9652 18.8716 1.57216 18.5973C1.37564 18.4602 1.17912 18.3392 0.990788 18.2263C0.818833 18.1214 0.655067 18.0246 0.507677 17.944C0.204708 17.7826 0 17.6939 0 17.6939C0 17.6939 0.04913 17.9117 0.163767 18.2344C0.286592 18.557 0.466735 18.9845 0.728762 19.3959C0.867963 19.5976 1.01535 19.7992 1.17912 19.9767C1.34289 20.1622 1.51484 20.3235 1.71955 20.4445C2.09621 20.6865 2.50563 20.8075 2.9478 20.7268C2.97236 20.8075 2.98874 20.8882 3.01331 20.9608C3.1607 21.5254 3.34903 22.082 3.57011 22.6224C3.52917 22.5821 3.48823 22.5418 3.44729 22.5014C3.35722 22.4208 3.25896 22.3401 3.1607 22.2675C3.05425 22.1949 2.96418 22.1223 2.85773 22.0497C2.64483 21.9045 2.41556 21.7835 2.18628 21.6625C1.95701 21.5415 1.71955 21.4367 1.51484 21.348C1.31013 21.2512 1.11361 21.1705 0.941658 21.106C0.605937 20.9769 0.376663 20.9043 0.376663 20.9043C0.376663 20.9043 0.466735 21.1302 0.646878 21.4528C0.728762 21.6141 0.859775 21.7997 0.998976 22.0013C1.13818 22.1949 1.29376 22.4046 1.46571 22.5982C1.65404 22.7918 1.85056 22.9854 2.06346 23.1467C2.16991 23.2274 2.27636 23.3081 2.3828 23.3807C2.44012 23.4129 2.48925 23.4452 2.54657 23.4775C2.60389 23.5097 2.66121 23.5339 2.71853 23.5581C3.16888 23.7598 3.61924 23.8243 4.04504 23.6791C4.35619 24.2922 4.70829 24.8891 5.1259 25.4698C5.0522 25.4376 4.98669 25.3892 4.913 25.3408C4.79836 25.2763 4.68373 25.2117 4.5609 25.1472C4.44626 25.0827 4.32344 25.0262 4.19243 24.9697C3.94678 24.8568 3.68475 24.76 3.41453 24.6713C3.29171 24.6309 3.1607 24.5906 3.02968 24.5503C2.90686 24.51 2.78403 24.4777 2.6694 24.4454C2.43193 24.3809 2.21904 24.3164 2.03071 24.276C1.65404 24.1873 1.40839 24.1389 1.40839 24.1389C1.40839 24.1389 1.56397 24.3567 1.81781 24.6713C1.94063 24.8326 2.11259 25.002 2.30911 25.1875C2.49744 25.3731 2.71034 25.5586 2.93961 25.736C3.17707 25.9054 3.43091 26.0748 3.68475 26.212C3.81576 26.2765 3.93859 26.341 4.0696 26.3975C4.19243 26.4539 4.32344 26.5023 4.45445 26.5346C4.97032 26.6717 5.45343 26.6556 5.85466 26.4297C6.25589 26.9299 6.68168 27.43 7.14023 27.9139C7.12385 27.9059 7.09928 27.8978 7.08291 27.8897C7.0174 27.8655 6.95189 27.8413 6.8782 27.8171C6.8045 27.7929 6.74719 27.7687 6.68168 27.7445C6.55067 27.7042 6.41146 27.6639 6.26407 27.6236C5.97748 27.551 5.69089 27.4945 5.39611 27.4461C5.10133 27.4058 4.8393 27.3574 4.57728 27.3251C4.32344 27.2928 4.08598 27.2686 3.88127 27.2525C3.48004 27.2202 3.20983 27.2122 3.20983 27.2122C3.20983 27.2122 3.42272 27.4138 3.77482 27.6962C3.86489 27.7688 3.95496 27.8413 4.06141 27.922C4.16786 27.9946 4.2825 28.0753 4.40532 28.1479C4.65097 28.3011 4.913 28.4544 5.1914 28.5996C5.25691 28.6318 5.3306 28.6722 5.39611 28.7044C5.46981 28.7367 5.5435 28.769 5.6172 28.8012C5.76459 28.8577 5.91198 28.9142 6.05937 28.9626C6.35415 29.0594 6.64893 29.132 6.92733 29.1642C7.40225 29.2126 7.82805 29.1481 8.15558 28.9545C8.52405 29.3094 8.9089 29.6482 9.31013 29.9628C9.18731 29.9467 9.06448 29.9305 8.94166 29.9144C8.63869 29.8821 8.31935 29.8821 8.02457 29.866C7.43501 29.8499 6.86182 29.8741 6.44422 29.9063C6.23132 29.9225 6.05937 29.9386 5.94473 29.9467C5.8219 29.9628 5.7564 29.9628 5.7564 29.9628C5.7564 29.9628 5.77277 29.9709 5.80553 29.9951C5.83828 30.0112 5.87922 30.0435 5.94473 30.0757C6.06755 30.1483 6.23951 30.2451 6.45241 30.358C6.6653 30.471 6.91095 30.592 7.18936 30.721C7.47595 30.842 7.77892 30.9469 8.09826 31.0517C8.25384 31.1001 8.41761 31.1485 8.57318 31.1889C8.65507 31.2131 8.72876 31.2292 8.81065 31.2453C8.89253 31.2615 8.97441 31.2776 9.04811 31.2857C9.37564 31.3341 9.6868 31.3663 9.97339 31.3583C10.3664 31.3502 10.7103 31.2695 10.9806 31.1082C11.1279 31.1969 11.2835 31.2776 11.4391 31.3583C11.4719 31.3744 11.5046 31.3825 11.521 31.3825C13.609 32.5117 16.1883 33.2055 18.3091 33.4555C16.6059 33.7701 14.608 34.1089 12.4872 34.4315L10.1945 36.3513C10.1945 36.3513 15.3531 34.6574 20.1679 33.5846C24.9744 34.6655 30.1331 36.3513 30.1331 36.3513L27.8403 34.4315C25.6622 34.1089 23.6151 33.754 21.8874 33.4313C24.5159 33.1329 26.7267 32.3746 28.5036 31.3825C28.52 31.3825 28.5445 31.3744 28.5691 31.3583C28.7247 31.2776 28.8721 31.1969 29.0276 31.1082C29.2979 31.2695 29.6418 31.3502 30.0348 31.3583C30.3214 31.3663 30.6407 31.3421 30.9601 31.2857C31.042 31.2776 31.1238 31.2615 31.2057 31.2453C31.2876 31.2292 31.3613 31.205 31.4432 31.1889C31.5988 31.1485 31.7625 31.1001 31.9181 31.0517C32.2375 30.9549 32.5404 30.842 32.827 30.721C33.0972 30.592 33.3511 30.471 33.564 30.358C33.7769 30.2451 33.9488 30.1483 34.0716 30.0757C34.129 30.0435 34.1781 30.0112 34.2108 29.9951C34.2354 29.9789 34.26 29.9628 34.26 29.9628C34.26 29.9628 34.1945 29.9547 34.0716 29.9467C33.9488 29.9386 33.7769 29.9225 33.5722 29.9063C33.1546 29.8741 32.5814 29.8499 31.9918 29.866C31.7052 29.8821 31.3777 29.8821 31.0747 29.9144C30.9519 29.9305 30.8291 29.9467 30.7062 29.9628C31.1075 29.6401 31.4923 29.3014 31.869 28.9545C32.1965 29.1481 32.6223 29.2126 33.0972 29.1642C33.3756 29.132 33.6622 29.0594 33.957 28.9626C34.1044 28.9142 34.2518 28.8577 34.3992 28.8012C34.4729 28.769 34.5466 28.7367 34.6203 28.7044C34.694 28.6722 34.7595 28.6318 34.8332 28.5996C35.1034 28.4544 35.3736 28.3011 35.6192 28.1479C35.7421 28.0672 35.8567 27.9946 35.9632 27.922C36.0614 27.8413 36.1597 27.7688 36.2497 27.6962C36.6018 27.4219 36.8147 27.2122 36.8147 27.2122C36.8147 27.2122 36.5527 27.2202 36.1433 27.2525C35.9386 27.2686 35.7011 27.2928 35.4473 27.3251C35.1853 27.3574 34.9232 27.4058 34.6285 27.4461C34.3419 27.4945 34.0471 27.551 33.7605 27.6236C33.6213 27.6558 33.4821 27.7042 33.3429 27.7445C33.2774 27.7687 33.2119 27.7929 33.1382 27.8171C33.0727 27.8413 33.0072 27.8655 32.9417 27.8897C32.9171 27.8978 32.9007 27.9059 32.8843 27.9139C33.3347 27.4219 33.7605 26.9218 34.1699 26.4297C34.5711 26.6556 35.0542 26.6717 35.5701 26.5346C35.7011 26.5023 35.8321 26.4539 35.9632 26.3975C36.0942 26.341 36.2252 26.2845 36.348 26.212C36.6018 26.0748 36.8557 25.9135 37.0931 25.736C37.3142 25.5586 37.5271 25.3731 37.7236 25.1875C37.912 25.002 38.0839 24.8326 38.2149 24.6713C38.477 24.3567 38.6325 24.1389 38.6325 24.1389C38.6325 24.1389 38.3787 24.1873 38.0102 24.276C37.8219 24.3244 37.6008 24.3809 37.3715 24.4454C37.2569 24.4777 37.1341 24.518 37.0031 24.5503C36.8721 24.5906 36.741 24.6309 36.61 24.6713C36.348 24.76 36.086 24.8568 35.8321 24.9697C35.7093 25.0262 35.5865 25.0827 35.4719 25.1472C35.349 25.2037 35.2344 25.2682 35.1198 25.3408C35.0461 25.3811 34.9806 25.4295 34.915 25.4779C35.3327 24.8971 35.6847 24.3002 35.9959 23.6872C36.4299 23.8324 36.8802 23.7679 37.3224 23.5662C37.3797 23.542 37.4371 23.5097 37.4944 23.4775C37.5517 23.4452 37.6008 23.4129 37.6581 23.3807C37.7646 23.3081 37.871 23.2355 37.9775 23.1467C38.1904 22.9854 38.3869 22.7918 38.5752 22.5982C38.7472 22.4046 38.9028 22.1949 39.042 22.0013C39.173 21.8077 39.304 21.6222 39.3941 21.4528C39.566 21.1302 39.6643 20.9043 39.6643 20.9043C39.6643 20.9043 39.435 20.9769 39.0993 21.106C38.9355 21.1705 38.7308 21.2512 38.5261 21.348C38.3214 21.4448 38.0839 21.5496 37.8547 21.6625C37.6254 21.7755 37.3961 21.9045 37.1832 22.0497C37.0768 22.1223 36.9785 22.1949 36.8802 22.2675C36.782 22.3401 36.6837 22.4208 36.5937 22.5014C36.5527 22.5418 36.5036 22.5821 36.4708 22.6224C36.6919 22.0739 36.8721 21.5173 37.0276 20.9608C37.0113 20.8962 37.0358 20.8156 37.0522 20.7349Z" fill="#E4B153"/>
</g>
<defs>
<clipPath id="clip0_304_3601">
<rect width="40" height="36" fill="white" transform="translate(0 0.351318)"/>
</clipPath>
</defs>
</svg>
