<svg width="40" height="40" viewBox="0 0 40 40" fill="none" xmlns="http://www.w3.org/2000/svg">
<path d="M11.2585 29.5765C11.1684 29.4331 11.0865 29.3166 11.0374 29.227C11.0047 29.1822 10.9883 29.1553 10.9719 29.1284C10.9555 29.1015 10.9555 29.0925 10.9555 29.0925C10.9555 29.0925 10.931 29.1373 10.89 29.227C10.8491 29.3166 10.7999 29.4421 10.7508 29.5944C10.6444 29.9081 10.5297 30.3383 10.5052 30.8223C10.4888 31.0643 10.5052 31.3063 10.5543 31.5483C10.6034 31.7903 10.6771 32.0323 10.7918 32.2653C10.8245 32.3191 10.8491 32.3818 10.8818 32.4356C10.9146 32.4893 10.9555 32.5431 10.9965 32.5879C11.0783 32.6865 11.1684 32.7851 11.2749 32.8747C11.4796 33.054 11.7252 33.1974 12.0118 33.3049C12.3803 32.9644 12.4622 32.5162 12.3967 32.0591C12.3639 31.8261 12.2984 31.5931 12.2083 31.369C12.1838 31.3063 12.1592 31.2525 12.1346 31.1987C12.1101 31.136 12.0937 31.0822 12.0691 31.0195C12.02 30.903 11.9709 30.7865 11.9136 30.6789C11.8071 30.4548 11.6843 30.2487 11.5696 30.0695C11.4468 29.8902 11.3486 29.7199 11.2585 29.5765Z" fill="white"/>
<path d="M9.63801 28.6354L9.60525 28.4651C9.55612 28.2411 9.49062 28.017 9.42511 27.8288C9.39236 27.7302 9.3596 27.6406 9.32685 27.551C9.30229 27.4613 9.27772 27.3717 9.25316 27.3C9.1549 26.9953 9.06482 26.7981 9.06482 26.7981C9.06482 26.7981 8.92562 26.9684 8.75367 27.2462C8.6636 27.3896 8.57352 27.5599 8.48345 27.7481C8.39338 27.9363 8.30331 28.1604 8.24599 28.3755C8.18867 28.5996 8.14773 28.8326 8.13136 29.0746C8.12317 29.1911 8.12317 29.3166 8.13954 29.4421C8.14773 29.5048 8.14773 29.5675 8.16411 29.6213C8.18049 29.684 8.18867 29.7378 8.21324 29.7916C8.27874 30.0246 8.39338 30.2487 8.54077 30.4459C8.62266 30.5445 8.70454 30.643 8.81099 30.7327C8.91743 30.8223 9.04026 30.894 9.17127 30.9567C9.59707 30.6789 9.74446 30.2756 9.77721 29.8364C9.79359 29.6123 9.7854 29.3793 9.75264 29.1463C9.73627 29.0298 9.7117 28.9133 9.68714 28.8057C9.67076 28.743 9.65438 28.6892 9.63801 28.6354Z" fill="white"/>
<path d="M6.59113 28.0708C6.67301 28.1693 6.77127 28.259 6.87772 28.3486C7.33627 28.1514 7.58192 27.7929 7.69656 27.3806C7.72931 27.282 7.75387 27.1655 7.77844 27.058C7.803 26.9504 7.81938 26.8339 7.82757 26.7264C7.85213 26.5023 7.85213 26.2782 7.84395 26.0542C7.85213 25.8301 7.84395 25.615 7.82757 25.4178C7.81119 25.2207 7.77844 25.0414 7.77844 24.889C7.75387 24.5754 7.71293 24.3782 7.71293 24.3782C7.71293 24.3782 7.54917 24.5126 7.31989 24.7546C7.20526 24.8801 7.07424 25.0235 6.95142 25.1938C6.88591 25.2834 6.8204 25.3641 6.76309 25.4626C6.70577 25.5523 6.64845 25.6509 6.59113 25.7494C6.48468 25.9556 6.39461 26.1707 6.32092 26.3948C6.28816 26.5113 6.2636 26.6278 6.23903 26.7443C6.22266 26.8608 6.22266 26.9773 6.22266 27.0938C6.23903 27.3269 6.28816 27.5509 6.38642 27.766C6.43555 27.8736 6.50106 27.9811 6.59113 28.0708Z" fill="white"/>
<path d="M4.8883 25.1849C4.94562 25.2925 5.01932 25.391 5.1012 25.4896C5.57612 25.3821 5.89547 25.0774 6.10018 24.7009C6.12474 24.6561 6.14931 24.6113 6.17387 24.5575C6.19844 24.5127 6.223 24.4589 6.24757 24.4052C6.28851 24.3066 6.32945 24.199 6.3622 24.0915C6.4359 23.8764 6.48503 23.6613 6.51778 23.4462C6.56691 23.2311 6.59967 23.016 6.62423 22.8277C6.63242 22.7292 6.6488 22.6306 6.65698 22.5499C6.66517 22.4603 6.66517 22.3796 6.68155 22.299C6.7143 21.9853 6.72249 21.7881 6.72249 21.7881C6.72249 21.7881 6.53416 21.9046 6.27213 22.1018C6.14112 22.2004 5.98554 22.3258 5.82996 22.4692C5.6662 22.6126 5.52699 22.774 5.3796 22.9532C5.23221 23.1325 5.1012 23.3297 4.98656 23.5358C4.92925 23.6344 4.88012 23.7419 4.83917 23.8495C4.80642 23.957 4.77367 24.0646 4.75729 24.1811C4.71635 24.3962 4.71635 24.6292 4.76548 24.8533C4.78186 24.9788 4.83099 25.0863 4.8883 25.1849Z" fill="white"/>
<path d="M5.28181 21.6447C5.41283 21.4834 5.54384 21.2951 5.65029 21.098C5.75674 20.9008 5.84681 20.6946 5.9205 20.4885C6.08427 20.0762 6.19891 19.6729 6.26441 19.3771C6.33811 19.0724 6.37905 18.8752 6.37905 18.8752C6.37905 18.8752 6.18253 18.9649 5.89594 19.1352C5.75674 19.2158 5.58478 19.3234 5.42101 19.4489C5.24906 19.5743 5.0771 19.7088 4.90515 19.8611C4.56943 20.1659 4.25008 20.5512 4.0945 20.9635C4.01262 21.1697 3.97168 21.3937 3.97168 21.6088C3.97987 21.8239 4.04537 22.048 4.1682 22.2631C4.65131 22.2183 5.0116 21.9763 5.28181 21.6447Z" fill="white"/>
<path d="M4.65057 18.8572C4.72427 18.7855 4.79796 18.7049 4.87166 18.6242C4.94535 18.5435 5.01086 18.4539 5.07637 18.3643C5.20738 18.185 5.32202 17.9878 5.42847 17.7996C5.4776 17.701 5.52673 17.6114 5.56767 17.5128C5.6168 17.4142 5.65774 17.3157 5.69868 17.226C5.78056 17.0378 5.84607 16.8586 5.90339 16.7152C6.00165 16.4104 6.06716 16.2133 6.06716 16.2133C6.06716 16.2133 5.86245 16.285 5.57586 16.4373C5.28926 16.5807 4.90441 16.7958 4.53594 17.0737C4.35579 17.2081 4.17565 17.3694 4.01188 17.5308C3.85631 17.6921 3.7171 17.8803 3.61066 18.0685C3.50421 18.2567 3.42232 18.4629 3.39776 18.678C3.37319 18.8841 3.39776 19.1082 3.47964 19.3233C3.94638 19.3322 4.33123 19.144 4.65057 18.8572Z" fill="white"/>
<path d="M3.28349 16.1685C3.72566 16.2312 4.1187 16.0699 4.44623 15.81C4.61 15.6845 4.76557 15.5232 4.90478 15.3529C5.05217 15.1826 5.18318 15.0034 5.29782 14.8241C5.42064 14.6448 5.51071 14.4656 5.61716 14.2953C5.71542 14.134 5.7973 13.9727 5.86281 13.8382C5.92832 13.7038 5.97745 13.5962 6.0102 13.5156C6.04295 13.4439 6.06752 13.399 6.06752 13.399C6.06752 13.399 6.01839 13.408 5.92832 13.4349C5.83825 13.4618 5.71542 13.4976 5.56803 13.5514C5.27325 13.659 4.8884 13.8293 4.51174 14.0623C4.41348 14.1161 4.32341 14.1788 4.22515 14.2505C4.13507 14.3132 4.05319 14.3849 3.96312 14.4656C3.79935 14.618 3.65196 14.7793 3.52095 14.9585C3.28349 15.326 3.17704 15.7383 3.28349 16.1685Z" fill="white"/>
<path d="M4.76561 12.4939C5.10133 12.2788 5.42886 11.974 5.69908 11.6693C5.76458 11.5976 5.83009 11.517 5.88741 11.4453C5.95292 11.3736 6.01023 11.3019 6.07574 11.2302C6.19038 11.0868 6.28864 10.9613 6.36233 10.8448C6.43603 10.7282 6.50972 10.6386 6.55885 10.5759C6.59979 10.5131 6.63255 10.4773 6.63255 10.4773C6.63255 10.4773 6.43603 10.4952 6.13306 10.558C5.83009 10.6117 5.44524 10.7282 5.0522 10.8985C4.85568 10.9882 4.65916 11.0868 4.47083 11.2033C4.29887 11.3287 4.12692 11.4632 3.9959 11.6245C3.9304 11.7052 3.86489 11.7858 3.80757 11.8665C3.75025 11.9561 3.70112 12.0457 3.67656 12.1354C3.61105 12.3236 3.59468 12.5297 3.61924 12.7359C4.03685 12.8345 4.4217 12.709 4.76561 12.4939Z" fill="white"/>
<path d="M7.5091 7.98567C7.36171 7.98567 7.18975 7.99464 6.99323 8.02152C6.8049 8.03945 6.60838 8.0753 6.40367 8.12907C6.19896 8.17389 5.99425 8.24559 5.78955 8.32625C5.69129 8.3621 5.59303 8.41588 5.49477 8.46069C5.40469 8.5055 5.32281 8.55928 5.24093 8.62202C4.92158 8.87297 4.66774 9.19562 4.65137 9.6079C5.02803 9.76026 5.42107 9.70649 5.78136 9.56309C6.16621 9.42865 6.51831 9.19562 6.83765 8.95363C7.17337 8.72957 7.45178 8.47861 7.65649 8.29936C7.86938 8.12011 8.0004 7.98567 8.0004 7.98567C8.0004 7.98567 7.80388 7.97671 7.5091 7.98567Z" fill="white"/>
<path d="M9.40791 5.58373C9.12132 5.55684 8.72009 5.53891 8.31887 5.57476C7.90945 5.61061 7.47547 5.70024 7.10699 5.88845C6.74671 6.07667 6.44374 6.34555 6.3291 6.72197C6.49287 6.82056 6.66482 6.87434 6.84497 6.90123C7.0333 6.91915 7.22163 6.91019 7.41815 6.87434C7.61467 6.82953 7.81119 6.77575 7.99952 6.69509C8.18785 6.62339 8.368 6.53376 8.55633 6.44413C8.9248 6.26488 9.24415 6.05874 9.48161 5.90638C9.72726 5.75402 9.87465 5.64646 9.87465 5.64646C9.87465 5.64646 9.69451 5.61061 9.40791 5.58373Z" fill="white"/>
<path d="M9.12224 3.36091C8.77833 3.54017 8.47536 3.80008 8.35254 4.16755C8.95029 4.57086 9.82644 4.26613 10.5143 3.88971C10.8745 3.70149 11.2021 3.49535 11.4314 3.33403C11.6606 3.1727 11.7998 3.05619 11.7998 3.05619C11.7998 3.05619 11.0956 2.94864 10.2932 3.04722C9.90013 3.08307 9.47434 3.18166 9.12224 3.36091Z" fill="white"/>
<path d="M28.0037 33.3229C28.2903 33.2153 28.5359 33.0719 28.7406 32.8927C28.8389 32.8031 28.9371 32.7045 29.019 32.6059C29.06 32.5521 29.1009 32.5073 29.1337 32.4535C29.1664 32.3997 29.1992 32.346 29.2237 32.2832C29.3384 32.0502 29.4121 31.8082 29.453 31.5662C29.5021 31.3242 29.5267 31.0822 29.5021 30.8403C29.4694 30.3563 29.3629 29.9261 29.2483 29.6124C29.1992 29.4511 29.1418 29.3256 29.1091 29.2449C29.0682 29.1553 29.0436 29.1105 29.0436 29.1105C29.0436 29.1105 29.0354 29.1194 29.019 29.1463C29.0026 29.1642 28.9781 29.2001 28.9535 29.2449C28.8962 29.3256 28.8225 29.4421 28.7324 29.5945C28.6424 29.7379 28.5359 29.9171 28.4377 30.1143C28.323 30.3025 28.2002 30.5086 28.0937 30.7237C28.0364 30.8313 27.9873 30.9478 27.9382 31.0643C27.9136 31.1181 27.889 31.1808 27.8727 31.2346C27.8481 31.2884 27.8235 31.3511 27.799 31.4049C27.7089 31.6379 27.6434 31.862 27.6106 32.095C27.5615 32.5431 27.6434 32.9823 28.0037 33.3229Z" fill="white"/>
<path d="M31.2462 27.2462C31.0742 26.9684 30.935 26.7981 30.935 26.7981C30.935 26.7981 30.8532 26.9863 30.7467 27.3C30.7221 27.3807 30.6976 27.4613 30.673 27.551C30.6403 27.6406 30.6075 27.7302 30.5748 27.8288C30.5092 28.026 30.4437 28.2411 30.3946 28.4651L30.3619 28.6354C30.3455 28.6892 30.3291 28.743 30.3209 28.8057C30.2964 28.9133 30.2718 29.0298 30.2554 29.1463C30.2227 29.3793 30.2145 29.6123 30.2308 29.8364C30.2636 30.2756 30.411 30.6789 30.8368 30.9567C30.9678 30.894 31.0906 30.8133 31.1971 30.7327C31.3035 30.652 31.3854 30.5534 31.4591 30.4548C31.6147 30.2487 31.7211 30.0336 31.7948 29.8006C31.8112 29.7468 31.8276 29.684 31.8358 29.6303C31.8439 29.5765 31.8521 29.5138 31.8603 29.451C31.8685 29.3255 31.8685 29.209 31.8685 29.0836C31.8521 28.8416 31.8112 28.6085 31.7539 28.3845C31.6966 28.1694 31.6065 27.9453 31.5164 27.7571C31.4263 27.5599 31.3281 27.3896 31.2462 27.2462Z" fill="white"/>
<path d="M33.4163 25.7494C33.359 25.6509 33.3017 25.5523 33.2525 25.4626C33.1952 25.373 33.1297 25.2834 33.0642 25.1938C32.9332 25.0235 32.8022 24.8801 32.6875 24.7546C32.4583 24.5126 32.2945 24.3782 32.2945 24.3782C32.2945 24.3782 32.2535 24.5754 32.229 24.889C32.2208 25.0504 32.1962 25.2207 32.1799 25.4178C32.1635 25.615 32.1553 25.8301 32.1553 26.0542C32.1471 26.2693 32.1471 26.5023 32.1717 26.7264C32.1799 26.8429 32.1962 26.9504 32.2208 27.058C32.2454 27.1655 32.2699 27.2731 32.3027 27.3806C32.4255 27.784 32.663 28.1514 33.1297 28.3486C33.2361 28.2679 33.3344 28.1693 33.4163 28.0797C33.4982 27.9811 33.5719 27.8825 33.6128 27.766C33.7111 27.5509 33.7602 27.3179 33.7766 27.0938C33.7848 26.9773 33.7766 26.8608 33.7684 26.7443C33.752 26.6278 33.7274 26.5113 33.6947 26.3948C33.621 26.1707 33.5227 25.9556 33.4163 25.7494Z" fill="white"/>
<path d="M33.8997 24.7098C34.1044 25.0773 34.4237 25.382 34.8986 25.4896C34.9805 25.391 35.0542 25.2834 35.1115 25.1849C35.1688 25.0773 35.2098 24.9697 35.2344 24.8622C35.2753 24.6381 35.2753 24.4141 35.2425 24.19C35.218 24.0735 35.1934 23.9659 35.1525 23.8584C35.1197 23.7508 35.0624 23.6433 35.0051 23.5447C34.8986 23.3386 34.7594 23.1414 34.6202 22.9621C34.4728 22.7829 34.3255 22.6216 34.1699 22.4782C34.0143 22.3348 33.8587 22.2093 33.7277 22.1107C33.4657 21.9045 33.2773 21.797 33.2773 21.797C33.2773 21.797 33.2773 22.0031 33.3183 22.3079C33.3265 22.3885 33.3347 22.4692 33.3429 22.5588C33.351 22.6484 33.3592 22.7381 33.3674 22.8367C33.392 23.0249 33.4329 23.24 33.4821 23.4551C33.5148 23.6702 33.5639 23.8853 33.6376 24.1004C33.6704 24.2079 33.7113 24.3155 33.7605 24.4141C33.785 24.4678 33.8096 24.5127 33.8342 24.5664C33.8505 24.6202 33.8751 24.665 33.8997 24.7098Z" fill="white"/>
<path d="M36.0285 21.6088C36.0285 21.3937 35.9875 21.1697 35.9056 20.9635C35.7582 20.5512 35.4307 20.1659 35.095 19.8611C34.9312 19.7088 34.7511 19.5654 34.5873 19.4489C34.4236 19.3234 34.2516 19.2248 34.1042 19.1352C33.8176 18.9649 33.6211 18.8752 33.6211 18.8752C33.6211 18.8752 33.662 19.0814 33.7439 19.3771C33.8094 19.6729 33.9323 20.0762 34.0878 20.4885C34.1615 20.6946 34.2516 20.9008 34.358 21.098C34.4645 21.2951 34.5955 21.4834 34.7265 21.6536C34.9967 21.9763 35.357 22.2272 35.8401 22.2541C35.9466 22.039 36.0203 21.8239 36.0285 21.6088Z" fill="white"/>
<path d="M36.5938 18.6601C36.5693 18.445 36.4874 18.2479 36.3809 18.0507C36.2745 17.8625 36.1353 17.6743 35.9797 17.5129C35.8159 17.3426 35.644 17.1903 35.4556 17.0558C35.0954 16.778 34.7105 16.5629 34.4239 16.4195C34.1373 16.2761 33.9326 16.1954 33.9326 16.1954C33.9326 16.1954 33.9899 16.3926 34.0964 16.6973C34.1455 16.8497 34.211 17.02 34.2929 17.2082C34.3338 17.3068 34.3748 17.3964 34.4239 17.495C34.473 17.5936 34.514 17.6922 34.5631 17.7818C34.6696 17.97 34.7842 18.1672 34.9152 18.3465C34.9807 18.4361 35.0544 18.5257 35.1199 18.6064C35.1936 18.687 35.2673 18.7677 35.341 18.8394C35.6522 19.1262 36.037 19.3234 36.5038 19.2965C36.5938 19.0904 36.6184 18.8663 36.5938 18.6601Z" fill="white"/>
<path d="M36.4708 14.9676C36.348 14.7883 36.2006 14.627 36.0286 14.4746C35.9467 14.4029 35.8567 14.3312 35.7666 14.2595C35.6765 14.1968 35.5782 14.134 35.48 14.0713C35.1033 13.8383 34.7103 13.668 34.4155 13.5604C34.2681 13.5067 34.1453 13.4619 34.0552 13.4439C33.9651 13.417 33.916 13.4081 33.916 13.4081C33.916 13.4081 33.9324 13.4529 33.9733 13.5246C34.0061 13.6053 34.0552 13.7128 34.1207 13.8472C34.1862 13.9817 34.2681 14.134 34.3664 14.3043C34.4646 14.4657 34.5629 14.6539 34.6775 14.8331C34.8004 15.0124 34.9314 15.1916 35.0706 15.3619C35.2098 15.5322 35.3654 15.6846 35.5291 15.819C35.8567 16.0789 36.2497 16.2403 36.6919 16.1775C36.8229 15.7383 36.7164 15.3261 36.4708 14.9676Z" fill="white"/>
<path d="M36.2003 11.8665C36.1512 11.7858 36.0857 11.6962 36.012 11.6245C35.8728 11.4721 35.709 11.3287 35.5289 11.2033C35.3488 11.0868 35.1441 10.9792 34.9475 10.8985C34.5463 10.7282 34.1696 10.6117 33.8667 10.558C33.5637 10.4952 33.3672 10.4773 33.3672 10.4773C33.3672 10.4773 33.3918 10.5131 33.4409 10.5759C33.49 10.6386 33.5555 10.7282 33.6374 10.8448C33.7193 10.9613 33.8175 11.0868 33.9322 11.2302C33.9895 11.3019 34.0468 11.3736 34.1123 11.4453C34.1778 11.517 34.2351 11.5976 34.3007 11.6693C34.5627 11.974 34.8984 12.2698 35.2341 12.4939C35.578 12.709 35.9711 12.8255 36.3969 12.7359C36.4296 12.5208 36.4051 12.3236 36.3395 12.1354C36.2986 12.0457 36.2495 11.9561 36.2003 11.8665Z" fill="white"/>
<path d="M34.7598 8.62195C34.678 8.55921 34.5961 8.50543 34.4978 8.45166C34.4077 8.40684 34.3013 8.35307 34.203 8.31722C34.0065 8.23655 33.7936 8.17382 33.5889 8.12004C33.3842 8.06627 33.1877 8.03042 32.9994 8.01249C32.811 7.99456 32.6309 7.9856 32.4835 7.97664C32.1887 7.96768 31.9922 7.97664 31.9922 7.97664C31.9922 7.97664 32.1232 8.10212 32.3361 8.29033C32.549 8.46958 32.8192 8.72053 33.1467 8.95356C33.4579 9.19555 33.8182 9.41961 34.203 9.56302C34.5633 9.70642 34.9564 9.76019 35.3412 9.60783C35.333 9.19555 35.0792 8.8729 34.7598 8.62195Z" fill="white"/>
<path d="M32.9005 5.88844C32.532 5.70919 32.0898 5.61956 31.6886 5.58371C31.2874 5.5389 30.8861 5.55682 30.5995 5.59267C30.313 5.61956 30.1328 5.65541 30.1328 5.65541C30.1328 5.65541 30.2802 5.76296 30.5259 5.91533C30.7715 6.06769 31.0827 6.27383 31.4511 6.45308C31.6395 6.54271 31.8196 6.63233 32.0079 6.70404C32.1963 6.77574 32.3928 6.83847 32.5893 6.87432C32.7776 6.91018 32.9742 6.9281 33.1625 6.90121C33.3426 6.88329 33.5228 6.82951 33.6866 6.72196C33.5555 6.34553 33.2526 6.07665 32.9005 5.88844Z" fill="white"/>
<path d="M29.478 3.88981C30.174 4.26624 31.0337 4.56201 31.6397 4.16765C31.5168 3.80019 31.2139 3.54027 30.87 3.36102C30.5261 3.18177 30.1003 3.09214 29.699 3.03837C28.8966 2.94874 28.1924 3.04733 28.1924 3.04733C28.1924 3.04733 28.3316 3.16384 28.569 3.32517C28.7983 3.49546 29.1259 3.7016 29.478 3.88981Z" fill="white"/>
<path d="M37.0522 22.6484C37.4862 22.7291 37.9038 22.6036 38.2805 22.3348C38.4852 22.1914 38.6489 22.0121 38.8209 21.8149C38.9846 21.6177 39.132 21.3937 39.2712 21.1696C39.5333 20.7125 39.7134 20.2375 39.8362 19.879C39.9427 19.5205 40 19.2785 40 19.2785C40 19.2785 39.7953 19.3771 39.5005 19.5564C39.3531 19.646 39.1812 19.7535 38.9928 19.87C38.8045 19.9955 38.608 20.13 38.4115 20.2823C38.0184 20.587 37.6499 20.9366 37.3715 21.3309C37.3552 21.3489 37.347 21.3668 37.3306 21.3847C37.4698 20.6856 37.5844 19.9776 37.6663 19.2785C38.0348 19.2606 38.3541 19.0993 38.6325 18.8393C38.7144 18.7587 38.7963 18.678 38.87 18.5794C38.9437 18.4898 39.0092 18.3912 39.0747 18.2837C39.2057 18.0775 39.3122 17.8535 39.4104 17.6294C39.4596 17.5129 39.5005 17.3964 39.5415 17.2888C39.5824 17.1813 39.6151 17.0737 39.6397 16.9662C39.7052 16.76 39.7462 16.5629 39.7871 16.3926C39.869 16.052 39.8854 15.819 39.8854 15.819C39.8854 15.819 39.7052 15.9265 39.4268 16.1147C39.1566 16.3029 38.7963 16.5628 38.4606 16.8765C38.2886 17.0379 38.1331 17.2082 37.9857 17.3874C37.9202 17.4591 37.8628 17.5398 37.8055 17.6204C37.8383 17.0199 37.8465 16.4194 37.8301 15.8279C38.0921 15.7473 38.3132 15.5949 38.5097 15.3798C38.6489 15.2185 38.7799 15.0302 38.8864 14.8241C38.9846 14.618 39.0747 14.3939 39.1402 14.1698C39.2057 13.9458 39.2712 13.7217 39.304 13.5066C39.3367 13.2915 39.3613 13.0854 39.3777 12.9151C39.3941 12.7448 39.4023 12.5924 39.4023 12.4938C39.4023 12.3952 39.4023 12.3325 39.4023 12.3325C39.4023 12.3325 39.3613 12.3594 39.2876 12.4221C39.2221 12.4759 39.1157 12.5655 38.9928 12.6641C38.7554 12.8703 38.436 13.166 38.1494 13.5066C38.0757 13.5873 38.0102 13.6769 37.9365 13.7665C37.871 13.8562 37.7973 13.9458 37.7318 14.0444C37.7155 14.0713 37.6991 14.0981 37.6827 14.125C37.6172 13.5514 37.5189 12.9778 37.3879 12.4221C37.6336 12.3235 37.8301 12.1443 37.9857 11.9113C38.2313 11.5707 38.3378 11.1136 38.4033 10.6475C38.4197 10.531 38.4278 10.4145 38.436 10.307C38.436 10.1905 38.436 10.0829 38.436 9.97535C38.4278 9.76025 38.4115 9.55411 38.4033 9.37486C38.3869 9.19561 38.3623 9.05221 38.3378 8.95362C38.3296 8.84607 38.3214 8.78333 38.3214 8.78333C38.3214 8.78333 38.1904 8.92673 38.0102 9.16872C37.8301 9.40175 37.5763 9.74233 37.3634 10.1008C37.2569 10.2801 37.1586 10.4773 37.0768 10.6744C37.044 10.7461 37.0113 10.8178 36.9867 10.8895C36.7738 10.2353 36.5363 9.63477 36.2825 9.07909C36.5445 8.95362 36.7329 8.72059 36.8475 8.43379C36.9785 8.07529 37.0031 7.60923 36.9539 7.15214C36.8802 6.72194 36.7656 6.27381 36.651 5.95115C36.5281 5.63746 36.4217 5.43132 36.4217 5.43132C36.4217 5.43132 36.3316 5.59265 36.2088 5.8436C36.1515 5.96908 36.086 6.12144 36.0205 6.28277C35.955 6.4441 35.8813 6.63231 35.8158 6.82949C35.7584 7.0177 35.7011 7.22384 35.6684 7.42102C35.652 7.51961 35.6356 7.61819 35.6356 7.71678C35.6356 7.75263 35.6274 7.78848 35.6274 7.82433C35.2508 7.17903 34.8414 6.57853 34.3828 5.99597C34.5138 5.92427 34.6121 5.83464 34.694 5.72709C34.7922 5.59265 34.8495 5.42236 34.8741 5.24311C34.8987 5.06386 34.8905 4.85772 34.8659 4.66054C34.8332 4.4544 34.784 4.2393 34.7103 4.04212C34.5629 3.63881 34.3828 3.24445 34.219 2.96661C34.0553 2.68877 33.9243 2.51849 33.9243 2.51849C33.9243 2.51849 33.8588 2.67981 33.7932 2.93076C33.7196 3.18172 33.6459 3.52229 33.5967 3.90769C33.5476 4.28411 33.5476 4.68743 33.6459 5.0549C33.654 5.08178 33.6622 5.10867 33.6704 5.13556C33.1382 4.53507 32.5568 3.92561 31.9181 3.29823C32.5486 2.90388 32.3767 2.08828 32.0246 1.35335C31.8444 0.985884 31.6151 0.654268 31.435 0.412279C31.2467 0.152364 31.1157 0 31.1157 0C31.1157 0 30.9355 0.627381 30.9437 1.34439C30.9437 1.70289 31.001 2.07036 31.132 2.42886C31.1648 2.50056 31.1975 2.57226 31.2303 2.635C30.6489 2.06139 29.6418 1.48779 29.6418 1.48779C33.6622 5.17141 36.7329 9.63478 37.1914 14.7434C37.3552 16.5987 37.1505 18.454 36.8884 20.2913C36.5937 22.3706 36.1105 24.441 35.1279 26.3679C33.6049 29.3435 31.5824 31.7275 28.8147 33.5918C28.8147 33.5918 24.6796 35.8682 20.2416 35.9131C20.1351 35.9131 20.0287 35.9131 19.9222 35.9131C19.8731 35.9131 19.824 35.9131 19.7666 35.9131C15.3777 35.8414 11.1853 33.5918 11.1853 33.5918C8.42579 31.7275 6.40328 29.3525 4.88025 26.3679C3.89765 24.441 3.42272 22.3706 3.11975 20.2913C2.85773 18.454 2.65302 16.5987 2.81679 14.7434C3.27533 9.62581 6.34596 5.17141 10.3664 1.48779C10.3664 1.48779 9.35926 2.07036 8.77789 2.635C8.81883 2.57226 8.85159 2.50056 8.87615 2.42886C9.00717 2.07932 9.06448 1.70289 9.07267 1.34439C9.06448 0.627381 8.89253 0 8.89253 0C8.89253 0 8.76151 0.152364 8.58137 0.403316C8.40123 0.654268 8.17196 0.985884 7.99181 1.34439C7.63153 2.08828 7.46776 2.90388 8.09826 3.28927C7.45957 3.92561 6.8782 4.5261 6.34596 5.1266C6.35415 5.09971 6.36233 5.07282 6.36233 5.04593C6.46059 4.67847 6.46059 4.27515 6.41146 3.89872C6.36233 3.52229 6.28864 3.17275 6.21494 2.93076C6.14125 2.67085 6.08393 2.50952 6.08393 2.50952C6.08393 2.50952 5.95292 2.68877 5.78915 2.96661C5.62538 3.24445 5.43705 3.63881 5.29785 4.04212C5.21597 4.2393 5.16684 4.4544 5.14227 4.66054C5.10952 4.86668 5.10952 5.06386 5.13408 5.25207C5.15865 5.43132 5.21597 5.60161 5.31423 5.73605C5.38792 5.8436 5.48618 5.93323 5.6172 6.00493C5.15865 6.5875 4.74923 7.18799 4.37257 7.82433C4.37257 7.78848 4.36438 7.75263 4.36438 7.71678C4.35619 7.61819 4.348 7.51961 4.33163 7.42102C4.29069 7.21488 4.24156 7.0177 4.17605 6.82949C4.11873 6.64127 4.04504 6.4441 3.97953 6.28277C3.91402 6.12144 3.84852 5.96908 3.7912 5.8436C3.66837 5.59265 3.5783 5.43132 3.5783 5.43132C3.5783 5.43132 3.48004 5.63746 3.34903 5.95115C3.23439 6.27381 3.11975 6.72194 3.05425 7.1611C3.00512 7.61819 3.02968 8.08425 3.1607 8.44275C3.27533 8.72955 3.45548 8.95362 3.72569 9.08806C3.46366 9.64374 3.23439 10.2442 3.02149 10.8985C2.99693 10.8268 2.96418 10.7551 2.93142 10.6744C2.84135 10.4773 2.75128 10.289 2.63664 10.1008C2.42375 9.73336 2.16991 9.40175 1.99795 9.16872C1.80962 8.92673 1.67861 8.78333 1.67861 8.78333C1.67861 8.78333 1.67042 8.84607 1.64585 8.94466C1.62948 9.04324 1.59672 9.18665 1.58035 9.3659C1.56397 9.54515 1.54759 9.74233 1.54759 9.96639C1.54759 10.0739 1.53941 10.1815 1.54759 10.298C1.55578 10.4145 1.56397 10.531 1.58035 10.6386C1.63767 11.1046 1.7523 11.5617 1.99795 11.9023C2.15353 12.1353 2.35005 12.3146 2.58751 12.4132C2.4565 12.9778 2.36643 13.5425 2.29273 14.1161C2.27636 14.0892 2.25998 14.0623 2.2436 14.0354C2.1781 13.9368 2.11259 13.8472 2.03889 13.7576C1.97339 13.6679 1.89969 13.5873 1.826 13.4976C1.53941 13.166 1.22825 12.8703 0.9826 12.6641C0.859775 12.5566 0.753326 12.4759 0.68782 12.4132C0.614125 12.3594 0.573183 12.3235 0.573183 12.3235C0.573183 12.3235 0.573183 12.3863 0.573183 12.4849C0.581372 12.5835 0.58956 12.7269 0.605937 12.9061C0.622313 13.0854 0.646878 13.2825 0.679632 13.4976C0.712385 13.7127 0.777891 13.9368 0.843398 14.1609C0.908905 14.3849 0.998976 14.609 1.09724 14.8151C1.20368 15.0213 1.32651 15.2095 1.4739 15.3708C1.66223 15.5859 1.8915 15.7383 2.14534 15.819C2.12897 16.4194 2.13715 17.011 2.16991 17.6115C2.11259 17.5308 2.05527 17.4501 1.98976 17.3784C1.84237 17.1992 1.67861 17.0289 1.51484 16.8676C1.17912 16.5539 0.818833 16.285 0.548618 16.1058C0.278403 15.9175 0.0900716 15.81 0.0900716 15.81C0.0900716 15.81 0.114637 16.043 0.188332 16.3836C0.229273 16.5539 0.278403 16.7511 0.335722 16.9572C0.368475 17.0648 0.401228 17.1723 0.433982 17.2799C0.474923 17.3874 0.524053 17.5039 0.564995 17.6204C0.663255 17.8445 0.769703 18.0686 0.900717 18.2747C0.966223 18.3823 1.03173 18.4808 1.10542 18.5705C1.17912 18.6601 1.261 18.7497 1.34289 18.8304C1.62129 19.0903 1.94063 19.2516 2.30911 19.2695C2.39099 19.9776 2.50563 20.6767 2.64483 21.3758C2.63664 21.3578 2.62027 21.3399 2.61208 21.322C2.33367 20.9276 1.9652 20.5781 1.57216 20.2734C1.37564 20.121 1.17912 19.9866 0.990788 19.8611C0.818833 19.7446 0.655067 19.637 0.507677 19.5474C0.204708 19.3681 0 19.2695 0 19.2695C0 19.2695 0.04913 19.5115 0.163767 19.87C0.286592 20.2285 0.466735 20.7036 0.728762 21.1607C0.867963 21.3847 1.01535 21.6088 1.17912 21.806C1.34289 22.0121 1.51484 22.1914 1.71955 22.3258C2.09621 22.5947 2.50563 22.7291 2.9478 22.6395C2.97236 22.7291 2.98874 22.8187 3.01331 22.8994C3.1607 23.5268 3.34903 24.1452 3.57011 24.7457C3.52917 24.7009 3.48823 24.6561 3.44729 24.6112C3.35722 24.5216 3.25896 24.432 3.1607 24.3513C3.05425 24.2707 2.96418 24.19 2.85773 24.1093C2.64483 23.948 2.41556 23.8136 2.18628 23.6791C1.95701 23.5447 1.71955 23.4282 1.51484 23.3296C1.31013 23.222 1.11361 23.1324 0.941658 23.0607C0.605937 22.9173 0.376663 22.8367 0.376663 22.8367C0.376663 22.8367 0.466735 23.0876 0.646878 23.4461C0.728762 23.6254 0.859775 23.8315 0.998976 24.0556C1.13818 24.2707 1.29376 24.5037 1.46571 24.7188C1.65404 24.9339 1.85056 25.149 2.06346 25.3283C2.16991 25.4179 2.27636 25.5075 2.3828 25.5882C2.44012 25.624 2.48925 25.6599 2.54657 25.6957C2.60389 25.7316 2.66121 25.7585 2.71853 25.7853C3.16888 26.0094 3.61924 26.0811 4.04504 25.9198C4.35619 26.6009 4.70829 27.2642 5.1259 27.9095C5.0522 27.8736 4.98669 27.8199 4.913 27.7661C4.79836 27.6944 4.68373 27.6227 4.5609 27.551C4.44626 27.4793 4.32344 27.4165 4.19243 27.3538C3.94678 27.2283 3.68475 27.1208 3.41453 27.0222C3.29171 26.9774 3.1607 26.9326 3.02968 26.8877C2.90686 26.8429 2.78403 26.8071 2.6694 26.7712C2.43193 26.6995 2.21904 26.6278 2.03071 26.583C1.65404 26.4844 1.40839 26.4307 1.40839 26.4307C1.40839 26.4307 1.56397 26.6726 1.81781 27.0222C1.94063 27.2014 2.11259 27.3896 2.30911 27.5958C2.49744 27.8019 2.71034 28.0081 2.93961 28.2052C3.17707 28.3935 3.43091 28.5817 3.68475 28.734C3.81576 28.8057 3.93859 28.8774 4.0696 28.9402C4.19243 29.0029 4.32344 29.0567 4.45445 29.0925C4.97032 29.2449 5.45343 29.227 5.85466 28.976C6.25589 29.5317 6.68168 30.0874 7.14023 30.6251C7.12385 30.6162 7.09928 30.6072 7.08291 30.5983C7.0174 30.5714 6.95189 30.5445 6.8782 30.5176C6.8045 30.4907 6.74719 30.4638 6.68168 30.4369C6.55067 30.3921 6.41146 30.3473 6.26407 30.3025C5.97748 30.2218 5.69089 30.1591 5.39611 30.1053C5.10133 30.0605 4.8393 30.0067 4.57728 29.9709C4.32344 29.935 4.08598 29.9081 3.88127 29.8902C3.48004 29.8544 3.20983 29.8454 3.20983 29.8454C3.20983 29.8454 3.42272 30.0695 3.77482 30.3832C3.86489 30.4638 3.95496 30.5445 4.06141 30.6341C4.16786 30.7148 4.2825 30.8044 4.40532 30.8851C4.65097 31.0553 4.913 31.2256 5.1914 31.387C5.25691 31.4228 5.3306 31.4676 5.39611 31.5035C5.46981 31.5393 5.5435 31.5752 5.6172 31.611C5.76459 31.6738 5.91198 31.7365 6.05937 31.7903C6.35415 31.8978 6.64893 31.9785 6.92733 32.0143C7.40225 32.0681 7.82805 31.9964 8.15558 31.7813C8.52405 32.1757 8.9089 32.5521 9.31013 32.9016C9.18731 32.8837 9.06448 32.8658 8.94166 32.8479C8.63869 32.812 8.31935 32.812 8.02457 32.7941C7.43501 32.7762 6.86182 32.803 6.44422 32.8389C6.23132 32.8568 6.05937 32.8747 5.94473 32.8837C5.8219 32.9016 5.7564 32.9016 5.7564 32.9016C5.7564 32.9016 5.77277 32.9106 5.80553 32.9375C5.83828 32.9554 5.87922 32.9913 5.94473 33.0271C6.06755 33.1078 6.23951 33.2153 6.45241 33.3408C6.6653 33.4663 6.91095 33.6007 7.18936 33.7441C7.47595 33.8786 7.77892 33.9951 8.09826 34.1116C8.25384 34.1654 8.41761 34.2191 8.57318 34.2639C8.65507 34.2908 8.72876 34.3088 8.81065 34.3267C8.89253 34.3446 8.97441 34.3625 9.04811 34.3715C9.37564 34.4253 9.6868 34.4611 9.97339 34.4522C10.3664 34.4432 10.7103 34.3536 10.9806 34.1743C11.1279 34.2729 11.2835 34.3625 11.4391 34.4522C11.4719 34.4701 11.5046 34.4791 11.521 34.4791C13.609 35.7338 16.1883 36.5046 18.3091 36.7824C16.6059 37.132 14.608 37.5084 12.4872 37.8669L10.1945 40C10.1945 40 15.3531 38.1179 20.1679 36.9258C24.9744 38.1268 30.1331 40 30.1331 40L27.8403 37.8669C25.6622 37.5084 23.6151 37.114 21.8874 36.7555C24.5159 36.4239 26.7267 35.5814 28.5036 34.4791C28.52 34.4791 28.5445 34.4701 28.5691 34.4522C28.7247 34.3625 28.8721 34.2729 29.0276 34.1743C29.2979 34.3536 29.6418 34.4432 30.0348 34.4522C30.3214 34.4611 30.6407 34.4342 30.9601 34.3715C31.042 34.3625 31.1238 34.3446 31.2057 34.3267C31.2876 34.3088 31.3613 34.2819 31.4432 34.2639C31.5988 34.2191 31.7625 34.1654 31.9181 34.1116C32.2375 34.004 32.5404 33.8786 32.827 33.7441C33.0972 33.6007 33.3511 33.4663 33.564 33.3408C33.7769 33.2153 33.9488 33.1078 34.0716 33.0271C34.129 32.9913 34.1781 32.9554 34.2108 32.9375C34.2354 32.9196 34.26 32.9016 34.26 32.9016C34.26 32.9016 34.1945 32.8927 34.0716 32.8837C33.9488 32.8747 33.7769 32.8568 33.5722 32.8389C33.1546 32.803 32.5814 32.7762 31.9918 32.7941C31.7052 32.812 31.3777 32.812 31.0747 32.8479C30.9519 32.8658 30.8291 32.8837 30.7062 32.9016C31.1075 32.5431 31.4923 32.1667 31.869 31.7813C32.1965 31.9964 32.6223 32.0681 33.0972 32.0143C33.3756 31.9785 33.6622 31.8978 33.957 31.7903C34.1044 31.7365 34.2518 31.6738 34.3992 31.611C34.4729 31.5752 34.5466 31.5393 34.6203 31.5035C34.694 31.4676 34.7595 31.4228 34.8332 31.387C35.1034 31.2256 35.3736 31.0553 35.6192 30.8851C35.7421 30.7954 35.8567 30.7148 35.9632 30.6341C36.0614 30.5445 36.1597 30.4638 36.2497 30.3832C36.6018 30.0784 36.8147 29.8454 36.8147 29.8454C36.8147 29.8454 36.5527 29.8544 36.1433 29.8902C35.9386 29.9081 35.7011 29.935 35.4473 29.9709C35.1853 30.0067 34.9232 30.0605 34.6285 30.1053C34.3419 30.1591 34.0471 30.2218 33.7605 30.3025C33.6213 30.3383 33.4821 30.3921 33.3429 30.4369C33.2774 30.4638 33.2119 30.4907 33.1382 30.5176C33.0727 30.5445 33.0072 30.5714 32.9417 30.5983C32.9171 30.6072 32.9007 30.6162 32.8843 30.6251C33.3347 30.0784 33.7605 29.5227 34.1699 28.976C34.5711 29.227 35.0542 29.2449 35.5701 29.0925C35.7011 29.0567 35.8321 29.0029 35.9632 28.9402C36.0942 28.8774 36.2252 28.8147 36.348 28.734C36.6018 28.5817 36.8557 28.4024 37.0931 28.2052C37.3142 28.0081 37.5271 27.8019 37.7236 27.5958C37.912 27.3896 38.0839 27.2014 38.2149 27.0222C38.477 26.6726 38.6325 26.4307 38.6325 26.4307C38.6325 26.4307 38.3787 26.4844 38.0102 26.583C37.8219 26.6368 37.6008 26.6995 37.3715 26.7712C37.2569 26.8071 37.1341 26.8519 37.0031 26.8877C36.8721 26.9326 36.741 26.9774 36.61 27.0222C36.348 27.1208 36.086 27.2283 35.8321 27.3538C35.7093 27.4165 35.5865 27.4793 35.4719 27.551C35.349 27.6137 35.2344 27.6854 35.1198 27.7661C35.0461 27.8109 34.9806 27.8647 34.915 27.9184C35.3327 27.2731 35.6847 26.6099 35.9959 25.9287C36.4299 26.0901 36.8802 26.0184 37.3224 25.7943C37.3797 25.7674 37.4371 25.7316 37.4944 25.6957C37.5517 25.6599 37.6008 25.624 37.6581 25.5882C37.7646 25.5075 37.871 25.4268 37.9775 25.3283C38.1904 25.149 38.3869 24.9339 38.5752 24.7188C38.7472 24.5037 38.9028 24.2707 39.042 24.0556C39.173 23.8405 39.304 23.6343 39.3941 23.4461C39.566 23.0876 39.6643 22.8367 39.6643 22.8367C39.6643 22.8367 39.435 22.9173 39.0993 23.0607C38.9355 23.1324 38.7308 23.222 38.5261 23.3296C38.3214 23.4372 38.0839 23.5537 37.8547 23.6791C37.6254 23.8046 37.3961 23.948 37.1832 24.1093C37.0768 24.19 36.9785 24.2707 36.8802 24.3513C36.782 24.432 36.6837 24.5216 36.5937 24.6112C36.5527 24.6561 36.5036 24.7009 36.4708 24.7457C36.6919 24.1362 36.8721 23.5178 37.0276 22.8994C37.0113 22.8277 37.0358 22.7381 37.0522 22.6484Z" fill="white"/>
</svg>
