<svg width="16" height="26" viewBox="0 0 16 26" fill="none" xmlns="http://www.w3.org/2000/svg">
<path fill-rule="evenodd" clip-rule="evenodd" d="M6.1998 22V25.6H9.7998V22H6.1998ZM11.9058 13.306L13.5258 11.65C14.5518 10.624 15.1998 9.18402 15.1998 7.60002C15.1998 3.62202 11.9778 0.400024 7.99981 0.400024C4.0218 0.400024 0.799805 3.62202 0.799805 7.60002H4.39981C4.39981 5.62002 6.01981 4.00002 7.99981 4.00002C9.9798 4.00002 11.5998 5.62002 11.5998 7.60002C11.5998 8.59002 11.2038 9.49002 10.5378 10.138L8.30581 12.406C7.00981 13.72 6.1998 15.52 6.1998 17.5V18.4H9.7998C9.7998 15.7 10.6098 14.62 11.9058 13.306Z" fill="white"/>
</svg>
