<svg width="442" height="442" viewBox="0 0 442 442" fill="none" xmlns="http://www.w3.org/2000/svg">
<g opacity="0.03">
<g clip-path="url(#clip0_296_9882)">
<path d="M151.452 297.47C150.735 296.424 150.083 295.575 149.693 294.921C149.432 294.594 149.302 294.398 149.171 294.202C149.041 294.006 149.041 293.941 149.041 293.941C149.041 293.941 148.846 294.267 148.52 294.921C148.194 295.575 147.803 296.49 147.412 297.601C146.566 299.889 145.653 303.026 145.458 306.556C145.328 308.321 145.458 310.086 145.849 311.85C146.24 313.615 146.826 315.38 147.738 317.079C147.999 317.472 148.194 317.929 148.455 318.321C148.715 318.714 149.041 319.106 149.367 319.433C150.018 320.152 150.735 320.871 151.582 321.524C153.21 322.832 155.165 323.877 157.445 324.662C160.377 322.178 161.028 318.91 160.507 315.576C160.246 313.877 159.725 312.177 159.008 310.543C158.813 310.085 158.618 309.693 158.422 309.301C158.227 308.844 158.096 308.451 157.901 307.994C157.51 307.144 157.119 306.294 156.663 305.51C155.816 303.876 154.839 302.373 153.927 301.065C152.95 299.758 152.168 298.516 151.452 297.47Z" fill="white"/>
<path d="M138.554 290.607L138.294 289.365C137.903 287.731 137.382 286.097 136.86 284.725C136.6 284.006 136.339 283.352 136.079 282.698C135.883 282.045 135.688 281.391 135.492 280.868C134.711 278.646 133.994 277.208 133.994 277.208C133.994 277.208 132.886 278.45 131.518 280.476C130.802 281.522 130.085 282.764 129.368 284.136C128.652 285.509 127.935 287.143 127.479 288.712C127.023 290.346 126.698 292.045 126.567 293.81C126.502 294.66 126.502 295.575 126.632 296.49C126.697 296.948 126.697 297.405 126.828 297.797C126.958 298.255 127.023 298.647 127.219 299.039C127.74 300.739 128.652 302.373 129.825 303.811C130.476 304.53 131.127 305.249 131.974 305.903C132.821 306.556 133.798 307.079 134.841 307.537C138.228 305.51 139.401 302.569 139.662 299.366C139.792 297.732 139.727 296.033 139.466 294.333C139.336 293.483 139.14 292.634 138.945 291.849C138.815 291.392 138.684 291 138.554 290.607Z" fill="white"/>
<path d="M114.316 286.49C114.968 287.209 115.75 287.862 116.596 288.516C120.245 287.078 122.199 284.463 123.111 281.457C123.372 280.738 123.567 279.888 123.763 279.104C123.958 278.319 124.088 277.469 124.153 276.685C124.349 275.051 124.349 273.417 124.284 271.783C124.349 270.149 124.284 268.58 124.153 267.142C124.023 265.704 123.763 264.397 123.763 263.285C123.567 260.998 123.241 259.56 123.241 259.56C123.241 259.56 121.938 260.54 120.114 262.305C119.202 263.22 118.16 264.266 117.183 265.508C116.662 266.161 116.14 266.75 115.684 267.469C115.228 268.122 114.772 268.841 114.316 269.56C113.469 271.064 112.753 272.633 112.167 274.267C111.906 275.116 111.71 275.966 111.515 276.816C111.385 277.666 111.385 278.515 111.385 279.365C111.515 281.064 111.906 282.699 112.688 284.267C113.079 285.052 113.6 285.836 114.316 286.49Z" fill="white"/>
<path d="M100.772 265.442C101.228 266.226 101.815 266.945 102.466 267.664C106.245 266.88 108.785 264.657 110.414 261.912C110.609 261.585 110.805 261.258 111 260.866C111.196 260.539 111.391 260.147 111.587 259.755C111.912 259.036 112.238 258.252 112.499 257.467C113.085 255.898 113.476 254.33 113.736 252.761C114.127 251.192 114.388 249.624 114.583 248.251C114.648 247.532 114.779 246.813 114.844 246.225C114.909 245.571 114.909 244.983 115.039 244.394C115.3 242.107 115.365 240.669 115.365 240.669C115.365 240.669 113.867 241.518 111.782 242.956C110.74 243.675 109.502 244.59 108.264 245.636C106.961 246.682 105.854 247.859 104.681 249.166C103.508 250.473 102.466 251.911 101.554 253.415C101.098 254.134 100.707 254.918 100.381 255.702C100.121 256.487 99.8602 257.271 99.7299 258.121C99.4041 259.69 99.4041 261.389 99.795 263.023C99.9253 263.938 100.316 264.723 100.772 265.442Z" fill="white"/>
<path d="M103.895 239.623C104.937 238.447 105.98 237.074 106.827 235.636C107.674 234.198 108.39 232.695 108.977 231.191C110.279 228.185 111.191 225.243 111.713 223.086C112.299 220.864 112.625 219.426 112.625 219.426C112.625 219.426 111.061 220.079 108.781 221.321C107.674 221.91 106.306 222.694 105.003 223.609C103.635 224.524 102.266 225.505 100.898 226.616C98.2274 228.838 95.6867 231.649 94.4489 234.656C93.7974 236.159 93.4717 237.793 93.4717 239.362C93.5368 240.931 94.058 242.565 95.0352 244.133C98.8788 243.807 101.745 242.042 103.895 239.623Z" fill="white"/>
<path d="M98.8825 219.295C99.4688 218.772 100.055 218.184 100.641 217.596C101.228 217.007 101.749 216.354 102.27 215.7C103.312 214.393 104.224 212.955 105.071 211.582C105.462 210.863 105.853 210.21 106.179 209.491C106.57 208.772 106.895 208.053 107.221 207.399C107.873 206.026 108.394 204.719 108.85 203.673C109.632 201.451 110.153 200.013 110.153 200.013C110.153 200.013 108.524 200.536 106.244 201.647C103.964 202.693 100.902 204.261 97.9704 206.288C96.5372 207.268 95.104 208.445 93.8011 209.621C92.5633 210.798 91.4558 212.171 90.6089 213.543C89.762 214.916 89.1105 216.419 88.9151 217.988C88.7196 219.491 88.9151 221.125 89.5665 222.694C93.2799 222.76 96.3418 221.387 98.8825 219.295Z" fill="white"/>
<path d="M87.9946 199.686C91.5125 200.143 94.6395 198.967 97.2454 197.071C98.5483 196.156 99.7861 194.98 100.894 193.738C102.066 192.496 103.109 191.188 104.021 189.881C104.998 188.574 105.714 187.267 106.561 186.025C107.343 184.848 107.995 183.672 108.516 182.691C109.037 181.711 109.428 180.926 109.688 180.338C109.949 179.815 110.144 179.488 110.144 179.488C110.144 179.488 109.753 179.554 109.037 179.75C108.32 179.946 107.343 180.207 106.17 180.599C103.825 181.384 100.763 182.626 97.7666 184.325C96.9848 184.717 96.2682 185.175 95.4864 185.698C94.7698 186.155 94.1184 186.678 93.4017 187.267C92.0988 188.378 90.9262 189.554 89.8838 190.862C87.9946 193.542 87.1477 196.548 87.9946 199.686Z" fill="white"/>
<path d="M99.7868 172.886C102.458 171.318 105.064 169.095 107.214 166.873C107.735 166.35 108.256 165.762 108.712 165.239C109.233 164.716 109.689 164.193 110.21 163.67C111.122 162.624 111.904 161.709 112.49 160.859C113.077 160.01 113.663 159.356 114.054 158.898C114.38 158.441 114.64 158.179 114.64 158.179C114.64 158.179 113.077 158.31 110.666 158.768C108.256 159.16 105.194 160.01 102.067 161.252C100.503 161.905 98.9399 162.624 97.4416 163.474C96.0735 164.389 94.7054 165.37 93.6631 166.546C93.1419 167.134 92.6207 167.723 92.1647 168.311C91.7087 168.965 91.3178 169.618 91.1224 170.272C90.6012 171.644 90.4709 173.148 90.6663 174.651C93.9888 175.37 97.0507 174.455 99.7868 172.886Z" fill="white"/>
<path d="M121.614 140.009C120.441 140.009 119.073 140.074 117.51 140.27C116.011 140.401 114.448 140.662 112.819 141.055C111.191 141.381 109.562 141.904 107.933 142.493C107.152 142.754 106.37 143.146 105.588 143.473C104.871 143.8 104.22 144.192 103.568 144.65C101.028 146.48 99.0082 148.833 98.8779 151.84C101.875 152.951 105.002 152.559 107.868 151.513C110.93 150.532 113.731 148.833 116.272 147.068C118.943 145.434 121.158 143.604 122.787 142.297C124.48 140.989 125.523 140.009 125.523 140.009C125.523 140.009 123.959 139.943 121.614 140.009Z" fill="white"/>
<path d="M136.732 122.491C134.452 122.295 131.26 122.164 128.068 122.425C124.811 122.687 121.358 123.341 118.426 124.713C115.56 126.086 113.149 128.047 112.237 130.792C113.54 131.511 114.908 131.903 116.342 132.099C117.84 132.23 119.338 132.165 120.902 131.903C122.465 131.576 124.029 131.184 125.527 130.596C127.026 130.073 128.459 129.419 129.957 128.766C132.889 127.459 135.429 125.955 137.319 124.844C139.273 123.733 140.446 122.948 140.446 122.948C140.446 122.948 139.012 122.687 136.732 122.491Z" fill="white"/>
<path d="M134.451 106.281C131.715 107.588 129.304 109.484 128.327 112.163C133.083 115.105 140.054 112.882 145.526 110.137C148.392 108.765 150.998 107.261 152.822 106.085C154.646 104.908 155.754 104.058 155.754 104.058C155.754 104.058 150.151 103.274 143.767 103.993C140.64 104.254 137.252 104.973 134.451 106.281Z" fill="white"/>
<path d="M284.681 324.792C286.962 324.008 288.916 322.962 290.545 321.655C291.326 321.001 292.108 320.282 292.76 319.563C293.085 319.171 293.411 318.844 293.672 318.452C293.932 318.06 294.193 317.668 294.388 317.21C295.3 315.511 295.887 313.746 296.212 311.981C296.603 310.216 296.799 308.451 296.603 306.687C296.343 303.157 295.496 300.019 294.584 297.732C294.193 296.555 293.737 295.64 293.476 295.052C293.15 294.398 292.955 294.071 292.955 294.071C292.955 294.071 292.89 294.137 292.76 294.333C292.629 294.464 292.434 294.725 292.238 295.052C291.782 295.64 291.196 296.49 290.479 297.601C289.763 298.647 288.916 299.954 288.134 301.392C287.222 302.765 286.245 304.268 285.398 305.837C284.942 306.621 284.551 307.471 284.16 308.321C283.965 308.713 283.769 309.17 283.639 309.563C283.444 309.955 283.248 310.412 283.053 310.805C282.336 312.504 281.815 314.138 281.554 315.838C281.164 319.106 281.815 322.309 284.681 324.792Z" fill="white"/>
<path d="M310.475 280.476C309.107 278.45 308 277.208 308 277.208C308 277.208 307.348 278.58 306.501 280.868C306.306 281.456 306.111 282.045 305.915 282.698C305.654 283.352 305.394 284.006 305.133 284.725C304.612 286.163 304.091 287.731 303.7 289.365L303.44 290.607C303.309 291 303.179 291.392 303.114 291.849C302.918 292.634 302.723 293.483 302.593 294.333C302.332 296.033 302.267 297.732 302.397 299.366C302.658 302.569 303.83 305.51 307.218 307.537C308.26 307.079 309.238 306.491 310.084 305.903C310.931 305.314 311.583 304.595 312.169 303.876C313.407 302.373 314.254 300.804 314.84 299.105C314.97 298.712 315.101 298.255 315.166 297.863C315.231 297.471 315.296 297.013 315.361 296.555C315.426 295.64 315.426 294.791 315.426 293.876C315.296 292.111 314.97 290.411 314.514 288.777C314.058 287.208 313.342 285.574 312.625 284.202C311.909 282.764 311.127 281.522 310.475 280.476Z" fill="white"/>
<path d="M327.738 269.56C327.281 268.841 326.825 268.122 326.435 267.469C325.979 266.815 325.457 266.161 324.936 265.508C323.894 264.266 322.852 263.22 321.939 262.305C320.115 260.54 318.812 259.56 318.812 259.56C318.812 259.56 318.487 260.998 318.291 263.285C318.226 264.462 318.031 265.704 317.9 267.142C317.77 268.58 317.705 270.149 317.705 271.783C317.64 273.352 317.64 275.051 317.835 276.685C317.9 277.535 318.031 278.319 318.226 279.104C318.422 279.888 318.617 280.672 318.878 281.457C319.855 284.398 321.744 287.078 325.457 288.516C326.304 287.928 327.086 287.209 327.738 286.555C328.389 285.836 328.975 285.117 329.301 284.267C330.083 282.699 330.474 280.999 330.604 279.365C330.669 278.515 330.604 277.666 330.539 276.816C330.409 275.966 330.213 275.116 329.952 274.267C329.366 272.633 328.584 271.064 327.738 269.56Z" fill="white"/>
<path d="M331.584 261.978C333.213 264.658 335.753 266.88 339.532 267.665C340.183 266.946 340.77 266.161 341.226 265.442C341.682 264.658 342.007 263.874 342.203 263.089C342.529 261.455 342.529 259.821 342.268 258.187C342.073 257.337 341.877 256.553 341.551 255.768C341.291 254.984 340.835 254.2 340.379 253.481C339.532 251.977 338.424 250.539 337.317 249.232C336.144 247.925 334.972 246.748 333.734 245.702C332.496 244.657 331.258 243.741 330.216 243.022C328.131 241.519 326.633 240.735 326.633 240.735C326.633 240.735 326.633 242.238 326.959 244.46C327.024 245.049 327.089 245.637 327.154 246.291C327.219 246.944 327.284 247.598 327.349 248.317C327.545 249.69 327.871 251.258 328.261 252.827C328.522 254.396 328.913 255.965 329.499 257.533C329.76 258.318 330.086 259.102 330.476 259.821C330.672 260.213 330.867 260.54 331.063 260.932C331.193 261.324 331.389 261.651 331.584 261.978Z" fill="white"/>
<path d="M348.516 239.362C348.516 237.793 348.191 236.159 347.539 234.656C346.366 231.649 343.761 228.838 341.09 226.616C339.787 225.505 338.353 224.459 337.051 223.609C335.748 222.694 334.38 221.975 333.207 221.321C330.927 220.079 329.363 219.426 329.363 219.426C329.363 219.426 329.689 220.929 330.34 223.086C330.862 225.243 331.839 228.185 333.077 231.191C333.663 232.695 334.38 234.198 335.226 235.636C336.073 237.074 337.116 238.447 338.158 239.689C340.308 242.042 343.174 243.872 347.018 244.068C347.865 242.499 348.451 240.931 348.516 239.362Z" fill="white"/>
<path d="M353.018 217.857C352.823 216.288 352.171 214.85 351.325 213.412C350.478 212.04 349.37 210.667 348.132 209.49C346.829 208.249 345.461 207.137 343.963 206.157C341.097 204.131 338.035 202.562 335.755 201.516C333.474 200.47 331.846 199.882 331.846 199.882C331.846 199.882 332.302 201.32 333.149 203.542C333.54 204.654 334.061 205.895 334.712 207.268C335.038 207.987 335.364 208.641 335.755 209.36C336.145 210.079 336.471 210.798 336.862 211.451C337.709 212.824 338.621 214.262 339.663 215.569C340.184 216.223 340.771 216.877 341.292 217.465C341.878 218.053 342.465 218.641 343.051 219.164C345.526 221.256 348.588 222.694 352.302 222.498C353.018 220.995 353.214 219.36 353.018 217.857Z" fill="white"/>
<path d="M352.042 190.927C351.064 189.62 349.892 188.443 348.524 187.332C347.872 186.809 347.156 186.286 346.439 185.763C345.722 185.306 344.941 184.848 344.159 184.391C341.162 182.691 338.035 181.449 335.69 180.665C334.517 180.273 333.54 179.946 332.823 179.815C332.107 179.619 331.716 179.554 331.716 179.554C331.716 179.554 331.846 179.881 332.172 180.403C332.432 180.992 332.823 181.776 333.344 182.757C333.866 183.737 334.517 184.848 335.299 186.09C336.081 187.267 336.862 188.639 337.774 189.947C338.752 191.254 339.794 192.561 340.901 193.803C342.009 195.045 343.247 196.156 344.55 197.137C347.156 199.032 350.283 200.209 353.8 199.751C354.843 196.548 353.996 193.542 352.042 190.927Z" fill="white"/>
<path d="M349.886 168.311C349.495 167.723 348.974 167.069 348.388 166.546C347.28 165.435 345.978 164.389 344.544 163.474C343.111 162.624 341.482 161.84 339.919 161.252C336.727 160.01 333.73 159.16 331.32 158.768C328.909 158.31 327.346 158.179 327.346 158.179C327.346 158.179 327.541 158.441 327.932 158.898C328.323 159.356 328.844 160.01 329.496 160.859C330.147 161.709 330.929 162.624 331.841 163.67C332.297 164.193 332.753 164.716 333.274 165.239C333.795 165.762 334.251 166.35 334.772 166.873C336.857 169.095 339.528 171.252 342.199 172.886C344.935 174.455 348.062 175.305 351.45 174.651C351.71 173.082 351.515 171.644 350.994 170.272C350.668 169.618 350.277 168.965 349.886 168.311Z" fill="white"/>
<path d="M338.423 144.65C337.771 144.192 337.12 143.8 336.338 143.408C335.622 143.081 334.775 142.689 333.993 142.427C332.429 141.839 330.736 141.381 329.107 140.989C327.478 140.597 325.915 140.336 324.416 140.205C322.918 140.074 321.485 140.009 320.312 139.943C317.967 139.878 316.403 139.943 316.403 139.943C316.403 139.943 317.446 140.858 319.139 142.231C320.833 143.538 322.983 145.369 325.589 147.068C328.065 148.833 330.931 150.467 333.993 151.513C336.859 152.559 339.986 152.951 343.048 151.84C342.983 148.833 340.964 146.48 338.423 144.65Z" fill="white"/>
<path d="M323.64 124.713C320.708 123.406 317.19 122.752 313.998 122.491C310.806 122.164 307.614 122.294 305.333 122.556C303.053 122.752 301.62 123.013 301.62 123.013C301.62 123.013 302.793 123.798 304.747 124.909C306.702 126.02 309.177 127.524 312.109 128.831C313.607 129.484 315.04 130.138 316.539 130.661C318.037 131.184 319.601 131.641 321.164 131.903C322.662 132.164 324.226 132.295 325.724 132.099C327.157 131.968 328.591 131.576 329.894 130.792C328.851 128.046 326.441 126.086 323.64 124.713Z" fill="white"/>
<path d="M296.406 110.137C301.943 112.882 308.784 115.039 313.604 112.163C312.627 109.484 310.217 107.588 307.481 106.281C304.744 104.973 301.357 104.32 298.165 103.928C291.78 103.274 286.178 103.993 286.178 103.993C286.178 103.993 287.285 104.843 289.174 106.019C290.999 107.261 293.604 108.764 296.406 110.137Z" fill="white"/>
<path d="M356.663 246.944C360.116 247.532 363.439 246.617 366.435 244.656C368.064 243.61 369.367 242.303 370.735 240.865C372.038 239.427 373.21 237.793 374.318 236.159C376.403 232.825 377.836 229.361 378.813 226.747C379.66 224.132 380.116 222.367 380.116 222.367C380.116 222.367 378.487 223.086 376.142 224.393C374.969 225.047 373.601 225.831 372.103 226.681C370.605 227.596 369.041 228.577 367.478 229.688C364.351 231.91 361.419 234.459 359.204 237.335C359.074 237.466 359.009 237.597 358.878 237.728C359.986 232.629 360.898 227.466 361.549 222.367C364.481 222.236 367.022 221.06 369.237 219.164C369.888 218.576 370.54 217.988 371.126 217.269C371.712 216.615 372.233 215.896 372.754 215.112C373.797 213.608 374.644 211.974 375.425 210.34C375.816 209.49 376.142 208.641 376.468 207.856C376.794 207.072 377.054 206.288 377.25 205.503C377.771 204 378.096 202.562 378.422 201.32C379.074 198.836 379.204 197.137 379.204 197.137C379.204 197.137 377.771 197.921 375.556 199.294C373.406 200.666 370.54 202.562 367.869 204.85C366.5 206.026 365.263 207.268 364.09 208.575C363.569 209.098 363.113 209.686 362.657 210.275C362.917 205.895 362.983 201.516 362.852 197.202C364.937 196.614 366.696 195.502 368.259 193.934C369.367 192.757 370.409 191.385 371.256 189.881C372.038 188.378 372.754 186.744 373.276 185.11C373.797 183.475 374.318 181.841 374.579 180.273C374.839 178.704 375.035 177.201 375.165 175.959C375.295 174.717 375.36 173.605 375.36 172.886C375.36 172.167 375.36 171.71 375.36 171.71C375.36 171.71 375.035 171.906 374.448 172.364C373.927 172.756 373.08 173.409 372.103 174.128C370.214 175.632 367.673 177.789 365.393 180.273C364.807 180.861 364.285 181.515 363.699 182.168C363.178 182.822 362.592 183.475 362.07 184.194C361.94 184.391 361.81 184.587 361.68 184.783C361.158 180.599 360.377 176.416 359.334 172.364C361.289 171.645 362.852 170.337 364.09 168.638C366.044 166.154 366.891 162.82 367.412 159.421C367.543 158.572 367.608 157.722 367.673 156.938C367.673 156.088 367.673 155.304 367.673 154.519C367.608 152.95 367.478 151.447 367.412 150.14C367.282 148.832 367.087 147.787 366.891 147.068C366.826 146.283 366.761 145.826 366.761 145.826C366.761 145.826 365.719 146.872 364.285 148.636C362.852 150.336 360.833 152.82 359.139 155.434C358.292 156.742 357.51 158.18 356.859 159.618C356.598 160.14 356.338 160.663 356.142 161.186C354.448 156.415 352.559 152.035 350.54 147.983C352.624 147.068 354.123 145.368 355.035 143.277C356.077 140.662 356.272 137.263 355.882 133.929C355.295 130.792 354.383 127.524 353.471 125.171C352.494 122.883 351.647 121.38 351.647 121.38C351.647 121.38 350.93 122.556 349.953 124.386C349.497 125.301 348.976 126.413 348.455 127.589C347.934 128.766 347.347 130.138 346.826 131.576C346.37 132.949 345.914 134.452 345.654 135.89C345.523 136.609 345.393 137.328 345.393 138.047C345.393 138.309 345.328 138.57 345.328 138.832C342.331 134.126 339.074 129.746 335.426 125.498C336.468 124.975 337.25 124.321 337.901 123.537C338.683 122.556 339.139 121.314 339.334 120.007C339.53 118.7 339.465 117.196 339.269 115.758C339.009 114.255 338.618 112.686 338.031 111.248C336.859 108.307 335.426 105.431 334.123 103.404C332.82 101.378 331.777 100.136 331.777 100.136C331.777 100.136 331.256 101.313 330.735 103.143C330.149 104.973 329.562 107.457 329.172 110.268C328.781 113.013 328.781 115.954 329.562 118.634C329.628 118.83 329.693 119.026 329.758 119.223C325.523 114.843 320.898 110.398 315.817 105.823C320.833 102.947 319.465 96.9988 316.663 91.6389C315.23 88.959 313.406 86.5405 311.973 84.7757C310.475 82.8801 309.432 81.7689 309.432 81.7689C309.432 81.7689 307.999 86.3444 308.064 91.5735C308.064 94.1881 308.52 96.868 309.562 99.4826C309.823 100.006 310.084 100.528 310.344 100.986C305.719 96.8027 297.706 92.6194 297.706 92.6194C329.693 119.484 354.123 152.035 357.771 189.293C359.074 202.823 357.445 216.354 355.36 229.753C353.015 244.918 349.171 260.017 341.354 274.07C329.237 295.771 313.146 313.158 291.126 326.754C291.126 326.754 258.227 343.356 222.918 343.683C222.071 343.683 221.224 343.683 220.377 343.683C219.986 343.683 219.595 343.683 219.139 343.683C184.221 343.16 150.866 326.754 150.866 326.754C128.912 313.158 112.82 295.836 100.703 274.07C92.8857 260.017 89.1072 244.918 86.6967 229.753C84.6121 216.354 82.9834 202.823 84.2863 189.293C87.9345 151.97 112.364 119.484 144.351 92.6194C144.351 92.6194 136.338 96.868 131.713 100.986C132.039 100.528 132.299 100.006 132.495 99.4826C133.537 96.9334 133.993 94.1881 134.058 91.5735C133.993 86.3444 132.625 81.7689 132.625 81.7689C132.625 81.7689 131.583 82.8801 130.149 84.7103C128.716 86.5405 126.892 88.959 125.459 91.5735C122.592 96.9988 121.289 102.947 126.306 105.758C121.224 110.398 116.599 114.778 112.364 119.157C112.43 118.961 112.495 118.765 112.495 118.569C113.276 115.889 113.276 112.948 112.886 110.202C112.495 107.457 111.908 104.908 111.322 103.143C110.736 101.247 110.28 100.071 110.28 100.071C110.28 100.071 109.237 101.378 107.934 103.404C106.632 105.431 105.133 108.307 104.026 111.248C103.374 112.686 102.983 114.255 102.788 115.758C102.527 117.262 102.527 118.7 102.723 120.072C102.918 121.38 103.374 122.621 104.156 123.602C104.742 124.386 105.524 125.04 106.566 125.563C102.918 129.812 99.6609 134.191 96.6641 138.832C96.6641 138.57 96.599 138.309 96.599 138.047C96.5338 137.328 96.4687 136.609 96.3384 135.89C96.0127 134.387 95.6218 132.949 95.1006 131.576C94.6446 130.204 94.0583 128.766 93.5371 127.589C93.0159 126.413 92.4948 125.301 92.0387 124.386C91.0616 122.556 90.3449 121.38 90.3449 121.38C90.3449 121.38 89.5632 122.883 88.5208 125.171C87.6088 127.524 86.6967 130.792 86.1756 133.995C85.7847 137.328 85.9801 140.727 87.0225 143.342C87.9345 145.434 89.3677 147.068 91.5176 148.048C89.4329 152.101 87.6088 156.48 85.915 161.252C85.7196 160.729 85.459 160.206 85.1984 159.618C84.4818 158.18 83.7652 156.807 82.8531 155.434C81.1593 152.754 79.1398 150.336 77.7717 148.636C76.2733 146.872 75.231 145.826 75.231 145.826C75.231 145.826 75.1658 146.283 74.9704 147.002C74.8401 147.721 74.5795 148.767 74.4492 150.074C74.3189 151.382 74.1886 152.82 74.1886 154.454C74.1886 155.238 74.1235 156.023 74.1886 156.872C74.2538 157.722 74.3189 158.572 74.4492 159.356C74.9053 162.755 75.8173 166.089 77.7717 168.572C79.0095 170.272 80.573 171.579 82.4622 172.298C81.4199 176.416 80.7033 180.534 80.117 184.717C79.9867 184.521 79.8564 184.325 79.7261 184.129C79.2049 183.41 78.6837 182.756 78.0974 182.103C77.5763 181.449 76.9899 180.861 76.4036 180.207C74.1235 177.789 71.6479 175.632 69.6935 174.128C68.7163 173.344 67.8694 172.756 67.3483 172.298C66.762 171.906 66.4362 171.645 66.4362 171.645C66.4362 171.645 66.4362 172.102 66.4362 172.821C66.5014 173.54 66.5665 174.586 66.6968 175.893C66.8271 177.201 67.0225 178.639 67.2831 180.207C67.5437 181.776 68.0649 183.41 68.5861 185.044C69.1072 186.678 69.8238 188.312 70.6056 189.816C71.4525 191.319 72.4297 192.692 73.6023 193.868C75.1007 195.437 76.9248 196.548 78.9443 197.137C78.814 201.516 78.8792 205.83 79.1398 210.209C78.6837 209.621 78.2277 209.033 77.7065 208.51C76.5339 207.203 75.231 205.961 73.9281 204.784C71.2571 202.496 68.3906 200.535 66.2408 199.228C64.091 197.856 62.5926 197.071 62.5926 197.071C62.5926 197.071 62.788 198.771 63.3743 201.255C63.7001 202.496 64.091 203.934 64.547 205.438C64.8076 206.222 65.0681 207.007 65.3287 207.791C65.6545 208.575 66.0453 209.425 66.3711 210.275C67.1528 211.909 67.9997 213.543 69.0421 215.046C69.5632 215.831 70.0844 216.55 70.6707 217.203C71.2571 217.857 71.9085 218.511 72.56 219.099C74.775 220.994 77.3157 222.171 80.2473 222.302C80.8987 227.466 81.8108 232.564 82.9183 237.662C82.8531 237.532 82.7228 237.401 82.6577 237.27C80.4427 234.394 77.5111 231.845 74.3841 229.623C72.8206 228.511 71.2571 227.531 69.7587 226.616C68.3906 225.766 67.0877 224.982 65.9151 224.328C63.5046 223.021 61.876 222.302 61.876 222.302C61.876 222.302 62.2669 224.067 63.1789 226.681C64.1561 229.296 65.5893 232.76 67.674 236.094C68.7815 237.728 69.9541 239.362 71.2571 240.8C72.56 242.303 73.9281 243.61 75.5567 244.591C78.5534 246.552 81.8108 247.532 85.3287 246.879C85.5241 247.532 85.6544 248.186 85.8498 248.774C87.0225 253.35 88.5208 257.86 90.2798 262.239C89.9541 261.912 89.6283 261.586 89.3026 261.259C88.586 260.605 87.8042 259.951 87.0225 259.363C86.1756 258.775 85.459 258.187 84.6121 257.598C82.9183 256.422 81.0942 255.441 79.2701 254.461C77.446 253.48 75.5567 252.631 73.9281 251.912C72.2994 251.127 70.7359 250.474 69.3678 249.951C66.6968 248.905 64.8727 248.317 64.8727 248.317C64.8727 248.317 65.5893 250.147 67.0225 252.761C67.674 254.069 68.7163 255.572 69.8238 257.206C70.9313 258.775 72.1691 260.474 73.5372 262.043C75.0355 263.612 76.5991 265.181 78.2929 266.488C79.1398 267.142 79.9867 267.795 80.8336 268.383C81.2896 268.645 81.6805 268.906 82.1365 269.168C82.5925 269.429 83.0485 269.625 83.5046 269.821C87.0876 271.456 90.6707 271.978 94.0583 270.802C96.5338 275.77 99.3351 280.607 102.658 285.313C102.071 285.051 101.55 284.659 100.964 284.267C100.052 283.744 99.1397 283.221 98.1625 282.698C97.2505 282.175 96.2733 281.718 95.2309 281.26C93.2765 280.345 91.1918 279.561 89.042 278.842C88.0648 278.515 87.0225 278.188 85.9801 277.861C85.0029 277.534 84.0257 277.273 83.1137 277.012C81.2244 276.489 79.5306 275.966 78.0323 275.639C75.0355 274.92 73.0812 274.528 73.0812 274.528C73.0812 274.528 74.3189 276.292 76.3385 278.842C77.3157 280.149 78.6837 281.522 80.2473 283.025C81.7456 284.528 83.4394 286.032 85.2635 287.47C87.1528 288.842 89.1723 290.215 91.1918 291.326C92.2342 291.849 93.2114 292.372 94.2537 292.83C95.2309 293.287 96.2733 293.679 97.3156 293.941C101.42 295.052 105.263 294.921 108.456 293.091C111.648 297.144 115.035 301.196 118.684 305.118C118.553 305.053 118.358 304.987 118.228 304.922C117.706 304.726 117.185 304.53 116.599 304.334C116.013 304.138 115.557 303.942 115.035 303.745C113.993 303.419 112.886 303.092 111.713 302.765C109.433 302.177 107.153 301.719 104.807 301.327C102.462 301 100.377 300.608 98.2928 300.346C96.2733 300.085 94.384 299.889 92.7554 299.758C89.5632 299.497 87.4134 299.431 87.4134 299.431C87.4134 299.431 89.1072 301.065 91.9085 303.353C92.6251 303.942 93.3417 304.53 94.1886 305.183C95.0355 305.772 95.9475 306.425 96.9247 307.014C98.8791 308.256 100.964 309.497 103.179 310.674C103.7 310.935 104.286 311.262 104.807 311.524C105.394 311.785 105.98 312.047 106.566 312.308C107.739 312.766 108.912 313.223 110.084 313.615C112.43 314.4 114.775 314.988 116.99 315.25C120.768 315.642 124.156 315.119 126.762 313.55C129.693 316.426 132.755 319.171 135.947 321.721C134.97 321.59 133.993 321.459 133.016 321.328C130.605 321.067 128.065 321.067 125.719 320.936C121.029 320.805 116.469 321.002 113.146 321.263C111.452 321.394 110.084 321.524 109.172 321.59C108.195 321.721 107.674 321.721 107.674 321.721C107.674 321.721 107.804 321.786 108.065 321.982C108.325 322.113 108.651 322.374 109.172 322.636C110.149 323.224 111.518 324.008 113.211 324.923C114.905 325.838 116.86 326.819 119.074 327.865C121.355 328.845 123.765 329.695 126.306 330.545C127.544 330.937 128.846 331.329 130.084 331.656C130.736 331.852 131.322 331.983 131.973 332.113C132.625 332.244 133.276 332.375 133.863 332.44C136.469 332.832 138.944 333.094 141.224 333.029C144.351 332.963 147.087 332.31 149.237 331.002C150.41 331.721 151.648 332.375 152.885 333.029C153.146 333.159 153.407 333.225 153.537 333.225C170.149 342.376 190.67 347.997 207.543 350.023C193.993 352.572 178.097 355.318 161.224 357.932L142.983 373.489C142.983 373.489 184.025 359.762 222.331 351.069C260.572 359.828 301.615 373.489 301.615 373.489L283.374 357.932C266.045 355.318 249.758 352.442 236.012 349.827C256.924 347.409 274.514 341.264 288.651 333.225C288.781 333.225 288.976 333.159 289.172 333.029C290.409 332.375 291.582 331.721 292.82 331.002C294.97 332.31 297.706 332.963 300.833 333.029C303.113 333.094 305.654 332.898 308.194 332.44C308.846 332.375 309.497 332.244 310.149 332.113C310.8 331.983 311.387 331.787 312.038 331.656C313.276 331.329 314.579 330.937 315.817 330.545C318.357 329.76 320.768 328.845 323.048 327.865C325.198 326.819 327.217 325.838 328.911 324.923C330.605 324.008 331.973 323.224 332.95 322.636C333.406 322.374 333.797 322.113 334.058 321.982C334.253 321.851 334.448 321.721 334.448 321.721C334.448 321.721 333.927 321.655 332.95 321.59C331.973 321.524 330.605 321.394 328.976 321.263C325.654 321.002 321.093 320.805 316.403 320.936C314.123 321.067 311.517 321.067 309.106 321.328C308.129 321.459 307.152 321.59 306.175 321.721C309.367 319.106 312.429 316.361 315.426 313.55C318.032 315.119 321.419 315.642 325.198 315.25C327.413 314.988 329.693 314.4 332.038 313.615C333.211 313.223 334.383 312.766 335.556 312.308C336.142 312.047 336.729 311.785 337.315 311.524C337.901 311.262 338.422 310.935 339.009 310.674C341.158 309.497 343.308 308.256 345.263 307.014C346.24 306.36 347.152 305.772 347.999 305.183C348.781 304.53 349.562 303.942 350.279 303.353C353.08 301.131 354.774 299.431 354.774 299.431C354.774 299.431 352.689 299.497 349.432 299.758C347.803 299.889 345.914 300.085 343.895 300.346C341.81 300.608 339.725 301 337.38 301.327C335.1 301.719 332.755 302.177 330.474 302.765C329.367 303.026 328.26 303.419 327.152 303.745C326.631 303.942 326.11 304.138 325.523 304.334C325.002 304.53 324.481 304.726 323.96 304.922C323.764 304.987 323.634 305.053 323.504 305.118C327.087 301.131 330.474 297.078 333.732 293.091C336.924 294.921 340.768 295.052 344.872 293.941C345.914 293.679 346.957 293.287 347.999 292.83C349.041 292.372 350.084 291.915 351.061 291.326C353.08 290.215 355.1 288.908 356.989 287.47C358.748 286.032 360.442 284.528 362.005 283.025C363.504 281.522 364.872 280.149 365.914 278.842C367.999 276.292 369.237 274.528 369.237 274.528C369.237 274.528 367.217 274.92 364.285 275.639C362.787 276.031 361.028 276.489 359.204 277.012C358.292 277.273 357.315 277.6 356.272 277.861C355.23 278.188 354.188 278.515 353.145 278.842C351.061 279.561 348.976 280.345 346.957 281.26C345.979 281.718 345.002 282.175 344.09 282.698C343.113 283.156 342.201 283.679 341.289 284.267C340.702 284.594 340.181 284.986 339.66 285.378C342.983 280.672 345.784 275.835 348.259 270.867C351.712 272.044 355.295 271.521 358.813 269.887C359.269 269.691 359.725 269.429 360.181 269.168C360.637 268.906 361.028 268.645 361.484 268.383C362.331 267.795 363.178 267.207 364.025 266.488C365.719 265.181 367.282 263.612 368.781 262.043C370.149 260.474 371.386 258.775 372.494 257.206C373.536 255.637 374.579 254.134 375.295 252.761C376.663 250.147 377.445 248.317 377.445 248.317C377.445 248.317 375.621 248.905 372.95 249.951C371.647 250.474 370.018 251.127 368.39 251.912C366.761 252.696 364.872 253.546 363.048 254.461C361.224 255.376 359.399 256.422 357.706 257.598C356.859 258.187 356.077 258.775 355.295 259.363C354.513 259.951 353.732 260.605 353.015 261.259C352.689 261.586 352.299 261.912 352.038 262.239C353.797 257.794 355.23 253.284 356.468 248.774C356.338 248.251 356.533 247.598 356.663 246.944Z" fill="white"/>
</g>
<path d="M184.069 237.093C172.751 236.637 161.777 236.209 151.082 233.393C148.622 232.747 146.204 231.849 143.884 230.807C142.481 230.175 141.14 229.205 140.039 228.113C134.435 222.54 134.845 217.174 141.303 212.707C143.573 211.136 146.046 209.733 148.613 208.736C154.633 206.389 160.77 204.349 166.844 202.143C168.586 201.511 169.24 202.048 169.493 203.867C170.242 209.182 170.969 209.972 176.253 211.01C184.516 212.635 192.855 212.486 201.194 211.782C223.392 209.909 244.592 204.471 264.307 193.853C266.753 192.535 269.249 191.227 271.446 189.553C273.116 188.28 274.325 186.416 275.774 184.842C276.352 184.214 276.97 183.203 277.642 183.14C284.127 182.531 290.62 181.976 297.128 181.678C298.761 181.606 300.526 182.337 302.078 183.036C305.647 184.643 306.915 187.851 304.907 191.227C303.283 193.957 301.162 196.52 298.811 198.659C291.812 205.031 283.797 209.909 275.151 213.772C251.203 224.462 226.433 232.377 200.373 235.929C198.216 236.222 196.041 236.43 193.866 236.574C190.49 236.8 187.11 236.935 184.069 237.093Z" fill="white"/>
<path d="M206.413 144.034C201.729 145.248 197.04 146.462 192.356 147.671C192.37 147.946 192.383 148.222 192.397 148.497C193.502 148.497 194.649 148.695 195.7 148.465C200.754 147.351 205.831 146.29 210.804 144.878C214.915 143.709 218.872 142.017 222.934 140.654C230.221 138.213 237.762 138.357 245.248 139.043C248.94 139.381 252.663 140.334 256.155 141.602C261.354 143.492 264.093 147.441 265.153 153.019C266.381 159.485 268.254 165.834 270.077 172.17C270.596 173.975 269.747 174.444 268.57 175.067C258.29 180.518 247.509 184.652 236.192 187.355C216.187 192.134 196.038 192.576 175.763 189.295C173.669 188.957 172.871 188.217 173.349 186.046C174.536 180.694 175.542 175.302 176.725 169.95C177.095 168.271 177.573 166.543 178.403 165.058C181.715 159.138 183.62 152.788 184.793 146.146C184.987 145.058 185.998 143.863 186.968 143.24C188.119 142.504 189.608 142.112 190.993 141.958C196.21 141.381 201.3 142.256 206.413 144.034Z" fill="white"/>
</g>
<g clip-path="url(#clip1_296_9882)">
<path d="M197.397 173.951C197.154 173.596 196.933 173.308 196.8 173.086C196.712 172.975 196.668 172.909 196.623 172.842C196.579 172.776 196.579 172.754 196.579 172.754C196.579 172.754 196.513 172.864 196.402 173.086C196.292 173.308 196.159 173.619 196.027 173.996C195.739 174.772 195.43 175.837 195.363 177.035C195.319 177.634 195.363 178.233 195.496 178.832C195.629 179.43 195.828 180.029 196.137 180.606C196.225 180.739 196.292 180.894 196.38 181.028C196.469 181.161 196.579 181.294 196.69 181.405C196.911 181.649 197.154 181.893 197.441 182.115C197.994 182.558 198.657 182.913 199.431 183.179C200.426 182.336 200.647 181.227 200.47 180.096C200.382 179.519 200.205 178.942 199.962 178.388C199.896 178.233 199.829 178.1 199.763 177.966C199.697 177.811 199.652 177.678 199.586 177.523C199.453 177.234 199.321 176.946 199.166 176.68C198.879 176.125 198.547 175.615 198.237 175.171C197.906 174.728 197.64 174.306 197.397 173.951Z" fill="white"/>
<path d="M193.021 171.622L192.933 171.201C192.8 170.646 192.623 170.092 192.446 169.626C192.358 169.382 192.269 169.16 192.181 168.938C192.115 168.717 192.048 168.495 191.982 168.317C191.717 167.563 191.473 167.075 191.473 167.075C191.473 167.075 191.098 167.496 190.633 168.184C190.39 168.539 190.147 168.961 189.904 169.426C189.66 169.892 189.417 170.447 189.263 170.979C189.108 171.534 188.997 172.11 188.953 172.709C188.931 172.998 188.931 173.308 188.975 173.619C188.997 173.774 188.997 173.929 189.041 174.062C189.086 174.218 189.108 174.351 189.174 174.484C189.351 175.061 189.66 175.615 190.058 176.103C190.28 176.347 190.501 176.591 190.788 176.813C191.075 177.035 191.407 177.212 191.761 177.368C192.91 176.68 193.308 175.682 193.397 174.595C193.441 174.04 193.419 173.464 193.33 172.887C193.286 172.598 193.22 172.31 193.154 172.044C193.109 171.889 193.065 171.755 193.021 171.622Z" fill="white"/>
<path d="M184.796 170.225C185.017 170.469 185.282 170.691 185.569 170.913C186.808 170.425 187.471 169.537 187.78 168.517C187.869 168.273 187.935 167.985 188.001 167.718C188.068 167.452 188.112 167.164 188.134 166.898C188.2 166.343 188.2 165.789 188.178 165.234C188.2 164.679 188.178 164.147 188.134 163.659C188.09 163.171 188.001 162.727 188.001 162.35C187.935 161.574 187.825 161.086 187.825 161.086C187.825 161.086 187.382 161.419 186.763 162.018C186.454 162.328 186.1 162.683 185.768 163.104C185.592 163.326 185.415 163.526 185.26 163.77C185.105 163.992 184.95 164.236 184.796 164.48C184.508 164.99 184.265 165.522 184.066 166.077C183.978 166.365 183.911 166.654 183.845 166.942C183.801 167.23 183.801 167.519 183.801 167.807C183.845 168.384 183.978 168.938 184.243 169.471C184.376 169.737 184.552 170.003 184.796 170.225Z" fill="white"/>
<path d="M180.199 163.082C180.353 163.348 180.552 163.592 180.774 163.836C182.056 163.57 182.918 162.816 183.471 161.884C183.537 161.773 183.603 161.662 183.67 161.529C183.736 161.418 183.802 161.285 183.869 161.152C183.979 160.908 184.09 160.642 184.178 160.376C184.377 159.843 184.51 159.311 184.598 158.779C184.731 158.246 184.819 157.714 184.886 157.248C184.908 157.004 184.952 156.76 184.974 156.56C184.996 156.339 184.996 156.139 185.04 155.939C185.129 155.163 185.151 154.675 185.151 154.675C185.151 154.675 184.643 154.963 183.935 155.451C183.581 155.695 183.161 156.006 182.741 156.361C182.299 156.716 181.923 157.115 181.525 157.559C181.127 158.002 180.774 158.49 180.464 159C180.309 159.244 180.177 159.511 180.066 159.777C179.978 160.043 179.889 160.309 179.845 160.598C179.734 161.13 179.734 161.707 179.867 162.261C179.911 162.572 180.044 162.838 180.199 163.082Z" fill="white"/>
<path d="M181.258 154.32C181.612 153.921 181.966 153.455 182.253 152.967C182.54 152.479 182.784 151.969 182.983 151.459C183.425 150.438 183.734 149.44 183.911 148.708C184.11 147.954 184.221 147.466 184.221 147.466C184.221 147.466 183.69 147.688 182.916 148.109C182.54 148.309 182.076 148.575 181.634 148.885C181.17 149.196 180.705 149.529 180.241 149.906C179.335 150.66 178.472 151.614 178.052 152.634C177.831 153.145 177.721 153.699 177.721 154.231C177.743 154.764 177.92 155.318 178.251 155.851C179.556 155.74 180.528 155.141 181.258 154.32Z" fill="white"/>
<path d="M179.558 147.421C179.757 147.244 179.955 147.044 180.154 146.845C180.353 146.645 180.53 146.423 180.707 146.201C181.061 145.758 181.37 145.27 181.658 144.804C181.79 144.56 181.923 144.338 182.034 144.094C182.166 143.85 182.277 143.606 182.387 143.384C182.608 142.918 182.785 142.475 182.94 142.12C183.205 141.366 183.382 140.878 183.382 140.878C183.382 140.878 182.83 141.055 182.056 141.432C181.282 141.787 180.243 142.32 179.248 143.007C178.762 143.34 178.275 143.739 177.833 144.138C177.413 144.538 177.037 145.004 176.75 145.469C176.462 145.935 176.241 146.445 176.175 146.978C176.109 147.488 176.175 148.043 176.396 148.575C177.656 148.597 178.695 148.131 179.558 147.421Z" fill="white"/>
<path d="M175.862 140.767C177.056 140.922 178.118 140.523 179.002 139.879C179.444 139.569 179.864 139.17 180.24 138.748C180.638 138.327 180.992 137.883 181.301 137.439C181.633 136.996 181.876 136.552 182.163 136.131C182.429 135.731 182.65 135.332 182.827 134.999C183.004 134.667 183.136 134.4 183.225 134.201C183.313 134.023 183.379 133.912 183.379 133.912C183.379 133.912 183.247 133.935 183.004 134.001C182.76 134.068 182.429 134.156 182.031 134.289C181.235 134.556 180.196 134.977 179.179 135.554C178.913 135.687 178.67 135.842 178.405 136.02C178.162 136.175 177.941 136.352 177.697 136.552C177.255 136.929 176.857 137.328 176.504 137.772C175.862 138.682 175.575 139.702 175.862 140.767Z" fill="white"/>
<path d="M179.865 131.672C180.771 131.139 181.655 130.385 182.385 129.631C182.562 129.454 182.739 129.254 182.894 129.076C183.07 128.899 183.225 128.722 183.402 128.544C183.712 128.189 183.977 127.879 184.176 127.59C184.375 127.302 184.574 127.08 184.706 126.925C184.817 126.77 184.905 126.681 184.905 126.681C184.905 126.681 184.375 126.725 183.557 126.88C182.739 127.014 181.7 127.302 180.638 127.723C180.108 127.945 179.577 128.189 179.069 128.478C178.605 128.788 178.14 129.121 177.787 129.52C177.61 129.72 177.433 129.919 177.278 130.119C177.123 130.341 176.991 130.563 176.924 130.785C176.747 131.25 176.703 131.761 176.77 132.271C177.897 132.515 178.936 132.204 179.865 131.672Z" fill="white"/>
<path d="M187.272 120.514C186.874 120.514 186.409 120.536 185.879 120.603C185.37 120.647 184.84 120.736 184.287 120.869C183.734 120.98 183.181 121.158 182.629 121.357C182.363 121.446 182.098 121.579 181.833 121.69C181.59 121.801 181.369 121.934 181.147 122.089C180.285 122.71 179.6 123.509 179.556 124.529C180.573 124.906 181.634 124.773 182.607 124.418C183.646 124.086 184.596 123.509 185.459 122.91C186.365 122.355 187.117 121.734 187.669 121.291C188.244 120.847 188.598 120.514 188.598 120.514C188.598 120.514 188.067 120.492 187.272 120.514Z" fill="white"/>
<path d="M192.403 114.569C191.629 114.503 190.546 114.458 189.462 114.547C188.357 114.636 187.185 114.858 186.19 115.324C185.217 115.789 184.399 116.455 184.09 117.386C184.532 117.63 184.996 117.764 185.483 117.83C185.991 117.874 186.5 117.852 187.03 117.764C187.561 117.653 188.091 117.52 188.6 117.32C189.108 117.142 189.595 116.921 190.103 116.699C191.098 116.255 191.96 115.745 192.602 115.368C193.265 114.991 193.663 114.725 193.663 114.725C193.663 114.725 193.176 114.636 192.403 114.569Z" fill="white"/>
<path d="M191.628 109.068C190.699 109.512 189.881 110.155 189.55 111.064C191.164 112.063 193.529 111.309 195.386 110.377C196.359 109.911 197.244 109.401 197.863 109.002C198.482 108.602 198.857 108.314 198.857 108.314C198.857 108.314 196.956 108.048 194.79 108.292C193.728 108.38 192.579 108.624 191.628 109.068Z" fill="white"/>
<path d="M242.612 183.224C243.386 182.958 244.049 182.603 244.602 182.159C244.867 181.937 245.132 181.693 245.353 181.449C245.464 181.316 245.574 181.205 245.663 181.072C245.751 180.939 245.84 180.806 245.906 180.651C246.216 180.074 246.415 179.475 246.525 178.876C246.658 178.277 246.724 177.678 246.658 177.079C246.569 175.881 246.282 174.817 245.972 174.04C245.84 173.641 245.685 173.33 245.597 173.131C245.486 172.909 245.42 172.798 245.42 172.798C245.42 172.798 245.398 172.82 245.353 172.887C245.309 172.931 245.243 173.02 245.176 173.131C245.022 173.33 244.823 173.619 244.58 173.996C244.336 174.351 244.049 174.794 243.784 175.282C243.474 175.748 243.142 176.258 242.855 176.791C242.7 177.057 242.568 177.345 242.435 177.634C242.369 177.767 242.302 177.922 242.258 178.055C242.192 178.188 242.125 178.344 242.059 178.477C241.816 179.053 241.639 179.608 241.551 180.185C241.418 181.294 241.639 182.381 242.612 183.224Z" fill="white"/>
<path d="M251.365 168.184C250.901 167.496 250.525 167.075 250.525 167.075C250.525 167.075 250.304 167.541 250.017 168.317C249.95 168.517 249.884 168.717 249.818 168.938C249.729 169.16 249.641 169.382 249.552 169.626C249.375 170.114 249.198 170.646 249.066 171.201L248.977 171.622C248.933 171.755 248.889 171.889 248.867 172.044C248.801 172.31 248.734 172.598 248.69 172.887C248.602 173.464 248.579 174.04 248.624 174.595C248.712 175.682 249.11 176.68 250.26 177.368C250.613 177.212 250.945 177.013 251.232 176.813C251.52 176.613 251.741 176.369 251.94 176.125C252.36 175.615 252.647 175.083 252.846 174.506C252.891 174.373 252.935 174.218 252.957 174.085C252.979 173.952 253.001 173.796 253.023 173.641C253.045 173.33 253.045 173.042 253.045 172.732C253.001 172.133 252.891 171.556 252.736 171.001C252.581 170.469 252.338 169.914 252.095 169.449C251.852 168.961 251.586 168.539 251.365 168.184Z" fill="white"/>
<path d="M257.223 164.48C257.068 164.236 256.913 163.992 256.78 163.77C256.626 163.548 256.449 163.326 256.272 163.104C255.918 162.683 255.564 162.328 255.255 162.018C254.636 161.419 254.194 161.086 254.194 161.086C254.194 161.086 254.083 161.574 254.017 162.35C253.995 162.75 253.928 163.171 253.884 163.659C253.84 164.147 253.818 164.679 253.818 165.234C253.796 165.766 253.796 166.343 253.862 166.898C253.884 167.186 253.928 167.452 253.995 167.718C254.061 167.985 254.127 168.251 254.216 168.517C254.547 169.515 255.189 170.425 256.449 170.913C256.736 170.713 257.002 170.469 257.223 170.247C257.444 170.003 257.643 169.759 257.753 169.471C258.019 168.938 258.151 168.362 258.195 167.807C258.217 167.519 258.195 167.23 258.173 166.942C258.129 166.654 258.063 166.365 257.974 166.077C257.775 165.522 257.51 164.99 257.223 164.48Z" fill="white"/>
<path d="M258.529 161.907C259.082 162.816 259.944 163.57 261.226 163.836C261.447 163.592 261.646 163.326 261.801 163.082C261.956 162.816 262.066 162.55 262.133 162.284C262.243 161.729 262.243 161.175 262.155 160.62C262.088 160.332 262.022 160.065 261.911 159.799C261.823 159.533 261.668 159.267 261.514 159.023C261.226 158.513 260.85 158.025 260.474 157.581C260.076 157.137 259.679 156.738 259.258 156.383C258.838 156.028 258.418 155.718 258.065 155.474C257.357 154.964 256.849 154.697 256.849 154.697C256.849 154.697 256.849 155.208 256.959 155.962C256.981 156.161 257.003 156.361 257.026 156.583C257.048 156.805 257.07 157.026 257.092 157.27C257.158 157.736 257.269 158.269 257.401 158.801C257.49 159.333 257.622 159.866 257.821 160.398C257.91 160.664 258.02 160.931 258.153 161.175C258.219 161.308 258.286 161.419 258.352 161.552C258.396 161.685 258.463 161.796 258.529 161.907Z" fill="white"/>
<path d="M264.275 154.231C264.275 153.699 264.165 153.145 263.944 152.634C263.546 151.614 262.661 150.66 261.755 149.906C261.313 149.529 260.826 149.174 260.384 148.885C259.942 148.575 259.478 148.331 259.08 148.109C258.306 147.688 257.775 147.466 257.775 147.466C257.775 147.466 257.886 147.976 258.107 148.708C258.284 149.44 258.616 150.438 259.036 151.459C259.235 151.969 259.478 152.479 259.765 152.967C260.053 153.455 260.406 153.921 260.76 154.342C261.49 155.141 262.462 155.762 263.767 155.829C264.054 155.296 264.253 154.764 264.275 154.231Z" fill="white"/>
<path d="M265.802 146.933C265.736 146.401 265.515 145.913 265.228 145.425C264.94 144.959 264.564 144.493 264.144 144.094C263.702 143.673 263.238 143.296 262.729 142.963C261.757 142.275 260.718 141.743 259.944 141.388C259.17 141.033 258.617 140.833 258.617 140.833C258.617 140.833 258.772 141.321 259.059 142.075C259.192 142.453 259.369 142.874 259.59 143.34C259.701 143.584 259.811 143.806 259.944 144.05C260.076 144.294 260.187 144.538 260.32 144.76C260.607 145.225 260.916 145.713 261.27 146.157C261.447 146.379 261.646 146.601 261.823 146.8C262.022 147 262.221 147.2 262.42 147.377C263.26 148.087 264.299 148.575 265.559 148.508C265.802 147.998 265.869 147.444 265.802 146.933Z" fill="white"/>
<path d="M265.471 137.794C265.139 137.351 264.742 136.951 264.277 136.574C264.056 136.397 263.813 136.219 263.57 136.042C263.327 135.887 263.061 135.731 262.796 135.576C261.779 134.999 260.718 134.578 259.922 134.312C259.524 134.179 259.192 134.068 258.949 134.023C258.706 133.957 258.573 133.935 258.573 133.935C258.573 133.935 258.617 134.045 258.728 134.223C258.816 134.423 258.949 134.689 259.126 135.021C259.303 135.354 259.524 135.731 259.789 136.153C260.055 136.552 260.32 137.018 260.629 137.462C260.961 137.905 261.315 138.349 261.691 138.77C262.066 139.192 262.486 139.569 262.929 139.902C263.813 140.545 264.874 140.944 266.068 140.789C266.422 139.702 266.134 138.682 265.471 137.794Z" fill="white"/>
<path d="M264.739 130.119C264.607 129.919 264.43 129.698 264.231 129.52C263.855 129.143 263.413 128.788 262.926 128.478C262.44 128.189 261.887 127.923 261.357 127.723C260.273 127.302 259.256 127.014 258.438 126.88C257.62 126.725 257.09 126.681 257.09 126.681C257.09 126.681 257.156 126.77 257.289 126.925C257.421 127.08 257.598 127.302 257.819 127.59C258.041 127.879 258.306 128.189 258.615 128.544C258.77 128.722 258.925 128.899 259.102 129.076C259.279 129.254 259.433 129.454 259.61 129.631C260.318 130.385 261.224 131.117 262.131 131.672C263.059 132.204 264.12 132.493 265.27 132.271C265.358 131.738 265.292 131.25 265.115 130.785C265.005 130.563 264.872 130.341 264.739 130.119Z" fill="white"/>
<path d="M260.85 122.089C260.629 121.934 260.407 121.801 260.142 121.668C259.899 121.557 259.612 121.424 259.346 121.335C258.816 121.135 258.241 120.98 257.688 120.847C257.135 120.714 256.605 120.625 256.096 120.581C255.588 120.536 255.101 120.514 254.703 120.492C253.908 120.47 253.377 120.492 253.377 120.492C253.377 120.492 253.731 120.803 254.306 121.268C254.88 121.712 255.61 122.333 256.494 122.91C257.334 123.509 258.307 124.063 259.346 124.418C260.319 124.773 261.38 124.906 262.419 124.529C262.397 123.509 261.712 122.71 260.85 122.089Z" fill="white"/>
<path d="M255.832 115.323C254.837 114.88 253.643 114.658 252.56 114.569C251.477 114.458 250.393 114.503 249.62 114.591C248.846 114.658 248.359 114.747 248.359 114.747C248.359 114.747 248.757 115.013 249.421 115.39C250.084 115.767 250.924 116.277 251.919 116.721C252.427 116.943 252.914 117.164 253.422 117.342C253.931 117.519 254.461 117.675 254.992 117.763C255.5 117.852 256.031 117.897 256.54 117.83C257.026 117.786 257.512 117.653 257.954 117.386C257.601 116.455 256.783 115.789 255.832 115.323Z" fill="white"/>
<path d="M246.59 110.377C248.469 111.309 250.791 112.041 252.427 111.065C252.095 110.155 251.277 109.512 250.349 109.068C249.42 108.624 248.27 108.403 247.187 108.27C245.02 108.048 243.119 108.292 243.119 108.292C243.119 108.292 243.495 108.58 244.136 108.979C244.755 109.401 245.64 109.911 246.59 110.377Z" fill="white"/>
<path d="M267.039 156.805C268.211 157.004 269.338 156.694 270.355 156.028C270.908 155.673 271.35 155.23 271.814 154.742C272.257 154.254 272.655 153.699 273.03 153.144C273.738 152.013 274.224 150.837 274.556 149.95C274.843 149.063 274.998 148.464 274.998 148.464C274.998 148.464 274.445 148.708 273.649 149.152C273.251 149.373 272.787 149.64 272.279 149.928C271.77 150.239 271.24 150.571 270.709 150.948C269.648 151.703 268.653 152.568 267.901 153.544C267.857 153.588 267.835 153.632 267.791 153.677C268.167 151.947 268.476 150.194 268.697 148.464C269.692 148.42 270.554 148.02 271.306 147.377C271.527 147.177 271.748 146.978 271.947 146.734C272.146 146.512 272.323 146.268 272.5 146.002C272.854 145.492 273.141 144.937 273.406 144.382C273.539 144.094 273.649 143.806 273.76 143.539C273.871 143.273 273.959 143.007 274.025 142.741C274.202 142.231 274.313 141.743 274.423 141.321C274.644 140.478 274.689 139.902 274.689 139.902C274.689 139.902 274.202 140.168 273.45 140.634C272.721 141.099 271.748 141.743 270.842 142.519C270.377 142.918 269.957 143.34 269.559 143.783C269.382 143.961 269.228 144.161 269.073 144.36C269.161 142.874 269.184 141.388 269.139 139.924C269.847 139.724 270.444 139.347 270.974 138.815C271.35 138.415 271.704 137.95 271.991 137.439C272.257 136.929 272.5 136.375 272.677 135.82C272.854 135.265 273.03 134.711 273.119 134.178C273.207 133.646 273.274 133.136 273.318 132.714C273.362 132.293 273.384 131.916 273.384 131.672C273.384 131.428 273.384 131.273 273.384 131.273C273.384 131.273 273.274 131.339 273.075 131.494C272.898 131.628 272.61 131.849 272.279 132.093C271.638 132.604 270.775 133.336 270.002 134.178C269.803 134.378 269.626 134.6 269.427 134.822C269.25 135.044 269.051 135.265 268.874 135.509C268.83 135.576 268.786 135.643 268.741 135.709C268.564 134.289 268.299 132.87 267.945 131.494C268.609 131.25 269.139 130.807 269.559 130.23C270.223 129.387 270.51 128.256 270.687 127.102C270.731 126.814 270.753 126.526 270.775 126.259C270.775 125.971 270.775 125.705 270.775 125.439C270.753 124.906 270.709 124.396 270.687 123.952C270.643 123.509 270.576 123.154 270.51 122.91C270.488 122.644 270.466 122.488 270.466 122.488C270.466 122.488 270.112 122.843 269.626 123.442C269.139 124.019 268.454 124.862 267.879 125.749C267.592 126.193 267.326 126.681 267.105 127.169C267.017 127.346 266.928 127.524 266.862 127.701C266.287 126.082 265.646 124.596 264.961 123.22C265.668 122.91 266.177 122.333 266.486 121.623C266.84 120.736 266.906 119.582 266.774 118.451C266.575 117.386 266.265 116.277 265.956 115.479C265.624 114.702 265.337 114.192 265.337 114.192C265.337 114.192 265.093 114.591 264.762 115.213C264.607 115.523 264.43 115.9 264.253 116.299C264.076 116.699 263.877 117.165 263.701 117.653C263.546 118.118 263.391 118.629 263.303 119.117C263.258 119.361 263.214 119.605 263.214 119.849C263.214 119.937 263.192 120.026 263.192 120.115C262.175 118.518 261.07 117.032 259.832 115.59C260.185 115.412 260.451 115.19 260.672 114.924C260.937 114.591 261.092 114.17 261.158 113.726C261.224 113.283 261.202 112.772 261.136 112.284C261.048 111.774 260.915 111.242 260.716 110.754C260.318 109.756 259.832 108.78 259.389 108.092C258.947 107.404 258.594 106.983 258.594 106.983C258.594 106.983 258.417 107.382 258.24 108.003C258.041 108.624 257.842 109.467 257.709 110.421C257.577 111.353 257.577 112.351 257.842 113.261C257.864 113.327 257.886 113.394 257.908 113.46C256.471 111.974 254.901 110.466 253.177 108.913C254.879 107.937 254.415 105.918 253.464 104.099C252.978 103.19 252.359 102.369 251.873 101.77C251.364 101.127 251.01 100.75 251.01 100.75C251.01 100.75 250.524 102.302 250.546 104.077C250.546 104.964 250.701 105.874 251.055 106.761C251.143 106.939 251.231 107.116 251.32 107.271C249.75 105.852 247.031 104.432 247.031 104.432C257.886 113.549 266.177 124.596 267.415 137.24C267.857 141.831 267.304 146.423 266.597 150.971C265.801 156.117 264.497 161.241 261.844 166.01C257.731 173.375 252.271 179.275 244.798 183.889C244.798 183.889 233.633 189.524 221.65 189.634C221.363 189.634 221.075 189.634 220.788 189.634C220.655 189.634 220.523 189.634 220.368 189.634C208.518 189.457 197.198 183.889 197.198 183.889C189.748 179.275 184.287 173.397 180.175 166.01C177.522 161.241 176.239 156.117 175.421 150.971C174.714 146.423 174.161 141.831 174.603 137.24C175.841 124.574 184.132 113.549 194.987 104.432C194.987 104.432 192.268 105.874 190.698 107.271C190.809 107.116 190.897 106.939 190.964 106.761C191.317 105.896 191.472 104.964 191.494 104.077C191.472 102.302 191.008 100.75 191.008 100.75C191.008 100.75 190.654 101.127 190.168 101.748C189.681 102.369 189.062 103.19 188.576 104.077C187.603 105.918 187.161 107.937 188.863 108.891C187.139 110.466 185.569 111.952 184.132 113.438C184.154 113.371 184.176 113.305 184.176 113.238C184.442 112.329 184.442 111.331 184.309 110.399C184.176 109.467 183.977 108.602 183.778 108.003C183.579 107.36 183.425 106.961 183.425 106.961C183.425 106.961 183.071 107.404 182.629 108.092C182.187 108.78 181.678 109.756 181.302 110.754C181.081 111.242 180.949 111.774 180.882 112.284C180.794 112.795 180.794 113.283 180.86 113.749C180.926 114.192 181.081 114.614 181.346 114.946C181.545 115.213 181.811 115.434 182.164 115.612C180.926 117.054 179.821 118.54 178.804 120.115C178.804 120.026 178.782 119.937 178.782 119.849C178.76 119.605 178.738 119.361 178.693 119.117C178.583 118.606 178.45 118.118 178.273 117.653C178.119 117.187 177.92 116.699 177.743 116.299C177.566 115.9 177.389 115.523 177.234 115.213C176.903 114.591 176.659 114.192 176.659 114.192C176.659 114.192 176.394 114.702 176.04 115.479C175.731 116.277 175.421 117.386 175.245 118.473C175.112 119.605 175.178 120.758 175.532 121.645C175.841 122.355 176.328 122.91 177.057 123.243C176.35 124.618 175.731 126.104 175.156 127.723C175.09 127.546 175.001 127.368 174.913 127.169C174.67 126.681 174.427 126.215 174.117 125.749C173.542 124.84 172.857 124.019 172.393 123.442C171.884 122.843 171.53 122.488 171.53 122.488C171.53 122.488 171.508 122.644 171.442 122.888C171.398 123.132 171.309 123.487 171.265 123.93C171.221 124.374 171.177 124.862 171.177 125.416C171.177 125.683 171.154 125.949 171.177 126.237C171.199 126.526 171.221 126.814 171.265 127.08C171.42 128.234 171.729 129.365 172.393 130.208C172.813 130.785 173.343 131.228 173.984 131.472C173.631 132.87 173.387 134.267 173.188 135.687C173.144 135.62 173.1 135.554 173.056 135.487C172.879 135.243 172.702 135.021 172.503 134.8C172.326 134.578 172.127 134.378 171.928 134.156C171.154 133.336 170.314 132.604 169.651 132.093C169.319 131.827 169.032 131.628 168.855 131.472C168.656 131.339 168.546 131.25 168.546 131.25C168.546 131.25 168.546 131.406 168.546 131.65C168.568 131.894 168.59 132.249 168.634 132.692C168.678 133.136 168.745 133.624 168.833 134.156C168.921 134.689 169.098 135.243 169.275 135.798C169.452 136.352 169.695 136.907 169.961 137.417C170.248 137.927 170.58 138.393 170.978 138.792C171.486 139.325 172.105 139.702 172.79 139.902C172.746 141.388 172.768 142.852 172.857 144.338C172.702 144.138 172.547 143.939 172.37 143.761C171.972 143.318 171.53 142.896 171.088 142.497C170.182 141.721 169.209 141.055 168.479 140.611C167.75 140.146 167.241 139.879 167.241 139.879C167.241 139.879 167.308 140.456 167.507 141.299C167.617 141.721 167.75 142.209 167.904 142.719C167.993 142.985 168.081 143.251 168.17 143.517C168.28 143.783 168.413 144.072 168.524 144.36C168.789 144.915 169.076 145.469 169.43 145.98C169.607 146.246 169.784 146.49 169.983 146.712C170.182 146.933 170.403 147.155 170.624 147.355C171.376 147.998 172.238 148.397 173.233 148.442C173.454 150.194 173.763 151.924 174.139 153.655C174.117 153.61 174.073 153.566 174.051 153.522C173.299 152.546 172.304 151.68 171.243 150.926C170.712 150.549 170.182 150.216 169.673 149.906C169.209 149.617 168.767 149.351 168.369 149.129C167.551 148.686 166.998 148.442 166.998 148.442C166.998 148.442 167.131 149.041 167.44 149.928C167.772 150.815 168.258 151.991 168.966 153.122C169.342 153.677 169.74 154.231 170.182 154.719C170.624 155.23 171.088 155.673 171.641 156.006C172.658 156.671 173.763 157.004 174.957 156.782C175.023 157.004 175.068 157.226 175.134 157.426C175.532 158.978 176.04 160.509 176.637 161.995C176.527 161.884 176.416 161.773 176.306 161.662C176.063 161.441 175.797 161.219 175.532 161.019C175.245 160.82 175.001 160.62 174.714 160.42C174.139 160.021 173.52 159.688 172.901 159.356C172.282 159.023 171.641 158.734 171.088 158.49C170.535 158.224 170.005 158.002 169.541 157.825C168.634 157.47 168.015 157.27 168.015 157.27C168.015 157.27 168.258 157.891 168.745 158.779C168.966 159.222 169.319 159.733 169.695 160.287C170.071 160.82 170.491 161.396 170.955 161.929C171.464 162.461 171.995 162.993 172.569 163.437C172.857 163.659 173.144 163.881 173.432 164.08C173.586 164.169 173.719 164.258 173.874 164.347C174.029 164.435 174.183 164.502 174.338 164.568C175.554 165.123 176.77 165.3 177.92 164.901C178.76 166.587 179.71 168.228 180.838 169.826C180.639 169.737 180.462 169.604 180.263 169.471C179.954 169.293 179.644 169.116 179.312 168.938C179.003 168.761 178.671 168.606 178.318 168.45C177.654 168.14 176.947 167.874 176.217 167.63C175.886 167.519 175.532 167.408 175.178 167.297C174.847 167.186 174.515 167.097 174.205 167.008C173.564 166.831 172.989 166.654 172.481 166.543C171.464 166.299 170.801 166.165 170.801 166.165C170.801 166.165 171.221 166.764 171.906 167.63C172.238 168.073 172.702 168.539 173.233 169.049C173.741 169.559 174.316 170.07 174.935 170.558C175.576 171.023 176.262 171.489 176.947 171.866C177.301 172.044 177.632 172.221 177.986 172.377C178.318 172.532 178.671 172.665 179.025 172.754C180.418 173.131 181.722 173.086 182.806 172.465C183.889 173.841 185.039 175.216 186.277 176.547C186.232 176.525 186.166 176.502 186.122 176.48C185.945 176.414 185.768 176.347 185.569 176.281C185.37 176.214 185.215 176.148 185.039 176.081C184.685 175.97 184.309 175.859 183.911 175.748C183.137 175.549 182.363 175.393 181.568 175.26C180.772 175.149 180.064 175.016 179.357 174.928C178.671 174.839 178.03 174.772 177.477 174.728C176.394 174.639 175.665 174.617 175.665 174.617C175.665 174.617 176.239 175.172 177.19 175.948C177.433 176.148 177.676 176.347 177.964 176.569C178.251 176.769 178.561 176.991 178.892 177.19C179.556 177.612 180.263 178.033 181.015 178.432C181.192 178.521 181.391 178.632 181.568 178.721C181.767 178.809 181.966 178.898 182.164 178.987C182.562 179.142 182.96 179.297 183.358 179.431C184.154 179.697 184.95 179.896 185.702 179.985C186.984 180.118 188.134 179.941 189.018 179.408C190.013 180.384 191.052 181.316 192.135 182.181C191.804 182.137 191.472 182.092 191.141 182.048C190.323 181.959 189.46 181.959 188.664 181.915C187.073 181.871 185.525 181.937 184.397 182.026C183.823 182.07 183.358 182.115 183.049 182.137C182.717 182.181 182.54 182.181 182.54 182.181C182.54 182.181 182.585 182.203 182.673 182.27C182.761 182.314 182.872 182.403 183.049 182.492C183.38 182.691 183.845 182.958 184.42 183.268C184.994 183.579 185.658 183.911 186.409 184.266C187.183 184.599 188.001 184.887 188.863 185.176C189.283 185.309 189.726 185.442 190.146 185.553C190.367 185.619 190.566 185.664 190.787 185.708C191.008 185.753 191.229 185.797 191.428 185.819C192.312 185.952 193.152 186.041 193.926 186.019C194.987 185.997 195.916 185.775 196.646 185.331C197.043 185.575 197.464 185.797 197.884 186.019C197.972 186.063 198.06 186.085 198.105 186.085C203.742 189.191 210.707 191.099 216.433 191.786C211.834 192.651 206.44 193.583 200.714 194.47L194.523 199.75C194.523 199.75 208.451 195.091 221.451 192.141C234.429 195.114 248.357 199.75 248.357 199.75L242.167 194.47C236.286 193.583 230.759 192.607 226.094 191.72C233.191 190.899 239.16 188.814 243.958 186.085C244.002 186.085 244.068 186.063 244.135 186.019C244.555 185.797 244.953 185.575 245.373 185.331C246.102 185.775 247.031 185.997 248.092 186.019C248.866 186.041 249.728 185.974 250.59 185.819C250.811 185.797 251.032 185.753 251.254 185.708C251.475 185.664 251.674 185.597 251.895 185.553C252.315 185.442 252.757 185.309 253.177 185.176C254.039 184.91 254.857 184.599 255.631 184.266C256.361 183.911 257.046 183.579 257.621 183.268C258.196 182.958 258.66 182.691 258.992 182.492C259.146 182.403 259.279 182.314 259.367 182.27C259.434 182.226 259.5 182.181 259.5 182.181C259.5 182.181 259.323 182.159 258.992 182.137C258.66 182.115 258.196 182.07 257.643 182.026C256.515 181.937 254.968 181.871 253.376 181.915C252.602 181.959 251.718 181.959 250.9 182.048C250.568 182.092 250.237 182.137 249.905 182.181C250.988 181.294 252.027 180.362 253.044 179.408C253.929 179.941 255.078 180.118 256.361 179.985C257.112 179.896 257.886 179.697 258.682 179.431C259.08 179.297 259.478 179.142 259.876 178.987C260.075 178.898 260.274 178.809 260.473 178.721C260.672 178.632 260.849 178.521 261.048 178.432C261.777 178.033 262.507 177.612 263.17 177.19C263.502 176.968 263.811 176.769 264.099 176.569C264.364 176.347 264.629 176.148 264.872 175.948C265.823 175.194 266.398 174.617 266.398 174.617C266.398 174.617 265.69 174.639 264.585 174.728C264.032 174.772 263.391 174.839 262.706 174.928C261.998 175.016 261.291 175.149 260.495 175.26C259.721 175.393 258.925 175.549 258.151 175.748C257.776 175.837 257.4 175.97 257.024 176.081C256.847 176.148 256.67 176.214 256.471 176.281C256.294 176.347 256.117 176.414 255.941 176.48C255.874 176.502 255.83 176.525 255.786 176.547C257.002 175.194 258.151 173.818 259.257 172.465C260.34 173.086 261.645 173.131 263.037 172.754C263.391 172.665 263.745 172.532 264.099 172.377C264.452 172.221 264.806 172.066 265.138 171.866C265.823 171.489 266.508 171.046 267.15 170.558C267.746 170.07 268.321 169.559 268.852 169.049C269.36 168.539 269.825 168.073 270.178 167.63C270.886 166.764 271.306 166.165 271.306 166.165C271.306 166.165 270.621 166.299 269.626 166.543C269.117 166.676 268.52 166.831 267.901 167.008C267.592 167.097 267.26 167.208 266.906 167.297C266.553 167.408 266.199 167.519 265.845 167.63C265.138 167.874 264.43 168.14 263.745 168.45C263.413 168.606 263.082 168.761 262.772 168.938C262.44 169.094 262.131 169.271 261.821 169.471C261.622 169.582 261.446 169.715 261.269 169.848C262.396 168.251 263.347 166.609 264.187 164.923C265.359 165.323 266.575 165.145 267.769 164.591C267.923 164.524 268.078 164.435 268.233 164.347C268.388 164.258 268.52 164.169 268.675 164.08C268.962 163.881 269.25 163.681 269.537 163.437C270.112 162.993 270.643 162.461 271.151 161.929C271.615 161.396 272.036 160.82 272.411 160.287C272.765 159.755 273.119 159.245 273.362 158.779C273.826 157.891 274.092 157.27 274.092 157.27C274.092 157.27 273.473 157.47 272.566 157.825C272.124 158.002 271.571 158.224 271.019 158.49C270.466 158.757 269.825 159.045 269.206 159.356C268.587 159.666 267.968 160.021 267.393 160.42C267.105 160.62 266.84 160.82 266.575 161.019C266.309 161.219 266.044 161.441 265.801 161.662C265.69 161.773 265.558 161.884 265.469 161.995C266.066 160.487 266.553 158.956 266.973 157.426C266.928 157.248 266.995 157.026 267.039 156.805Z" fill="white"/>
</g>
<path d="M208.467 153.461C204.627 153.307 200.902 153.161 197.273 152.206C196.438 151.987 195.617 151.682 194.83 151.328C194.354 151.114 193.899 150.784 193.525 150.414C191.623 148.523 191.763 146.702 193.954 145.186C194.724 144.653 195.564 144.176 196.435 143.838C198.478 143.042 200.561 142.349 202.622 141.601C203.213 141.386 203.435 141.568 203.521 142.186C203.775 143.99 204.022 144.258 205.815 144.61C208.619 145.161 211.449 145.111 214.279 144.872C221.812 144.236 229.007 142.391 235.698 138.787C236.528 138.34 237.375 137.896 238.12 137.328C238.687 136.896 239.098 136.263 239.589 135.729C239.785 135.516 239.995 135.173 240.223 135.152C242.424 134.945 244.628 134.757 246.836 134.655C247.39 134.631 247.989 134.879 248.516 135.116C249.727 135.662 250.157 136.75 249.476 137.896C248.925 138.823 248.205 139.692 247.407 140.418C245.032 142.581 242.312 144.236 239.378 145.547C231.25 149.175 222.844 151.861 214.001 153.066C213.268 153.166 212.53 153.236 211.792 153.285C210.647 153.362 209.5 153.408 208.467 153.461Z" fill="white"/>
<path d="M216.05 121.88C214.461 122.292 212.87 122.704 211.28 123.115C211.285 123.208 211.289 123.302 211.294 123.395C211.669 123.395 212.058 123.462 212.415 123.384C214.13 123.006 215.853 122.646 217.541 122.167C218.936 121.77 220.279 121.196 221.657 120.733C224.13 119.905 226.689 119.954 229.23 120.187C230.483 120.301 231.746 120.625 232.931 121.055C234.696 121.697 235.625 123.037 235.985 124.929C236.402 127.124 237.037 129.279 237.656 131.429C237.832 132.041 237.544 132.201 237.144 132.412C233.656 134.262 229.997 135.665 226.156 136.582C219.368 138.204 212.53 138.354 205.649 137.241C204.938 137.126 204.667 136.875 204.83 136.138C205.233 134.322 205.574 132.492 205.975 130.675C206.101 130.106 206.263 129.519 206.545 129.015C207.669 127.006 208.315 124.851 208.713 122.597C208.779 122.228 209.122 121.822 209.452 121.611C209.842 121.361 210.347 121.228 210.818 121.176C212.588 120.98 214.315 121.277 216.05 121.88Z" fill="white"/>
<defs>
<clipPath id="clip0_296_9882">
<rect width="318.24" height="291.72" fill="white" transform="translate(61.876 81.7689)"/>
</clipPath>
<clipPath id="clip1_296_9882">
<rect width="108" height="99" fill="white" transform="translate(166.998 100.75)"/>
</clipPath>
</defs>
</svg>
