<svg width="48" height="48" viewBox="0 0 48 48" fill="none" xmlns="http://www.w3.org/2000/svg">
<rect width="48" height="48" rx="8" fill="white"/>
<path d="M43.5687 0H4.43128C1.98395 0 0 1.98395 0 4.43128V43.5687C0 46.016 1.98395 48 4.43128 48H43.5687C46.016 48 48 46.016 48 43.5687V4.43128C48 1.98395 46.016 0 43.5687 0Z" fill="#D02028"/>
<path d="M42.1178 13.5468C41.1369 13.2918 39.9127 13.902 39.6396 15.0171L36.5643 27.3434L33.7439 16.0597C33.7196 15.9294 33.6164 15.5681 33.6021 15.5477C33.3767 14.9431 32.972 14.4218 32.4422 14.0535C31.9124 13.6853 31.2827 13.4876 30.6375 13.4871C29.2766 13.4871 28.1082 14.3355 27.6707 15.5457C27.6671 15.5551 27.6148 15.7124 27.5942 15.7833C27.5914 15.795 27.5858 15.807 27.5832 15.8185L24.7166 27.3717C24.7166 27.3717 21.6737 15.2004 21.6704 15.1851L21.6605 15.1445C21.6605 15.142 21.6566 15.1407 21.6559 15.1384C21.5425 14.673 21.2777 14.2585 20.9031 13.96C20.5285 13.6614 20.0653 13.4958 19.5863 13.4891C19.5818 13.4891 19.5779 13.4871 19.5731 13.4871H19.5665C19.5634 13.4871 19.5606 13.4871 19.5573 13.4871C19.554 13.4871 19.5512 13.4871 19.5481 13.4871H16.1651C16.7807 13.9055 17.1231 14.5157 17.2585 15.221L17.9057 17.8039C17.9057 17.8039 21.6092 32.606 21.6125 32.6172C21.8057 33.2966 22.2151 33.8946 22.7786 34.3205C23.3421 34.7464 24.0291 34.977 24.7354 34.9774C26.1634 34.9774 27.3427 34.0355 27.7778 32.7534C27.7449 32.7358 27.7778 32.7567 27.7778 32.7534L30.6352 21.2996C30.6352 21.2996 33.4251 32.6213 33.4623 32.631C33.8568 33.9806 35.0836 34.9769 36.561 34.9769C37.3151 34.9764 38.0455 34.7136 38.627 34.2336C39.2086 33.7536 39.605 33.0862 39.7484 32.3459L43.7901 16.0845C44.0634 14.9694 43.2166 13.8316 42.1178 13.5468Z" fill="white"/>
<path d="M3.12671 15.6447C3.12671 16.9452 4.23338 17.8027 5.22786 17.8027H9.81341L9.82412 32.7918C9.82102 33.0768 9.87447 33.3596 9.9814 33.6238C10.0883 33.888 10.2466 34.1284 10.447 34.331C10.6475 34.5337 10.8861 34.6945 11.1492 34.8043C11.4122 34.9141 11.6944 34.9707 11.9794 34.9707C12.2645 34.9707 12.5467 34.9141 12.8097 34.8043C13.0728 34.6945 13.3114 34.5337 13.5119 34.331C13.7123 34.1284 13.8706 33.888 13.9775 33.6238C14.0844 33.3596 14.1379 33.0768 14.1348 32.7918L14.1241 17.8035H17.3757L16.7219 15.1796C16.7219 15.1796 16.3757 13.4263 14.3898 13.4872C14.3898 13.4872 13.3532 13.4872 13.8074 13.4872H5.19088C4.19641 13.4867 3.12671 14.3958 3.12671 15.6447Z" fill="white"/>
</svg>
