<svg width="194" height="119" viewBox="0 0 194 119" fill="none" xmlns="http://www.w3.org/2000/svg">
<rect y="9.15527e-05" width="194" height="109.787" rx="10" fill="#D02028" fill-opacity="0.1"/>
<rect x="2" y="2.00009" width="190" height="105.787" rx="8" stroke="#D02028" stroke-opacity="0.3" stroke-width="4"/>
<rect x="39.1064" y="115.929" width="116.553" height="3.07097" fill="#D02028" fill-opacity="0.3"/>
<path d="M91.7792 58.9632C90.1789 58.8987 88.6271 58.8381 87.1148 58.4399C86.767 58.3487 86.425 58.2217 86.097 58.0743C85.8986 57.985 85.7091 57.8478 85.5534 57.6933C84.7608 56.9053 84.8189 56.1466 85.732 55.5149C86.053 55.2928 86.4027 55.0944 86.7657 54.9534C87.617 54.6216 88.4848 54.3331 89.3436 54.0211C89.5899 53.9318 89.6825 54.0077 89.7182 54.2649C89.8241 55.0165 89.9269 55.1282 90.6741 55.275C91.8424 55.5047 93.0216 55.4836 94.2008 55.3841C97.3396 55.1193 100.337 54.3504 103.125 52.8489C103.471 52.6626 103.824 52.4776 104.135 52.2408C104.371 52.0609 104.542 51.7973 104.747 51.5747C104.828 51.486 104.916 51.343 105.011 51.3341C105.928 51.2479 106.846 51.1695 107.766 51.1273C107.997 51.1171 108.247 51.2205 108.466 51.3194C108.971 51.5466 109.15 52.0003 108.866 52.4776C108.636 52.8636 108.337 53.226 108.004 53.5285C107.014 54.4295 105.881 55.1193 104.659 55.6655C101.272 57.1771 97.7697 58.2963 94.0847 58.7985C93.7797 58.84 93.4721 58.8694 93.1646 58.8898C92.6873 58.9217 92.2093 58.9408 91.7792 58.9632Z" fill="#D10000"/>
<path d="M94.9384 45.8044C94.2761 45.976 93.6131 46.1476 92.9508 46.3187C92.9527 46.3576 92.9546 46.3965 92.9565 46.4354C93.1129 46.4354 93.2749 46.4635 93.4236 46.431C94.1383 46.2734 94.8561 46.1234 95.5593 45.9237C96.1406 45.7584 96.7002 45.5191 97.2745 45.3264C98.305 44.9812 99.3713 45.0016 100.43 45.0986C100.952 45.1465 101.478 45.2811 101.972 45.4604C102.707 45.7278 103.095 46.2861 103.245 47.0748C103.418 47.9892 103.683 48.887 103.941 49.7829C104.014 50.0381 103.894 50.1045 103.728 50.1925C102.274 50.9633 100.75 51.5478 99.1492 51.9301C96.3206 52.6058 93.4715 52.6683 90.6045 52.2044C90.3084 52.1566 90.1955 52.0519 90.2631 51.745C90.4309 50.9882 90.5732 50.2257 90.7404 49.4689C90.7927 49.2316 90.8604 48.9872 90.9778 48.7772C91.4462 47.9401 91.7154 47.0423 91.8813 46.103C91.9088 45.9492 92.0517 45.7801 92.1889 45.692C92.3516 45.588 92.5622 45.5325 92.7581 45.5108C93.4957 45.4292 94.2155 45.5529 94.9384 45.8044Z" fill="#D10000"/>
</svg>
